<svg xmlns="http://www.w3.org/2000/svg" xmlns:xlink="http://www.w3.org/1999/xlink" width="300" height="300" viewBox="654289.8522484417 5094263.835611518 19440.0 19440.0" preserveAspectRatio="xMinYMin meet"><g transform="matrix(1,0,0,-1,0,10207967.671223035)"><path fill-rule="evenodd" fill="#66cc99" stroke="#555555" stroke-width="129.6" opacity="0.6" d="M 673009.8522484417,5103983.835611518 L 672966.5147884914,5103101.681348551 L 672836.9197720707,5102228.0227133725 L 672622.3152700316,5101371.2735162275 L 672324.7680410432,5100539.684720232 L 671947.1436275769,5099741.264980083 L 671493.0787591645,5098983.703514341 L 670966.9463287063,5098274.296054045 L 670373.8132791206,5097619.874580839 L 669719.3918059145,5097026.741531253 L 669009.984345618,5096500.609100794 L 668252.4228798756,5096046.544232382 L 667454.0031397275,5095668.919818916 L 666622.4143437318,5095371.372589928 L 665765.6651465868,5095156.768087888 L 664892.0065114077,5095027.173071467 L 664009.8522484417,5094983.835611518 L 663127.6979854757,5095027.173071467 L 662254.0393502965,5095156.768087888 L 661397.2901531515,5095371.372589928 L 660565.7013571559,5095668.919818916 L 659767.2816170077,5096046.544232382 L 659009.7201512653,5096500.609100794 L 658300.3126909689,5097026.741531253 L 657645.8912177627,5097619.874580839 L 657052.758168177,5098274.296054045 L 656526.6257377188,5098983.703514341 L 656072.5608693064,5099741.264980083 L 655694.9364558401,5100539.684720232 L 655397.3892268518,5101371.2735162275 L 655182.7847248126,5102228.0227133725 L 655053.1897083919,5103101.681348551 L 655009.8522484417,5103983.835611518 L 655053.1897083919,5104865.989874484 L 655182.7847248126,5105739.648509663 L 655397.3892268518,5106596.397706808 L 655694.9364558401,5107427.986502803 L 656072.5608693064,5108226.406242952 L 656526.6257377188,5108983.967708694 L 657052.758168177,5109693.37516899 L 657645.8912177627,5110347.796642196 L 658300.3126909689,5110940.929691782 L 659009.7201512653,5111467.062122241 L 659767.2816170077,5111921.126990653 L 660565.7013571558,5112298.751404119 L 661397.2901531515,5112596.298633107 L 662254.0393502965,5112810.903135147 L 663127.6979854757,5112940.498151568 L 664009.8522484417,5112983.835611518 L 664892.0065114077,5112940.498151568 L 665765.6651465868,5112810.903135147 L 666622.4143437318,5112596.298633107 L 667454.0031397274,5112298.751404119 L 668252.4228798756,5111921.126990653 L 669009.984345618,5111467.062122241 L 669719.3918059145,5110940.929691782 L 670373.8132791206,5110347.796642196 L 670966.9463287062,5109693.37516899 L 671493.0787591645,5108983.967708694 L 671947.1436275769,5108226.406242952 L 672324.7680410432,5107427.986502804 L 672622.3152700316,5106596.397706808 L 672836.9197720707,5105739.648509663 L 672966.5147884914,5104865.989874484 L 673009.8522484417,5103983.835611518 z" /></g></svg>