<svg xmlns="http://www.w3.org/2000/svg" xmlns:xlink="http://www.w3.org/1999/xlink" width="100.0" height="100.0" viewBox="10.91232624 45.85723324 0.011947519999999656 0.01362851999999748" preserveAspectRatio="xMinYMin meet"><g transform="matrix(1,0,0,-1,0,91.728095)"><g><path fill-rule="evenodd" fill="#66cc99" stroke="#555555" stroke-width="0.0002725703999999496" opacity="0.6" d="M 10.923765,45.858324 L 10.923739,45.858226 L 10.923701,45.858169 L 10.923637,45.858118 L 10.923591,45.858106 L 10.923537,45.858083 L 10.923429,45.858064 L 10.923327,45.858054 L 10.923209,45.858053 L 10.923078,45.858049 L 10.922901,45.858042 L 10.922713,45.858027 L 10.92223,45.857982 L 10.921958,45.85797 L 10.921797,45.857952 L 10.921651,45.857888 L 10.92156,45.857828 L 10.921434,45.857768 L 10.921279,45.857738 L 10.921139,45.85775 L 10.920996,45.857786 L 10.920909,45.857826 L 10.9208,45.857904 L 10.920691,45.857999 L 10.920555,45.858153 L 10.920467,45.858255 L 10.92045,45.85834 L 10.92047,45.858449 L 10.920565,45.858551 L 10.920651,45.858589 L 10.92071,45.858606 L 10.920764,45.858651 L 10.920823,45.858758 L 10.92087,45.858885 L 10.9209,45.859015 L 10.920903,45.859102 L 10.920886,45.859192 L 10.920818,45.85933 L 10.920823,45.859378 L 10.920863,45.85949 L 10.920761,45.859583 L 10.920578,45.859597 L 10.920525,45.859587 L 10.920446,45.859577 L 10.920384,45.859575 L 10.920297,45.859606 L 10.920212,45.859622 L 10.920097,45.85963 L 10.920022,45.859618 L 10.919949,45.859601 L 10.919864,45.859604 L 10.919812,45.859619 L 10.919784,45.859651 L 10.919785,45.85969 L 10.9198,45.859759 L 10.919868,45.859833 L 10.919966,45.859919 L 10.920033,45.859977 L 10.920088,45.86005 L 10.920122,45.860102 L 10.920114,45.860159 L 10.92007,45.860212 L 10.920002,45.860241 L 10.919933,45.860244 L 10.919844,45.860225 L 10.919735,45.860188 L 10.919652,45.860153 L 10.919576,45.860124 L 10.919464,45.860098 L 10.919424,45.860101 L 10.919412,45.860131 L 10.91943,45.860177 L 10.919457,45.860206 L 10.919504,45.86024 L 10.919571,45.860271 L 10.919653,45.860304 L 10.919763,45.860352 L 10.91986,45.860404 L 10.91993,45.860453 L 10.919954,45.860491 L 10.919921,45.860567 L 10.919882,45.860596 L 10.919779,45.860634 L 10.919668,45.860645 L 10.91955,45.860644 L 10.91929,45.860717 L 10.919184,45.860778 L 10.919106,45.860816 L 10.919038,45.860847 L 10.918931,45.860885 L 10.918817,45.860903 L 10.918699,45.860905 L 10.918588,45.860905 L 10.918471,45.860932 L 10.918344,45.860959 L 10.91825,45.860983 L 10.918137,45.861051 L 10.918001,45.861205 L 10.917917,45.86135 L 10.917814,45.861498 L 10.917737,45.861646 L 10.917656,45.861792 L 10.917523,45.862032 L 10.917427,45.862203 L 10.917328,45.862402 L 10.917249,45.862582 L 10.917214,45.862824 L 10.917192,45.862976 L 10.917212,45.863184 L 10.917234,45.863365 L 10.917245,45.863505 L 10.917233,45.863647 L 10.917183,45.863822 L 10.917112,45.863967 L 10.917018,45.864099 L 10.916894,45.864234 L 10.916834,45.864294 L 10.916707,45.864409 L 10.916582,45.8645 L 10.916509,45.864577 L 10.916492,45.864652 L 10.916514,45.86473 L 10.916557,45.864754 L 10.91662,45.864767 L 10.916678,45.864753 L 10.916775,45.864698 L 10.916855,45.864638 L 10.91689,45.8646 L 10.917013,45.864461 L 10.917112,45.864368 L 10.917214,45.864284 L 10.917332,45.864199 L 10.917423,45.864166 L 10.917508,45.864158 L 10.917759,45.864225 L 10.917823,45.864263 L 10.917907,45.864332 L 10.917978,45.864414 L 10.918036,45.864488 L 10.918079,45.864588 L 10.918098,45.864689 L 10.918083,45.864815 L 10.918061,45.864953 L 10.917999,45.865075 L 10.917909,45.865221 L 10.9178,45.865406 L 10.917687,45.865584 L 10.917552,45.865756 L 10.917387,45.865916 L 10.917201,45.866054 L 10.917062,45.866109 L 10.916935,45.866132 L 10.916813,45.866129 L 10.916721,45.866094 L 10.916629,45.866004 L 10.916544,45.865911 L 10.916463,45.865814 L 10.916394,45.865717 L 10.916331,45.865596 L 10.916278,45.86546 L 10.916276,45.865309 L 10.91626,45.865203 L 10.916219,45.865151 L 10.91615,45.86515 L 10.916108,45.865167 L 10.916041,45.865218 L 10.915977,45.865281 L 10.915891,45.865363 L 10.915802,45.86544 L 10.91571,45.865535 L 10.915649,45.865584 L 10.9156,45.865679 L 10.915574,45.86574 L 10.91555,45.86581 L 10.915481,45.865907 L 10.915405,45.866007 L 10.915317,45.866123 L 10.915245,45.866229 L 10.915167,45.866366 L 10.915116,45.866504 L 10.915087,45.866621 L 10.915072,45.866757 L 10.91506,45.866901 L 10.915054,45.867029 L 10.915045,45.867165 L 10.915039,45.867293 L 10.915017,45.867429 L 10.91498,45.86758 L 10.914939,45.867734 L 10.914887,45.867861 L 10.914773,45.867989 L 10.914612,45.868092 L 10.914422,45.868196 L 10.914231,45.86826 L 10.914084,45.868279 L 10.913846,45.86831 L 10.913643,45.86832 L 10.913414,45.868321 L 10.913211,45.868331 L 10.913058,45.868361 L 10.912954,45.868404 L 10.912872,45.868487 L 10.912831,45.868563 L 10.912834,45.868653 L 10.912876,45.868728 L 10.912967,45.868816 L 10.913061,45.868892 L 10.913152,45.868964 L 10.913243,45.869038 L 10.913337,45.869115 L 10.913431,45.869191 L 10.913518,45.869233 L 10.913614,45.869259 L 10.913715,45.86926 L 10.913803,45.869252 L 10.913902,45.869248 L 10.914023,45.869244 L 10.914164,45.869246 L 10.914455,45.869237 L 10.914619,45.869223 L 10.914739,45.869203 L 10.914972,45.8692 L 10.915162,45.869204 L 10.915335,45.869194 L 10.915479,45.869176 L 10.915676,45.869175 L 10.915763,45.869199 L 10.915839,45.869216 L 10.915942,45.869246 L 10.916052,45.869295 L 10.916102,45.869322 L 10.916149,45.86936 L 10.916179,45.869396 L 10.916222,45.869501 L 10.916234,45.869587 L 10.916188,45.869659 L 10.916095,45.869743 L 10.916016,45.869831 L 10.916002,45.869898 L 10.916017,45.869953 L 10.916071,45.870016 L 10.916155,45.87007 L 10.916224,45.870089 L 10.916329,45.870101 L 10.916424,45.870091 L 10.916539,45.870096 L 10.916681,45.870125 L 10.916803,45.870165 L 10.91691,45.870223 L 10.916967,45.870274 L 10.917048,45.870342 L 10.917114,45.870357 L 10.917228,45.870346 L 10.917468,45.870262 L 10.917596,45.870171 L 10.917666,45.870096 L 10.917719,45.870013 L 10.917766,45.869932 L 10.917809,45.869844 L 10.917839,45.869752 L 10.917839,45.869647 L 10.917832,45.869548 L 10.917843,45.869477 L 10.917942,45.869405 L 10.918102,45.869363 L 10.918254,45.869324 L 10.918384,45.869276 L 10.918467,45.869222 L 10.918511,45.869146 L 10.918502,45.869057 L 10.918475,45.868934 L 10.918462,45.868838 L 10.91847,45.868785 L 10.918524,45.868743 L 10.9186,45.868753 L 10.91869,45.8688 L 10.918747,45.868852 L 10.918795,45.868919 L 10.918853,45.86898 L 10.918909,45.868993 L 10.918991,45.868987 L 10.91903,45.868975 L 10.919104,45.868937 L 10.91919,45.868849 L 10.919301,45.868733 L 10.919456,45.868568 L 10.919567,45.868458 L 10.919681,45.868317 L 10.919707,45.868207 L 10.919689,45.868069 L 10.919643,45.867956 L 10.919601,45.867881 L 10.919592,45.867808 L 10.919603,45.867741 L 10.919651,45.867678 L 10.919698,45.867625 L 10.919791,45.867546 L 10.919925,45.867443 L 10.920105,45.867323 L 10.920271,45.867208 L 10.920489,45.867058 L 10.920753,45.866887 L 10.921039,45.866706 L 10.921247,45.866572 L 10.921456,45.86645 L 10.921689,45.866341 L 10.92195,45.866211 L 10.922177,45.866033 L 10.922303,45.865862 L 10.92236,45.865689 L 10.922375,45.865547 L 10.922367,45.865396 L 10.922335,45.865217 L 10.922297,45.865055 L 10.922284,45.864971 L 10.922282,45.864877 L 10.922294,45.864762 L 10.922352,45.86451 L 10.922375,45.864312 L 10.922359,45.864102 L 10.922327,45.863919 L 10.922334,45.863747 L 10.922362,45.863591 L 10.922404,45.86346 L 10.922459,45.863333 L 10.922522,45.863169 L 10.922538,45.863068 L 10.92255,45.862997 L 10.922561,45.862846 L 10.922559,45.862763 L 10.922527,45.862581 L 10.922502,45.862421 L 10.9225,45.862249 L 10.922527,45.862072 L 10.922567,45.861886 L 10.922588,45.861716 L 10.92259,45.861567 L 10.922611,45.861423 L 10.922682,45.861264 L 10.922744,45.861153 L 10.922819,45.861064 L 10.922983,45.860966 L 10.923024,45.860912 L 10.923038,45.860825 L 10.923015,45.860727 L 10.922926,45.860506 L 10.922884,45.860408 L 10.922824,45.86027 L 10.92278,45.860142 L 10.922742,45.859969 L 10.922704,45.859811 L 10.922677,45.859681 L 10.922682,45.859608 L 10.92274,45.859474 L 10.922831,45.859349 L 10.922932,45.859251 L 10.923021,45.859169 L 10.923252,45.858994 L 10.923319,45.858952 L 10.923441,45.858879 L 10.923605,45.85878 L 10.923701,45.85868 L 10.923753,45.858569 L 10.923769,45.858452 L 10.923765,45.858324 z" /></g></g></svg>