<svg xmlns="http://www.w3.org/2000/svg" xmlns:xlink="http://www.w3.org/1999/xlink" width="300" height="300" viewBox="500996.3410000002 4832754.6696 397283.3135999996 402442.91640000045" preserveAspectRatio="xMinYMin meet"><g transform="matrix(1,0,0,-1,0,10067952.2556)"><path fill-rule="evenodd" fill="#66cc99" stroke="#555555" stroke-width="2682.952776000003" opacity="0.6" d="M 872729.6498999996,5062080.444800001 L 852258.3732000003,5082353.5987 L 761079.1627000002,5028181.0713 L 762614.881,4998314.7908 L 780287.4468999999,4985169.370100001 L 757587.6705999998,4967585.0243999995 L 761628.3691999996,4928709.5725 L 801221.2747999998,4874781.0659 L 795324.5261000004,4858835.3398 L 781416.7032000003,4876885.726299999 L 747252.8967000004,4847659.9628 L 717735.2696000002,4861831.815199999 L 720242.6341000004,4889040.1537999995 L 693326.6562000001,4901296.217700001 L 679940.1958999997,4885167.205700001 L 627478.3553999998,4885925.7206999995 L 577216.4430999998,4923917.4385 L 553783.3091000002,4912603.530200001 L 515901.6342000002,4940239.820900001 L 543143.0049999999,4997832.8802000005 L 577489.2691000002,4998245.3716 L 619969.4414999997,4974379.042300001 L 691430.5714999996,4980270.302100001 L 626976.5751999998,5033514.5955 L 642915.1127000004,5077112.299900001 L 616677.0762,5076329.464500001 L 625330.9406000003,5140066.8488 L 606670.4448999995,5167742.884400001 L 612732.0054000001,5190543.8566 L 654404.3316000002,5181054.8573 L 664662.3258999996,5203611.8299 L 741845.0637999997,5220292.2928 L 739409.8727000002,5200408.3135 L 763258.7165999999,5176266.330499999 L 861528.1717999997,5162972.0096 L 836969.3212000001,5136493.275 L 859893.0299000004,5124638.709000001 L 846550.5575000001,5104490.867000001 L 883374.3613999998,5065114.7722 L 872729.6498999996,5062080.444800001 z M 675687.131811153,5103638.505658427 L 675643.7943512028,5104520.659921394 L 675514.1993347821,5105394.318556572 L 675299.5948327429,5106251.067753717 L 675002.0476037546,5107082.656549714 L 674624.4231902882,5107881.076289861 L 674170.3583218759,5108638.6377556035 L 673644.2258914176,5109348.0452159 L 673051.092841832,5110002.466689106 L 672396.6713686258,5110595.599738692 L 671687.2639083294,5111121.73216915 L 670929.702442587,5111575.797037562 L 670131.2827024388,5111953.421451028 L 669299.6939064432,5112250.968680017 L 668442.9447092982,5112465.573182057 L 667569.286074119,5112595.1681984775 L 666687.131811153,5112638.505658427 L 665804.977548187,5112595.1681984775 L 664931.3189130079,5112465.573182057 L 664074.5697158629,5112250.968680017 L 663242.9809198672,5111953.421451028 L 662444.561179719,5111575.797037562 L 661686.9997139766,5111121.73216915 L 660977.5922536802,5110595.599738692 L 660323.1707804741,5110002.466689106 L 659730.0377308883,5109348.0452159 L 659203.9053004301,5108638.6377556035 L 658749.8404320178,5107881.076289861 L 658372.2160185515,5107082.656549713 L 658074.6687895631,5106251.067753717 L 657860.064287524,5105394.318556572 L 657730.4692711033,5104520.659921394 L 657687.131811153,5103638.505658427 L 657730.4692711033,5102756.351395461 L 657860.064287524,5101882.692760282 L 658074.6687895631,5101025.943563137 L 658372.2160185515,5100194.354767142 L 658749.8404320178,5099395.935026993 L 659203.9053004301,5098638.373561251 L 659730.0377308883,5097928.966100954 L 660323.1707804741,5097274.544627748 L 660977.5922536802,5096681.411578163 L 661686.9997139766,5096155.279147704 L 662444.561179719,5095701.214279292 L 663242.9809198673,5095323.589865826 L 664074.5697158629,5095026.042636838 L 664931.3189130079,5094811.438134798 L 665804.977548187,5094681.843118377 L 666687.131811153,5094638.505658427 L 667569.286074119,5094681.843118377 L 668442.9447092982,5094811.438134798 L 669299.6939064432,5095026.042636838 L 670131.2827024389,5095323.589865826 L 670929.702442587,5095701.214279292 L 671687.2639083294,5096155.279147704 L 672396.6713686258,5096681.411578163 L 673051.092841832,5097274.544627748 L 673644.2258914177,5097928.966100954 L 674170.3583218759,5098638.373561251 L 674624.4231902882,5099395.935026993 L 675002.0476037546,5100194.354767142 L 675299.5948327429,5101025.943563137 L 675514.1993347821,5101882.692760282 L 675643.7943512028,5102756.351395461 L 675687.131811153,5103638.505658427 z" /></g></svg>