<svg xmlns="http://www.w3.org/2000/svg" xmlns:xlink="http://www.w3.org/1999/xlink" width="300" height="300" viewBox="656967.131811153 5093918.505658427 19440.0 19440.0" preserveAspectRatio="xMinYMin meet"><g transform="matrix(1,0,0,-1,0,10207277.011316855)"><path fill-rule="evenodd" fill="#66cc99" stroke="#555555" stroke-width="129.6" opacity="0.6" d="M 675687.131811153,5103638.505658427 L 675643.7943512028,5102756.351395461 L 675514.1993347821,5101882.692760282 L 675299.5948327429,5101025.943563137 L 675002.0476037546,5100194.354767142 L 674624.4231902882,5099395.935026993 L 674170.3583218759,5098638.373561251 L 673644.2258914177,5097928.966100954 L 673051.092841832,5097274.544627748 L 672396.6713686258,5096681.411578163 L 671687.2639083294,5096155.279147704 L 670929.702442587,5095701.214279292 L 670131.2827024389,5095323.589865826 L 669299.6939064432,5095026.042636838 L 668442.9447092982,5094811.438134798 L 667569.286074119,5094681.843118377 L 666687.131811153,5094638.505658427 L 665804.977548187,5094681.843118377 L 664931.3189130079,5094811.438134798 L 664074.5697158629,5095026.042636838 L 663242.9809198673,5095323.589865826 L 662444.561179719,5095701.214279292 L 661686.9997139766,5096155.279147704 L 660977.5922536802,5096681.411578163 L 660323.1707804741,5097274.544627748 L 659730.0377308883,5097928.966100954 L 659203.9053004301,5098638.373561251 L 658749.8404320178,5099395.935026993 L 658372.2160185515,5100194.354767142 L 658074.6687895631,5101025.943563137 L 657860.064287524,5101882.692760282 L 657730.4692711033,5102756.351395461 L 657687.131811153,5103638.505658427 L 657730.4692711033,5104520.659921394 L 657860.064287524,5105394.318556572 L 658074.6687895631,5106251.067753717 L 658372.2160185515,5107082.656549713 L 658749.8404320178,5107881.076289861 L 659203.9053004301,5108638.6377556035 L 659730.0377308883,5109348.0452159 L 660323.1707804741,5110002.466689106 L 660977.5922536802,5110595.599738692 L 661686.9997139766,5111121.73216915 L 662444.561179719,5111575.797037562 L 663242.9809198672,5111953.421451028 L 664074.5697158629,5112250.968680017 L 664931.3189130079,5112465.573182057 L 665804.977548187,5112595.1681984775 L 666687.131811153,5112638.505658427 L 667569.286074119,5112595.1681984775 L 668442.9447092982,5112465.573182057 L 669299.6939064432,5112250.968680017 L 670131.2827024388,5111953.421451028 L 670929.702442587,5111575.797037562 L 671687.2639083294,5111121.73216915 L 672396.6713686258,5110595.599738692 L 673051.092841832,5110002.466689106 L 673644.2258914176,5109348.0452159 L 674170.3583218759,5108638.6377556035 L 674624.4231902882,5107881.076289861 L 675002.0476037546,5107082.656549714 L 675299.5948327429,5106251.067753717 L 675514.1993347821,5105394.318556572 L 675643.7943512028,5104520.659921394 L 675687.131811153,5103638.505658427 z" /></g></svg>