<svg xmlns="http://www.w3.org/2000/svg" xmlns:xlink="http://www.w3.org/1999/xlink" width="100.0" height="100.0" viewBox="45.85723324 10.91232624 0.01362851999999748 0.011947519999999656" preserveAspectRatio="xMinYMin meet"><g transform="matrix(1,0,0,-1,0,21.8366)"><g><path fill-rule="evenodd" fill="#66cc99" stroke="#555555" stroke-width="0.0002725703999999496" opacity="0.6" d="M 45.858324,10.923765 L 45.858226,10.923739 L 45.858169,10.923701 L 45.858118,10.923637 L 45.858106,10.923591 L 45.858083,10.923537 L 45.858064,10.923429 L 45.858054,10.923327 L 45.858053,10.923209 L 45.858049,10.923078 L 45.858042,10.922901 L 45.858027,10.922713 L 45.857982,10.92223 L 45.85797,10.921958 L 45.857952,10.921797 L 45.857888,10.921651 L 45.857828,10.92156 L 45.857768,10.921434 L 45.857738,10.921279 L 45.85775,10.921139 L 45.857786,10.920996 L 45.857826,10.920909 L 45.857904,10.9208 L 45.857999,10.920691 L 45.858153,10.920555 L 45.858255,10.920467 L 45.85834,10.92045 L 45.858449,10.92047 L 45.858551,10.920565 L 45.858589,10.920651 L 45.858606,10.92071 L 45.858651,10.920764 L 45.858758,10.920823 L 45.858885,10.92087 L 45.859015,10.9209 L 45.859102,10.920903 L 45.859192,10.920886 L 45.85933,10.920818 L 45.859378,10.920823 L 45.85949,10.920863 L 45.859583,10.920761 L 45.859597,10.920578 L 45.859587,10.920525 L 45.859577,10.920446 L 45.859575,10.920384 L 45.859606,10.920297 L 45.859622,10.920212 L 45.85963,10.920097 L 45.859618,10.920022 L 45.859601,10.919949 L 45.859604,10.919864 L 45.859619,10.919812 L 45.859651,10.919784 L 45.85969,10.919785 L 45.859759,10.9198 L 45.859833,10.919868 L 45.859919,10.919966 L 45.859977,10.920033 L 45.86005,10.920088 L 45.860102,10.920122 L 45.860159,10.920114 L 45.860212,10.92007 L 45.860241,10.920002 L 45.860244,10.919933 L 45.860225,10.919844 L 45.860188,10.919735 L 45.860153,10.919652 L 45.860124,10.919576 L 45.860098,10.919464 L 45.860101,10.919424 L 45.860131,10.919412 L 45.860177,10.91943 L 45.860206,10.919457 L 45.86024,10.919504 L 45.860271,10.919571 L 45.860304,10.919653 L 45.860352,10.919763 L 45.860404,10.91986 L 45.860453,10.91993 L 45.860491,10.919954 L 45.860567,10.919921 L 45.860596,10.919882 L 45.860634,10.919779 L 45.860645,10.919668 L 45.860644,10.91955 L 45.860717,10.91929 L 45.860778,10.919184 L 45.860816,10.919106 L 45.860847,10.919038 L 45.860885,10.918931 L 45.860903,10.918817 L 45.860905,10.918699 L 45.860905,10.918588 L 45.860932,10.918471 L 45.860959,10.918344 L 45.860983,10.91825 L 45.861051,10.918137 L 45.861205,10.918001 L 45.86135,10.917917 L 45.861498,10.917814 L 45.861646,10.917737 L 45.861792,10.917656 L 45.862032,10.917523 L 45.862203,10.917427 L 45.862402,10.917328 L 45.862582,10.917249 L 45.862824,10.917214 L 45.862976,10.917192 L 45.863184,10.917212 L 45.863365,10.917234 L 45.863505,10.917245 L 45.863647,10.917233 L 45.863822,10.917183 L 45.863967,10.917112 L 45.864099,10.917018 L 45.864234,10.916894 L 45.864294,10.916834 L 45.864409,10.916707 L 45.8645,10.916582 L 45.864577,10.916509 L 45.864652,10.916492 L 45.86473,10.916514 L 45.864754,10.916557 L 45.864767,10.91662 L 45.864753,10.916678 L 45.864698,10.916775 L 45.864638,10.916855 L 45.8646,10.91689 L 45.864461,10.917013 L 45.864368,10.917112 L 45.864284,10.917214 L 45.864199,10.917332 L 45.864166,10.917423 L 45.864158,10.917508 L 45.864225,10.917759 L 45.864263,10.917823 L 45.864332,10.917907 L 45.864414,10.917978 L 45.864488,10.918036 L 45.864588,10.918079 L 45.864689,10.918098 L 45.864815,10.918083 L 45.864953,10.918061 L 45.865075,10.917999 L 45.865221,10.917909 L 45.865406,10.9178 L 45.865584,10.917687 L 45.865756,10.917552 L 45.865916,10.917387 L 45.866054,10.917201 L 45.866109,10.917062 L 45.866132,10.916935 L 45.866129,10.916813 L 45.866094,10.916721 L 45.866004,10.916629 L 45.865911,10.916544 L 45.865814,10.916463 L 45.865717,10.916394 L 45.865596,10.916331 L 45.86546,10.916278 L 45.865309,10.916276 L 45.865203,10.91626 L 45.865151,10.916219 L 45.86515,10.91615 L 45.865167,10.916108 L 45.865218,10.916041 L 45.865281,10.915977 L 45.865363,10.915891 L 45.86544,10.915802 L 45.865535,10.91571 L 45.865584,10.915649 L 45.865679,10.9156 L 45.86574,10.915574 L 45.86581,10.91555 L 45.865907,10.915481 L 45.866007,10.915405 L 45.866123,10.915317 L 45.866229,10.915245 L 45.866366,10.915167 L 45.866504,10.915116 L 45.866621,10.915087 L 45.866757,10.915072 L 45.866901,10.91506 L 45.867029,10.915054 L 45.867165,10.915045 L 45.867293,10.915039 L 45.867429,10.915017 L 45.86758,10.91498 L 45.867734,10.914939 L 45.867861,10.914887 L 45.867989,10.914773 L 45.868092,10.914612 L 45.868196,10.914422 L 45.86826,10.914231 L 45.868279,10.914084 L 45.86831,10.913846 L 45.86832,10.913643 L 45.868321,10.913414 L 45.868331,10.913211 L 45.868361,10.913058 L 45.868404,10.912954 L 45.868487,10.912872 L 45.868563,10.912831 L 45.868653,10.912834 L 45.868728,10.912876 L 45.868816,10.912967 L 45.868892,10.913061 L 45.868964,10.913152 L 45.869038,10.913243 L 45.869115,10.913337 L 45.869191,10.913431 L 45.869233,10.913518 L 45.869259,10.913614 L 45.86926,10.913715 L 45.869252,10.913803 L 45.869248,10.913902 L 45.869244,10.914023 L 45.869246,10.914164 L 45.869237,10.914455 L 45.869223,10.914619 L 45.869203,10.914739 L 45.8692,10.914972 L 45.869204,10.915162 L 45.869194,10.915335 L 45.869176,10.915479 L 45.869175,10.915676 L 45.869199,10.915763 L 45.869216,10.915839 L 45.869246,10.915942 L 45.869295,10.916052 L 45.869322,10.916102 L 45.86936,10.916149 L 45.869396,10.916179 L 45.869501,10.916222 L 45.869587,10.916234 L 45.869659,10.916188 L 45.869743,10.916095 L 45.869831,10.916016 L 45.869898,10.916002 L 45.869953,10.916017 L 45.870016,10.916071 L 45.87007,10.916155 L 45.870089,10.916224 L 45.870101,10.916329 L 45.870091,10.916424 L 45.870096,10.916539 L 45.870125,10.916681 L 45.870165,10.916803 L 45.870223,10.91691 L 45.870274,10.916967 L 45.870342,10.917048 L 45.870357,10.917114 L 45.870346,10.917228 L 45.870262,10.917468 L 45.870171,10.917596 L 45.870096,10.917666 L 45.870013,10.917719 L 45.869932,10.917766 L 45.869844,10.917809 L 45.869752,10.917839 L 45.869647,10.917839 L 45.869548,10.917832 L 45.869477,10.917843 L 45.869405,10.917942 L 45.869363,10.918102 L 45.869324,10.918254 L 45.869276,10.918384 L 45.869222,10.918467 L 45.869146,10.918511 L 45.869057,10.918502 L 45.868934,10.918475 L 45.868838,10.918462 L 45.868785,10.91847 L 45.868743,10.918524 L 45.868753,10.9186 L 45.8688,10.91869 L 45.868852,10.918747 L 45.868919,10.918795 L 45.86898,10.918853 L 45.868993,10.918909 L 45.868987,10.918991 L 45.868975,10.91903 L 45.868937,10.919104 L 45.868849,10.91919 L 45.868733,10.919301 L 45.868568,10.919456 L 45.868458,10.919567 L 45.868317,10.919681 L 45.868207,10.919707 L 45.868069,10.919689 L 45.867956,10.919643 L 45.867881,10.919601 L 45.867808,10.919592 L 45.867741,10.919603 L 45.867678,10.919651 L 45.867625,10.919698 L 45.867546,10.919791 L 45.867443,10.919925 L 45.867323,10.920105 L 45.867208,10.920271 L 45.867058,10.920489 L 45.866887,10.920753 L 45.866706,10.921039 L 45.866572,10.921247 L 45.86645,10.921456 L 45.866341,10.921689 L 45.866211,10.92195 L 45.866033,10.922177 L 45.865862,10.922303 L 45.865689,10.92236 L 45.865547,10.922375 L 45.865396,10.922367 L 45.865217,10.922335 L 45.865055,10.922297 L 45.864971,10.922284 L 45.864877,10.922282 L 45.864762,10.922294 L 45.86451,10.922352 L 45.864312,10.922375 L 45.864102,10.922359 L 45.863919,10.922327 L 45.863747,10.922334 L 45.863591,10.922362 L 45.86346,10.922404 L 45.863333,10.922459 L 45.863169,10.922522 L 45.863068,10.922538 L 45.862997,10.92255 L 45.862846,10.922561 L 45.862763,10.922559 L 45.862581,10.922527 L 45.862421,10.922502 L 45.862249,10.9225 L 45.862072,10.922527 L 45.861886,10.922567 L 45.861716,10.922588 L 45.861567,10.92259 L 45.861423,10.922611 L 45.861264,10.922682 L 45.861153,10.922744 L 45.861064,10.922819 L 45.860966,10.922983 L 45.860912,10.923024 L 45.860825,10.923038 L 45.860727,10.923015 L 45.860506,10.922926 L 45.860408,10.922884 L 45.86027,10.922824 L 45.860142,10.92278 L 45.859969,10.922742 L 45.859811,10.922704 L 45.859681,10.922677 L 45.859608,10.922682 L 45.859474,10.92274 L 45.859349,10.922831 L 45.859251,10.922932 L 45.859169,10.923021 L 45.858994,10.923252 L 45.858952,10.923319 L 45.858879,10.923441 L 45.85878,10.923605 L 45.85868,10.923701 L 45.858569,10.923753 L 45.858452,10.923769 L 45.858324,10.923765 z" /></g></g></svg>