<svg xmlns="http://www.w3.org/2000/svg" xmlns:xlink="http://www.w3.org/1999/xlink" width="100.0" height="100.0" viewBox="10.39170953080994 45.61264068674726 1.6313909869513292 0.9805454917807168" preserveAspectRatio="xMinYMin meet"><g transform="matrix(1,0,0,-1,0,92.20582686527524)"><g><path fill-rule="evenodd" fill="#66cc99" stroke="#555555" stroke-width="0.032627819739026585" opacity="0.6" d="M 11.824080629405485,46.50407690217731 L 11.815453512431441,46.50031750754023 L 11.815207771759296,46.49971543764184 L 11.81389776955522,46.495823398572156 L 11.81039286334579,46.48486541378194 L 11.810417431804854,46.48471680880561 L 11.810566472149464,46.48424580477662 L 11.813157540083425,46.478140392353126 L 11.813409140310641,46.4779352832783 L 11.815442890578707,46.47716139515739 L 11.816224801213764,46.476867016454925 L 11.816286984244135,46.47684656673167 L 11.81637558045666,46.47682396574715 L 11.816789146008249,46.47672714433649 L 11.817310800295315,46.47661425841747 L 11.818071623256534,46.4765373829667 L 11.822984360750297,46.47605997105005 L 11.830444677864339,46.47609495196658 L 11.834393501882676,46.47630971658652 L 11.851521324266592,46.47500161154802 L 11.874215856205987,46.472875317405354 L 11.874268743229978,46.47286792024989 L 11.87431796117138,46.47285472384146 L 11.875245320204714,46.47256063289789 L 11.876419615760945,46.47209987687931 L 11.877158098954162,46.471783302186104 L 11.877732752211143,46.47136476321652 L 11.878565543984175,46.47074420778958 L 11.878648412463484,46.470289340586945 L 11.881190624308719,46.46770903143773 L 11.882677822208494,46.46632180145368 L 11.883780399323282,46.46584432211739 L 11.886825697263921,46.464566820169104 L 11.887362778824242,46.46314323574458 L 11.888159326290134,46.45776803520707 L 11.889062093763718,46.44363749939769 L 11.889108263464895,46.44274165095211 L 11.888793266283196,46.44199597363581 L 11.873896803860934,46.434394248624905 L 11.873001214920995,46.43394876650996 L 11.871753748679131,46.433449111229145 L 11.870882290093654,46.433214503935986 L 11.869949243668447,46.433161652579074 L 11.8631978503514,46.4331157794321 L 11.862337947762201,46.43328964302735 L 11.86160699025444,46.433488796456544 L 11.861246623662016,46.43371174699363 L 11.860625518350465,46.43391273721476 L 11.859746095180482,46.43411830689403 L 11.857761980038033,46.434195329638754 L 11.850518726101752,46.43430929543938 L 11.85029772976261,46.43418898499867 L 11.850290562983933,46.43416055660333 L 11.848171362022162,46.42904449305516 L 11.840528051809677,46.418960299638975 L 11.840148404977528,46.41842132482769 L 11.839495099275654,46.41748312934299 L 11.838851237888749,46.416441140672 L 11.838223192825657,46.415233029830695 L 11.83819944578487,46.41506188368369 L 11.838400339448985,46.414707051526584 L 11.838535051482056,46.41455627803682 L 11.839935394291972,46.41329518656038 L 11.840314043497106,46.41297851853521 L 11.843689152066432,46.4099187758077 L 11.842418675404799,46.40864009842939 L 11.841975179248504,46.40814227962309 L 11.841354182492033,46.40740231233593 L 11.840202371952817,46.405883409563806 L 11.83740593178165,46.4018758917071 L 11.835931395344971,46.39820729270236 L 11.834860498502541,46.39524751247869 L 11.83204004342198,46.38718700101569 L 11.832029393109408,46.38697338922727 L 11.831809528546755,46.3796125410703 L 11.832862412117436,46.376587140031845 L 11.834409442548258,46.37147377946811 L 11.83531338668305,46.36812210069333 L 11.83539427852995,46.366222242204245 L 11.834975531297298,46.366157519912484 L 11.833559974656174,46.36613608153866 L 11.833225997804314,46.36615813645102 L 11.832505005403412,46.366355400985746 L 11.830891901155237,46.3669324722558 L 11.825183253297185,46.37125368107826 L 11.820173201663271,46.376621056755255 L 11.819124307114608,46.376389420721516 L 11.818692248328011,46.37628622721165 L 11.818344613317695,46.376201922188635 L 11.818265031398003,46.37618185151538 L 11.817773689818532,46.376038771285685 L 11.817084504196348,46.37567854739873 L 11.816881173788808,46.37551193233266 L 11.816428134283154,46.37511980262299 L 11.816121753048586,46.37482931748945 L 11.815934749352918,46.37460557508544 L 11.815424573684712,46.373785646629265 L 11.815161581475932,46.37329698129569 L 11.814916018617938,46.3728006659471 L 11.8147224759138,46.37178240051214 L 11.81479998915663,46.37157673671898 L 11.814945169655022,46.371240992753904 L 11.815089859534957,46.37102650057901 L 11.815516574727562,46.37021344015125 L 11.816025964916653,46.36921291964386 L 11.815782601209413,46.36875905279319 L 11.815385868187317,46.36842598687917 L 11.815089207053353,46.3682138604778 L 11.814800334032203,46.36805295549789 L 11.814455890471354,46.36786823852166 L 11.814177134122202,46.367749913267374 L 11.81366968510147,46.367549545566 L 11.804010741008504,46.36497985351164 L 11.802090150916673,46.364914828787775 L 11.801719361534603,46.36491379759803 L 11.800326924785683,46.36494844179804 L 11.799945345641467,46.36497204740377 L 11.79970026122537,46.365027040335164 L 11.799396875963275,46.3651943147094 L 11.798816462427268,46.36557569543382 L 11.798511911262109,46.365780915016835 L 11.798186536031489,46.36610685130845 L 11.79796327517204,46.36632094648791 L 11.79773289340462,46.366528610279445 L 11.797293886117002,46.36677247167007 L 11.795878448570864,46.367443468986465 L 11.795070617088266,46.367736007223655 L 11.794711292343072,46.36781818172536 L 11.794474546447697,46.3678405188728 L 11.7942781107701,46.3678509596485 L 11.793589853861512,46.367857811775885 L 11.792522067321096,46.3678472877777 L 11.79217334838544,46.36781760261594 L 11.791810035679935,46.36772723137362 L 11.783727374516916,46.364685144468105 L 11.783326157479282,46.36452327335258 L 11.782871738253744,46.36431778164584 L 11.780248867190343,46.36293155050368 L 11.779586178594188,46.362543113762015 L 11.776878309236656,46.36040943415259 L 11.77437855346641,46.35824165814715 L 11.779497695685036,46.351636160308885 L 11.791368181022053,46.347068294325865 L 11.798238249888595,46.344677187309685 L 11.799982832459174,46.344229435477565 L 11.800251661203653,46.34415072890251 L 11.800418176457548,46.3441017696696 L 11.802117082831854,46.34302453031865 L 11.802343384849546,46.34286653676426 L 11.801914883619904,46.33804391969471 L 11.80281198186763,46.33322478714854 L 11.803126889005528,46.33310804013919 L 11.803704735946448,46.33289687134353 L 11.815574522550072,46.329742902558394 L 11.820355406626998,46.32847295485072 L 11.82412163187401,46.32768690012107 L 11.827671348650734,46.32698708494384 L 11.828480901652876,46.32681403999002 L 11.830022159999684,46.32646987008912 L 11.83019824570811,46.32635749725076 L 11.831294026445304,46.32555521026428 L 11.831850611592182,46.325146525942124 L 11.83187932350745,46.324947801657096 L 11.831657134377492,46.31661906244563 L 11.831372877009553,46.313377013049205 L 11.83166193719813,46.31293783001127 L 11.834378295359329,46.31020639209171 L 11.836780423194908,46.30818470449228 L 11.841446215206377,46.30634052359568 L 11.836767942022295,46.30266784055571 L 11.833527663675724,46.29912409465591 L 11.830083341120554,46.29421226722699 L 11.82626082738997,46.28497039753362 L 11.826849762905653,46.28400854613014 L 11.837637585087782,46.27072231098723 L 11.838022091296349,46.270348070821896 L 11.838830228181422,46.26999348693934 L 11.839691090098977,46.26993307878389 L 11.840272371273084,46.2699504971135 L 11.857265880833888,46.27062207728966 L 11.862903896327236,46.271325084923845 L 11.86482760699882,46.27243708942637 L 11.865793055466899,46.27314309359312 L 11.866850915508488,46.27382186915096 L 11.867947223778494,46.274506204872104 L 11.869222399308853,46.27499681070546 L 11.879461250552676,46.278069087876794 L 11.880166815490293,46.2782791217734 L 11.88225208274326,46.27874543947604 L 11.883001221206667,46.27884253821797 L 11.883578841977391,46.27890013043521 L 11.884155967272129,46.2789049808809 L 11.88491748963929,46.27888958778242 L 11.885194688347571,46.27882468866034 L 11.885247948001286,46.2788087575004 L 11.886543523148188,46.27704324531065 L 11.887702789347502,46.27490701919536 L 11.888038135091646,46.274241928855425 L 11.888291631216955,46.27363858948913 L 11.888359029518519,46.272512053734 L 11.887885631914322,46.268499622883354 L 11.887595161251797,46.26605459837596 L 11.887483454627274,46.265179154731534 L 11.887347265898395,46.26441450921854 L 11.887199433593821,46.264076126980044 L 11.886802462126266,46.26381631037615 L 11.886372811877333,46.26354263118195 L 11.885996470101393,46.26328672233858 L 11.885637293753394,46.26294019083091 L 11.885308353270174,46.26247565232248 L 11.885035756158569,46.26193495041686 L 11.884913871425828,46.261623243232236 L 11.884860294846694,46.26148504826668 L 11.884942229086962,46.26073422759689 L 11.885231834875935,46.260094084687694 L 11.885467891716761,46.25958311220518 L 11.885687761110118,46.2591659842202 L 11.886261583179007,46.258190421219425 L 11.889510956522024,46.254832659798964 L 11.891228348200256,46.25316491903792 L 11.891986526191706,46.252628543548376 L 11.894314172852614,46.25105310555528 L 11.894747390415239,46.250936257231416 L 11.897441070886313,46.25187710576536 L 11.898016329296485,46.25221470786838 L 11.900309979103767,46.25370269611706 L 11.913260778500867,46.25217187244438 L 11.91364229223753,46.25192802534193 L 11.915893098358932,46.25050925050454 L 11.920837286354868,46.24811266635692 L 11.921335038211014,46.2478989022382 L 11.921616452673522,46.24782874784067 L 11.922225398365082,46.24782128116559 L 11.922839806229135,46.24788662284538 L 11.924550090311985,46.248104933460674 L 11.927916906230202,46.248599550323355 L 11.929099454439871,46.24883288870454 L 11.926194588307544,46.24469653581297 L 11.925734473143354,46.244081849934055 L 11.925280913768487,46.243495536541545 L 11.924814917214022,46.242952481856435 L 11.923765507011385,46.241953043063795 L 11.923341181146158,46.241583000825386 L 11.9181310338618,46.23837626265964 L 11.91238029116159,46.22903728780411 L 11.909569454531896,46.22442756516879 L 11.915654309321615,46.220986408038726 L 11.917200601378955,46.221250789323186 L 11.9185790049444,46.22111318197658 L 11.919401196854446,46.22082819368253 L 11.9242392123757,46.21716935778446 L 11.924551385672473,46.216841499024405 L 11.925645537994523,46.21567789899671 L 11.926033073143294,46.21508837864359 L 11.926158130913805,46.214864455107005 L 11.92636604211543,46.2144136980247 L 11.926943918095464,46.2120234778224 L 11.927766575391313,46.20904666468708 L 11.93017066855634,46.206468049764815 L 11.934152939117594,46.202233670181414 L 11.939358754295387,46.19882041658043 L 11.939554654903997,46.19877337605558 L 11.953995760365668,46.19938567533056 L 11.962261167975813,46.19982637253777 L 11.962358972767296,46.19979893242896 L 11.962496904509418,46.19975926563701 L 11.96259931253371,46.19966061170484 L 11.962678629355665,46.1905395151762 L 11.962653875546277,46.18995163219425 L 11.962644592667992,46.18980282144154 L 11.962331732049671,46.18801105689617 L 11.962269324687743,46.187859812157015 L 11.961072126474317,46.18644041893303 L 11.958588997618508,46.184321265508345 L 11.958384389361742,46.18425652039466 L 11.958042393528732,46.18419859488041 L 11.95735722897569,46.184121114340314 L 11.952762388277392,46.18325064138962 L 11.95231497077062,46.18311530122943 L 11.95000951378982,46.18209360324787 L 11.949634647613824,46.181768298065315 L 11.949471293782107,46.18162501925826 L 11.949796388672713,46.18035550783265 L 11.950475046340715,46.17810593172041 L 11.95077760620255,46.17713514019346 L 11.951124021898478,46.17612259152669 L 11.951414204062718,46.175237877739505 L 11.95172038592928,46.17417707241597 L 11.952128631179917,46.17270075132138 L 11.952076417199098,46.172591367105376 L 11.950903220928646,46.170268497906704 L 11.949476618518046,46.17034289535744 L 11.948347534412555,46.170551392676416 L 11.941968415804228,46.17244394122747 L 11.9400396526302,46.17301975477139 L 11.937255103458412,46.17388092572977 L 11.936620596049393,46.174436100949656 L 11.935890635183709,46.174913485441806 L 11.935621138165892,46.17507041537703 L 11.930909220832751,46.17556429757734 L 11.928626243220469,46.17580118935435 L 11.929556793045675,46.17081516953639 L 11.929332232739815,46.16986680823486 L 11.929072094178421,46.16892838903753 L 11.92877596153163,46.16790918424748 L 11.928332679427594,46.16657104834252 L 11.927240870562489,46.165783933790586 L 11.923977323589817,46.163535885744864 L 11.921855795776262,46.1622926166989 L 11.918323084184653,46.155271493385214 L 11.919106665237912,46.15341109689577 L 11.919246748974322,46.153078515419026 L 11.919706411098502,46.151989618142395 L 11.919825190052244,46.15171217611773 L 11.9205838201829,46.15087453122327 L 11.921510204927651,46.149798699728365 L 11.921767061193092,46.14934098305263 L 11.912846589413592,46.143344528141704 L 11.90518488366172,46.13943199661885 L 11.901242557043428,46.13662852171503 L 11.905583299353973,46.13449950113313 L 11.904743563843635,46.13299584401001 L 11.893414937041365,46.12114690460889 L 11.89176518096676,46.12047548310594 L 11.887569284714179,46.11869537853073 L 11.87951735175194,46.11772859234094 L 11.87881765656085,46.11783281482851 L 11.878382335456887,46.11787067052551 L 11.878017864493327,46.117882844468156 L 11.876320883122784,46.11773363019542 L 11.875804370211913,46.117670051770126 L 11.850186199351674,46.11300896421566 L 11.841532808979201,46.1111893557917 L 11.827009293727203,46.107407512356154 L 11.822550583193356,46.10789094844265 L 11.821083615157722,46.10795442407124 L 11.819681895478155,46.10796307925595 L 11.818956210368876,46.10778846179076 L 11.81778675952809,46.107214935392065 L 11.816871413963375,46.10657625474232 L 11.816457929293591,46.10619135036234 L 11.81636048332023,46.106085459129844 L 11.81608551854719,46.105786534123496 L 11.815448618474766,46.10490716170415 L 11.815129432817383,46.10441502063974 L 11.814955128879872,46.10391130642493 L 11.814846306732965,46.103441394527174 L 11.814690888367874,46.102923708124074 L 11.813941830826197,46.10232278449721 L 11.813669793680628,46.102265664206406 L 11.80996089274216,46.10203245958513 L 11.808215076510757,46.10238317747818 L 11.793989508045817,46.10312198865821 L 11.783563194793572,46.10272603169636 L 11.781718054606555,46.102697052281684 L 11.780098655565814,46.102699343811274 L 11.77981003389034,46.10273793733585 L 11.777704778702802,46.10305512488146 L 11.777158324433369,46.10317662713326 L 11.775487679362564,46.10412123825562 L 11.775052262042403,46.104379721939544 L 11.77352705604765,46.10627503999213 L 11.77322199930352,46.10669177983037 L 11.773256040510308,46.10608451536859 L 11.773248677044158,46.106049976244805 L 11.773191987480478,46.10582414849792 L 11.771820683221014,46.10350830620854 L 11.765432838525891,46.09867686513289 L 11.763762825521345,46.09788024179909 L 11.758691750025989,46.095601201298564 L 11.751621205953564,46.10425773998714 L 11.750770106397596,46.10513700467113 L 11.745783537284106,46.104335936150804 L 11.719756480226543,46.1031630496534 L 11.718315415029956,46.10331903946411 L 11.718022512249686,46.10332868662776 L 11.71692526501463,46.1030228070488 L 11.716789161492587,46.102936683256246 L 11.711467740130391,46.09912024868104 L 11.710282977298979,46.09791997506268 L 11.70679937227577,46.09434010320242 L 11.705621620343782,46.093065487690055 L 11.704530406011706,46.09185062316823 L 11.703456061758256,46.09049420720788 L 11.69539157989013,46.094319895491665 L 11.695097409897517,46.0944568348773 L 11.691851929865335,46.09502390948795 L 11.691681946788387,46.09504155483802 L 11.689095758226163,46.09490340447745 L 11.688782709849445,46.09487406625475 L 11.688595256211286,46.09485604400715 L 11.688159169554895,46.094789269536776 L 11.68806844446066,46.09475381204622 L 11.687852438978409,46.0946684621592 L 11.68562855603386,46.093736646186336 L 11.685289243013397,46.093568916625756 L 11.683885245483754,46.09226998591565 L 11.683199674627334,46.09147536886984 L 11.682437577586782,46.09024161519928 L 11.682346410473619,46.0899870276195 L 11.68199505810982,46.086932510493725 L 11.682912268661667,46.07903990178384 L 11.683497477701422,46.07628150998273 L 11.686389386142306,46.06625887187939 L 11.686497637686783,46.0660025592578 L 11.687586638236954,46.06443312508899 L 11.6876908165002,46.06428811852747 L 11.689913839277903,46.062813119468544 L 11.690088904707705,46.062698713727265 L 11.69235016350142,46.06227531484747 L 11.703888365947442,46.055127821791835 L 11.704183424634431,46.05479859428956 L 11.704333830209862,46.05455780922204 L 11.706441012288913,46.045993265895866 L 11.706265405168283,46.04573514876438 L 11.706075922540059,46.04555990128453 L 11.70592729752822,46.04551118029428 L 11.705467952017017,46.04536348832575 L 11.704267763539837,46.04501762301568 L 11.703788945772938,46.044889080552714 L 11.703499038767502,46.04483355004722 L 11.701613772120368,46.044603917743146 L 11.701175738554468,46.044551193846914 L 11.70095549455905,46.04452688048137 L 11.700873964495132,46.04451843980798 L 11.70064898038318,46.04450967222305 L 11.687312077805348,46.04413988443701 L 11.684540592251752,46.044142663528355 L 11.683597104840672,46.04416054728877 L 11.683339923301268,46.04424235622225 L 11.682859247551105,46.0444795828902 L 11.679871151223773,46.0458839756394 L 11.679744242361673,46.045929483066146 L 11.679546727865207,46.04597213213503 L 11.678832176902139,46.04604528281618 L 11.666902007585072,46.03806196289282 L 11.666753884327013,46.03794694715774 L 11.666686493512904,46.03779006369258 L 11.666249485028741,46.03631781775014 L 11.66623587865424,46.03606869642922 L 11.666608820963313,46.03534576891612 L 11.672275582466362,46.030127085638014 L 11.672577549781051,46.02985125361412 L 11.673037648579179,46.02948869171192 L 11.67344802832514,46.02928604145568 L 11.675854366188112,46.02863105946829 L 11.676138549529128,46.02856614429571 L 11.679871866163872,46.02820405535287 L 11.680145490112434,46.02818422095605 L 11.680626396182898,46.028259905154876 L 11.681096967497165,46.02838646395692 L 11.681282954527042,46.02841738566529 L 11.681602965136738,46.02846988870692 L 11.681865905867284,46.028415792553446 L 11.681930636840871,46.02794488445343 L 11.681915961276326,46.02744482563865 L 11.681885320891396,46.026946747391 L 11.681869361285953,46.02669111139196 L 11.681191072962983,46.02607955865665 L 11.680765118199046,46.02570725421492 L 11.680591197369802,46.025566464689696 L 11.672414243882292,46.01977300084946 L 11.672085950827883,46.01954238362304 L 11.669971296266908,46.01815208679046 L 11.669798321862212,46.01804480765167 L 11.669175083931322,46.017709081248704 L 11.668662076567522,46.017601846879884 L 11.6666502878016,46.01709889117608 L 11.668736928072722,46.01559361156541 L 11.672578642359014,46.0127501532789 L 11.675104089399401,46.00919727605239 L 11.67747146592862,46.004783014572965 L 11.67853804948268,46.002863692265684 L 11.681179874513246,45.999681713327995 L 11.681673470730495,45.99911235122911 L 11.685295635327325,45.99511987107274 L 11.685666552964147,45.994820259527955 L 11.68585031773561,45.9947203443377 L 11.686059332055455,45.99460815930002 L 11.690004516380622,45.988807204602985 L 11.684283873872776,45.98407845173848 L 11.682315404038208,45.97589095610307 L 11.683800037161738,45.974216240455284 L 11.68557236125918,45.97150143275582 L 11.685768347550088,45.97108699868484 L 11.685964227791635,45.97033900650063 L 11.685804477707393,45.969285853548115 L 11.684525348971583,45.969198809177335 L 11.68330646213238,45.96905024262797 L 11.682666005986471,45.96891847939714 L 11.681745687147275,45.968571063419326 L 11.679522521064648,45.96770517980082 L 11.677718816717501,45.966703416368645 L 11.676084948517655,45.96574264560622 L 11.674413311197227,45.9648007301354 L 11.67323008583034,45.96435139784159 L 11.667952328879231,45.963835774103885 L 11.655912854976588,45.96469244864219 L 11.637261550798911,45.96167743813644 L 11.627608365097283,45.9606413642517 L 11.63067913719972,45.9693791416923 L 11.620924131941445,45.971555872047496 L 11.619295339655233,45.97157622321902 L 11.61865360771157,45.97158330690772 L 11.609090075303964,45.969417032444056 L 11.597868153626653,45.97206702402405 L 11.59424479295379,45.97132132892282 L 11.591744964804537,45.969478949439605 L 11.587592031352598,45.96899707914805 L 11.586665096552698,45.97291085092642 L 11.584185795675056,45.98339353818238 L 11.584162096333362,45.983493736196785 L 11.58198925632965,45.99257048464229 L 11.579826645459555,46.0007650182571 L 11.577230068511549,46.00652028630877 L 11.57216762331225,46.00702199495786 L 11.569429645698454,46.00588014814684 L 11.568190903658596,46.005810856083116 L 11.567002166521442,46.00574449949175 L 11.566799312016995,46.0058027077837 L 11.562763765112793,46.00735482867723 L 11.56012416897811,46.00866092219557 L 11.552411602569942,46.01176790473326 L 11.54452213881391,46.01175754079664 L 11.538910644294186,46.013303872095015 L 11.537929576517904,46.01289128770336 L 11.533165523276221,46.01181797396216 L 11.517208932438336,46.00918257570748 L 11.512737308062995,46.010271101442044 L 11.511346620192331,46.0106527090905 L 11.510704090596755,46.01199865328767 L 11.491200756328809,46.00854961686034 L 11.48968052354254,46.00782433497098 L 11.489050375322071,46.00729469233324 L 11.488622299485229,46.006901486213664 L 11.48847914317955,46.00675746576722 L 11.485239321927484,46.0034211434454 L 11.483758956554393,46.001122446738265 L 11.483483117951806,46.00067321810444 L 11.468045493123125,45.99755597822359 L 11.464133187303158,45.99405358830944 L 11.462025239560594,45.9913144894745 L 11.454399869715381,45.984807080658996 L 11.453820785267608,45.984382826249714 L 11.446781740879837,45.98089345205155 L 11.42241365918911,45.980176757329765 L 11.400149737755818,45.98010182034814 L 11.39415145299054,45.980556831020166 L 11.393771350219303,45.9805962053956 L 11.393459447091962,45.980700855819585 L 11.39274821953832,45.98095526863707 L 11.378189726638064,45.98424654896923 L 11.377920391625441,45.984270945252156 L 11.377460062485447,45.98427407154474 L 11.377126829007931,45.98421548887832 L 11.374356467004196,45.98366993472101 L 11.37401236874133,45.98359494465361 L 11.373739917420465,45.98350283682327 L 11.373375933468164,45.98321409357417 L 11.373290438216157,45.98274281323698 L 11.373249942285117,45.9823733319081 L 11.37261695167727,45.9760497093603 L 11.372396425666416,45.973169322543285 L 11.376109416489989,45.96091052548217 L 11.378087254732721,45.956365359345796 L 11.378295443709671,45.95596952983253 L 11.379557923833138,45.954682351370145 L 11.38330744488032,45.95103069262212 L 11.38235879940469,45.947861144562076 L 11.380749169633178,45.942673602852956 L 11.370450479598734,45.942158426522745 L 11.36975298879626,45.942145985501284 L 11.367853588838447,45.94214933263077 L 11.367177181916686,45.94215488025561 L 11.366200017270684,45.94221593196026 L 11.365212991778053,45.942299556982746 L 11.36426759351154,45.9424344410189 L 11.363441510607169,45.94259209071784 L 11.361567558504936,45.94297735070042 L 11.358295873073077,45.94366347389116 L 11.360141347563069,45.938088684977764 L 11.360644021748184,45.93505791759219 L 11.360666900659586,45.93476877105178 L 11.360652934946419,45.934567912319025 L 11.360592478854999,45.934437906597914 L 11.357835156853048,45.929076931217736 L 11.35805694804277,45.925294623631295 L 11.353590799110327,45.92399340344695 L 11.352943121941431,45.92378202770225 L 11.347999430201428,45.922046444389615 L 11.345477830534781,45.921118521657775 L 11.345034545646689,45.92094421398896 L 11.345931526911626,45.919435113227216 L 11.34628275487176,45.918882669961036 L 11.346514513997155,45.91856622504831 L 11.346871252282915,45.9181013551684 L 11.347961076172371,45.91671943151885 L 11.348544108396332,45.9160363404891 L 11.34897390783644,45.91557307569884 L 11.34946487712639,45.915068453673925 L 11.350084799564245,45.91450148884646 L 11.350688239035083,45.91396828578626 L 11.350223049787921,45.91090027966436 L 11.35020283017926,45.91078330117565 L 11.349315339041599,45.9095312103929 L 11.346817159203164,45.90917800927488 L 11.346107969002004,45.909090130531425 L 11.345540812153727,45.90910251931905 L 11.339684250487313,45.9113349422065 L 11.324349210629334,45.917415884948575 L 11.32416670844196,45.91751763361765 L 11.31822829067248,45.92128024859461 L 11.315810104281239,45.923451361897044 L 11.313753417011823,45.926192147336614 L 11.312394390750022,45.92801729550067 L 11.313023732113756,45.92982345961168 L 11.304599203626983,45.926833398262715 L 11.30182173645408,45.92468895601252 L 11.303429437582398,45.91945321036198 L 11.303775774474307,45.91823656827466 L 11.302888121773686,45.91802215927909 L 11.30079588435016,45.91790414411126 L 11.300670362166995,45.91789937392788 L 11.28370558301554,45.91747127656764 L 11.28170113968189,45.91858569566573 L 11.275295966831116,45.9196913883395 L 11.274464490542906,45.91964610607066 L 11.27383655543549,45.91957778428436 L 11.271741373055738,45.91934954238666 L 11.271040867760512,45.919253219028775 L 11.27081204947846,45.91911543876925 L 11.27070344935092,45.91883089252984 L 11.270640032070016,45.9186250509696 L 11.270657848561635,45.918344876071636 L 11.270770849559268,45.9178701373027 L 11.270880083603021,45.91742172740311 L 11.271101322912182,45.916973540295345 L 11.26993900410605,45.91660809949839 L 11.258322548418718,45.92067793970188 L 11.26123632673242,45.91824822566542 L 11.26043879440777,45.90920568177624 L 11.256965272880471,45.90290660729949 L 11.25637499465109,45.90272526412592 L 11.2557393143882,45.902476573000804 L 11.254544033915636,45.901950499832864 L 11.25170932600508,45.90062480424727 L 11.249712724368475,45.89965590692147 L 11.248972436264552,45.899251284055566 L 11.24889394857626,45.899175941797324 L 11.24936619127723,45.89847132829097 L 11.251121146946593,45.896123218504954 L 11.253447085532956,45.8929797008515 L 11.25408109853594,45.89208106618548 L 11.25463475540481,45.89123704911016 L 11.254706215320553,45.89074524562066 L 11.254763622260143,45.89023548760485 L 11.254794966764985,45.889726027124276 L 11.254852364320671,45.88863345041442 L 11.255080823598847,45.884006557369766 L 11.254394636368724,45.884010710499226 L 11.25375644388668,45.8840592140385 L 11.253062030032796,45.88413112420261 L 11.251697733074128,45.88431091020172 L 11.250447834177109,45.88449404501302 L 11.249740930593616,45.88482222579391 L 11.247922733671619,45.88570964403822 L 11.246818396632206,45.886261566385556 L 11.246440871258372,45.886438540069605 L 11.234939710443651,45.87973324224274 L 11.234849659961792,45.87965695442312 L 11.234849675544666,45.878207755204684 L 11.234966242520695,45.878119416387136 L 11.240353856755611,45.87566855862377 L 11.240651145678687,45.87555064499986 L 11.240865241096019,45.87558818649449 L 11.241482186218235,45.87578983451387 L 11.244363899651463,45.87694609164404 L 11.239323863122348,45.855981907902645 L 11.228164241249036,45.84974666364874 L 11.226640469204163,45.84900232072415 L 11.223817338483869,45.84894032340322 L 11.222721620302575,45.84891664471032 L 11.22186066905394,45.848959863730876 L 11.220860651950872,45.848102720031044 L 11.220523725013162,45.84773853457515 L 11.220176097894118,45.84717892330743 L 11.219698749278225,45.846406444436134 L 11.219159100693672,45.84548951800413 L 11.218453825517345,45.84396175849062 L 11.218281718437243,45.84145698174846 L 11.218387446383336,45.83568279851673 L 11.218430161077002,45.835247443818034 L 11.219039861933075,45.83289795849789 L 11.219069707677114,45.83271623665823 L 11.214866071252866,45.83069053557055 L 11.212841948327885,45.83004590360615 L 11.20806104231564,45.82855441534617 L 11.203131559813803,45.827093039037386 L 11.198665101729683,45.824188757322005 L 11.19762114723414,45.82129226721367 L 11.192209264781335,45.81730269051593 L 11.191820837119138,45.81719775431259 L 11.19158623085847,45.817060932033286 L 11.191088308892208,45.816746349366326 L 11.189141945680491,45.81403867442151 L 11.188821250220084,45.81357254547428 L 11.18867303358788,45.81310856304754 L 11.188499049848373,45.811862931732016 L 11.189451901245835,45.804888946330955 L 11.18960231667539,45.80435428997435 L 11.193061250211434,45.79494518931123 L 11.193306785384484,45.7943253977868 L 11.193510406954614,45.793851439526705 L 11.193723685146319,45.79347934336759 L 11.194888445860634,45.79167560625137 L 11.195428619412535,45.79085905607832 L 11.19586138225138,45.79024374474331 L 11.202787783381316,45.783372968886525 L 11.190071434804786,45.78161507682951 L 11.179384030144245,45.78771775001247 L 11.178383568624032,45.78811450331545 L 11.178131318612895,45.788142286499706 L 11.177029013087523,45.78820547522606 L 11.176793854880739,45.7881728192605 L 11.175936071174199,45.78796800221012 L 11.175672909063032,45.787890702216444 L 11.173966048944274,45.78708141408818 L 11.173808728044419,45.78693805483219 L 11.173664461823584,45.786796265960625 L 11.173549247308893,45.78667054767068 L 11.173567324026385,45.78652094970533 L 11.175180110938863,45.78283064446092 L 11.176848763685665,45.78066057494597 L 11.178323555265203,45.77714479092833 L 11.179060766131911,45.77521862870349 L 11.179779380427032,45.77285512708824 L 11.180585784496836,45.76579621090154 L 11.18059888957442,45.76568113822799 L 11.180655942864053,45.762907469824036 L 11.180450000063448,45.76236210951637 L 11.180240582014035,45.76185286009307 L 11.179356006766131,45.76059967038163 L 11.17773995666346,45.75673341277078 L 11.175061353188298,45.74908968370076 L 11.175102542815058,45.74876016910581 L 11.176108890911497,45.74721026305882 L 11.177059275542897,45.74504972275931 L 11.177130155991469,45.74472100663944 L 11.178430362538931,45.738066416693464 L 11.17465215832131,45.733106869646974 L 11.17453479647589,45.732960511804755 L 11.174164048896957,45.73252568933576 L 11.173760739817306,45.73216455856498 L 11.172901172651914,45.731762344334356 L 11.153187861504831,45.718315881257595 L 11.15229495918461,45.71807567519593 L 11.149499252056673,45.71739633906641 L 11.145903173274379,45.716945434378864 L 11.145796014365338,45.71537707673471 L 11.145722825129427,45.71490135865856 L 11.144379647587945,45.71310287691388 L 11.14411391857595,45.71290054666479 L 11.14361746683454,45.712599794812014 L 11.142815449306962,45.7123545509896 L 11.142131557721113,45.71210039357126 L 11.141539280656051,45.71164305571279 L 11.139208557384903,45.70983358174232 L 11.13875014545429,45.70944064636339 L 11.138661966205582,45.7093156345965 L 11.136991570221676,45.70410014383476 L 11.136837145515768,45.70357228834833 L 11.136155250625812,45.70101596447184 L 11.13590188353036,45.700030851486545 L 11.135850113477865,45.69958119638072 L 11.135876578014582,45.69935233972538 L 11.135992566936983,45.69908775973272 L 11.138259314136521,45.69708379504117 L 11.138509794435107,45.69684830004005 L 11.135633666569209,45.69543243743077 L 11.133391720972062,45.6938929514928 L 11.128497944607304,45.69159992218269 L 11.123941014633555,45.68962836318783 L 11.123327304340295,45.689374568460686 L 11.122559725088498,45.68909344300246 L 11.12250070344068,45.68921890741882 L 11.122472306428445,45.6895825868237 L 11.122606727541847,45.68968770315031 L 11.12288858145607,45.68981523999808 L 11.122999984830134,45.68993890901689 L 11.123055324770135,45.69016204139871 L 11.123195314107926,45.69096607104271 L 11.123534319129961,45.69293970093967 L 11.123378669734995,45.69382291360917 L 11.12250093692519,45.695188655299376 L 11.121396313300117,45.69554451278683 L 11.12071731479263,45.69566498465097 L 11.114337635852875,45.6967185921591 L 11.114091688022457,45.696749430166996 L 11.113744001452877,45.696721641832504 L 11.113145459114756,45.69652460585933 L 11.10864309872582,45.69495983218719 L 11.107568720394735,45.69566964344731 L 11.107152661876164,45.695722308944994 L 11.103192624560677,45.69596111664066 L 11.10186673534186,45.69595829367452 L 11.101687431076897,45.695922383700214 L 11.10015830358117,45.69501617096497 L 11.092399049248423,45.695151100203866 L 11.073836424451082,45.70305908912382 L 11.072385996511146,45.70383432254341 L 11.070849692663339,45.705915312236115 L 11.065451989157879,45.708485532759326 L 11.064974337446532,45.708834960680946 L 11.059507019958142,45.714189484193646 L 11.059162667574453,45.71458714968973 L 11.058957332433842,45.71496301615933 L 11.05840723326559,45.71597971476572 L 11.058088033043447,45.71674790050833 L 11.05797920228491,45.71724296239468 L 11.057726653326144,45.717598937342274 L 11.057554484004445,45.717738281955434 L 11.056678082131171,45.71839272301641 L 11.056407529921374,45.71847007593704 L 11.056145344522767,45.718421600320276 L 11.055942237934396,45.718333884012196 L 11.052757954733313,45.71656711750205 L 11.052073815601164,45.71593286588176 L 11.041376980119484,45.70631909587807 L 11.027666028503166,45.704722539818334 L 11.027195686740003,45.70468858981694 L 11.026195519282245,45.70471691445415 L 11.025479850574273,45.704814125809655 L 11.022113365023916,45.70553061458653 L 11.017885406870619,45.70636185199853 L 11.017639646943179,45.70632548017007 L 11.017184138432492,45.706162422498 L 11.016465929291725,45.70572738486686 L 11.015209743623846,45.710999990690986 L 11.016639564882265,45.71454907236334 L 11.017189733078277,45.71650102885985 L 11.017359717269636,45.71711458517391 L 11.017526100015155,45.717916306104314 L 11.017565509497441,45.71833865328514 L 11.017377010780098,45.718923026936054 L 11.017150322913041,45.71934739389643 L 11.017022185479389,45.71945974552738 L 11.016575319178656,45.71942388437057 L 11.01146700611842,45.7189454638574 L 11.011579004402869,45.717589113438514 L 11.011704502879372,45.716420828667765 L 11.01185837793233,45.71564029050806 L 11.011903919221824,45.71489254095335 L 11.01176520655304,45.714638178170944 L 11.011441781500592,45.71420767203801 L 11.011081094202794,45.71375965726459 L 11.010569501826334,45.71321163531021 L 11.00755801376022,45.71042220260715 L 11.001521564417432,45.70834708272049 L 10.998977266646751,45.707607799651555 L 10.997716645643456,45.70277367700097 L 10.997799894850607,45.70194901343147 L 10.997895769051832,45.70068270630938 L 10.998011081133555,45.6990797528101 L 10.997631950385099,45.69702745598036 L 10.986335727158108,45.688806859879946 L 10.979142145261509,45.68568490753932 L 10.97538899142941,45.68416675899883 L 10.968319505533914,45.68012109727075 L 10.968431372136429,45.68470014901184 L 10.969383137630638,45.687433158662586 L 10.970087805604564,45.6888564147495 L 10.970362850210925,45.689317228047514 L 10.972541594658448,45.692465401884114 L 10.974158824580565,45.69469119949347 L 10.974799000443173,45.69557233080665 L 10.97492105996573,45.69586296967066 L 10.974938094664802,45.695969302127246 L 10.974956931196816,45.69610535155439 L 10.974830532561631,45.69656504290447 L 10.974776872180891,45.69670845399081 L 10.97250884174668,45.70140320662977 L 10.97219991876186,45.70181749324268 L 10.96592329280208,45.693272040668745 L 10.965660157696043,45.692897648843655 L 10.965335492026446,45.692327082819354 L 10.96514553419459,45.69197487071324 L 10.9619976776923,45.68568284535466 L 10.951326533789985,45.68449853392986 L 10.946122510504157,45.67919212672896 L 10.946144208658152,45.6787099837225 L 10.946044264334217,45.678213152837166 L 10.945534953286629,45.675871305971334 L 10.945431732253795,45.67568807186758 L 10.944497482875711,45.674065234819274 L 10.942989000661044,45.67311653918732 L 10.942900728198984,45.67306257515287 L 10.9419608028811,45.67309366464777 L 10.940308716638857,45.673174114036925 L 10.937459644557661,45.67341569808066 L 10.933896859003307,45.6758129330053 L 10.930368139115997,45.677726515728736 L 10.917966626698384,45.683716436156026 L 10.911997604922654,45.68831466981815 L 10.913557122511204,45.692087496259084 L 10.918781936923573,45.70055358466717 L 10.904597373472674,45.70771887471444 L 10.88957863180984,45.71507464915417 L 10.888894512796128,45.71527420172034 L 10.88554598154315,45.716238319812845 L 10.882974960266045,45.716897836385954 L 10.881471973451344,45.71727737495567 L 10.872507331914367,45.715790148650306 L 10.862031435034645,45.71738091668759 L 10.860181782543465,45.717591041071906 L 10.85825721153877,45.71779342013462 L 10.858026425034078,45.717810146958435 L 10.857295199877345,45.717861989065455 L 10.85549188511956,45.71789167984612 L 10.848191888378057,45.71794334832535 L 10.843832376572815,45.71859281910569 L 10.843270150530577,45.72058783725562 L 10.844402087740137,45.72488383713164 L 10.849930419282307,45.73578189743016 L 10.85502927105845,45.74185482886451 L 10.855258786735785,45.74209001099414 L 10.855692461062297,45.74239235259197 L 10.858261355394655,45.743795423129434 L 10.858598224969084,45.743871321343725 L 10.862627185115768,45.74366131829689 L 10.863729802996826,45.74909336141512 L 10.864868028346486,45.7548938339593 L 10.86509431547706,45.759698403848425 L 10.865244391890634,45.76130129496436 L 10.866936747172703,45.764240131275585 L 10.867228369987332,45.76461185034341 L 10.867609901773145,45.765020698636455 L 10.875766332082957,45.77009849370424 L 10.880856590037842,45.77215254068325 L 10.881535141602923,45.77204185964871 L 10.882284138553228,45.77194468952044 L 10.882723854160417,45.7719406141128 L 10.883007064070666,45.7720233371669 L 10.883789246727195,45.7728121710416 L 10.884108882238657,45.77323389723905 L 10.884444269475004,45.77373173015653 L 10.884976455254082,45.77465488783661 L 10.885393623936345,45.77557092634005 L 10.88477688054013,45.77823760371778 L 10.883824759362007,45.77933952755902 L 10.883413476799817,45.779755960880586 L 10.881912830061092,45.78086493823665 L 10.872797363143711,45.78856184077164 L 10.873006404471093,45.79053869245901 L 10.873190753202818,45.79154071411964 L 10.874116714218212,45.79554595987088 L 10.876688641891409,45.80322853684651 L 10.876760965139518,45.803323704633335 L 10.880003249048148,45.80568727077835 L 10.880896043797092,45.806135926466105 L 10.881072723336978,45.80616650793801 L 10.885487595511373,45.80914584675381 L 10.886696864143442,45.81003576990126 L 10.887569568471557,45.81116426990057 L 10.887586263061651,45.81164843461527 L 10.887260315045642,45.81223884304671 L 10.886653253408776,45.81292420515437 L 10.885821231673246,45.81369374698032 L 10.884736244218256,45.81446838317079 L 10.88251126042913,45.81513667070256 L 10.883346984442692,45.81647244936156 L 10.883404321299912,45.81697155595142 L 10.870061864161062,45.82213515341273 L 10.85896720699636,45.82634541717405 L 10.856107640292953,45.82739189292961 L 10.841273381423433,45.83237656689296 L 10.840150465662777,45.83275599772702 L 10.839917833684897,45.83284159331681 L 10.837332107849353,45.833746918264595 L 10.825785812556791,45.837697165171484 L 10.82538518465312,45.83774488763416 L 10.805327765999591,45.83490798286263 L 10.804004368752462,45.83445636605094 L 10.803582902300365,45.834414940472755 L 10.803300153702745,45.83443734117066 L 10.800902813009335,45.834754177727646 L 10.799365051141127,45.83563403235756 L 10.798776398242293,45.83604498794947 L 10.798350897269426,45.8363410888556 L 10.797613701778435,45.83632772442072 L 10.796887910637793,45.8362880935229 L 10.796273874307154,45.83611452412451 L 10.796023902389477,45.83603109275465 L 10.792922150169833,45.83418585125167 L 10.791684910073325,45.83309894300889 L 10.789062276502444,45.83422324903404 L 10.78227310361506,45.83841457632538 L 10.777397147329717,45.84280041533816 L 10.777204785325178,45.843028193923416 L 10.777097597906614,45.843088121323206 L 10.776943292124551,45.84311172925223 L 10.77463094991792,45.843076476793264 L 10.772634352390561,45.84291459125805 L 10.771198423837708,45.842716282676136 L 10.770552066750794,45.84262688370326 L 10.769623432802184,45.84238434005167 L 10.767872847544563,45.8418982271268 L 10.765423433722365,45.84107696889198 L 10.76479843441138,45.840847856378474 L 10.76419544039469,45.84059621112347 L 10.763064953895134,45.83996098964581 L 10.760008304451963,45.83751233460389 L 10.756350697267,45.830026366102395 L 10.754251061378634,45.831556213498764 L 10.752157345099747,45.834224926788636 L 10.7512960182563,45.83656423409582 L 10.74521787045594,45.840437405490846 L 10.745015216852947,45.84049898086716 L 10.743258835580605,45.841003239956024 L 10.741542972596818,45.84130951182593 L 10.737306174186854,45.84167485415472 L 10.737090715721884,45.84197988409182 L 10.73687422947903,45.84217244915859 L 10.736273456404938,45.84248188997953 L 10.735926628505185,45.8426410794972 L 10.735553312856444,45.84272295466885 L 10.735080693139938,45.84272199585085 L 10.733182121290556,45.84270433790707 L 10.731723029100237,45.84264676166695 L 10.726385823281781,45.84237281741522 L 10.722506114679693,45.84118978774603 L 10.722160881468831,45.84084609845532 L 10.721803978378688,45.840384317365796 L 10.721454798690688,45.84002038338356 L 10.720564954753943,45.839326367906764 L 10.71865003272584,45.837889198719004 L 10.717124539726806,45.83678475719809 L 10.711013004490631,45.83606263655482 L 10.710675304478796,45.83607243131992 L 10.709893030958526,45.83611983132625 L 10.70889212245953,45.836234900625385 L 10.706802133683468,45.836499150535914 L 10.706667877713455,45.83820918035814 L 10.706155240271126,45.838538677482134 L 10.701843840259546,45.84103504733566 L 10.701577904634213,45.84114635405326 L 10.700243707341597,45.841575881702035 L 10.699505508055807,45.84166438789694 L 10.696774810938589,45.84086062572032 L 10.695083763631354,45.8394126997568 L 10.692938934101273,45.83778723979107 L 10.692778854047134,45.83768191316143 L 10.690349419111332,45.836252973742845 L 10.682643972999324,45.832597655125554 L 10.675723848826141,45.830460702696215 L 10.67457146952226,45.830843620243435 L 10.673908881299676,45.83106812539517 L 10.673324681169483,45.831270566196 L 10.671941617536243,45.83164615757303 L 10.671252893140212,45.83180158206851 L 10.6698331785936,45.832105849339534 L 10.667714258761253,45.832257864862676 L 10.654640146273259,45.83262761533502 L 10.654039283279968,45.82705225318723 L 10.6547498514801,45.82126555050585 L 10.65103571778614,45.81248622771095 L 10.648391988330063,45.80767464444587 L 10.64532755374003,45.804127150933425 L 10.643828769445204,45.80295985166088 L 10.641409389169906,45.80188520428966 L 10.636728543499368,45.80588451564527 L 10.63514749436425,45.80667174667686 L 10.624758947753548,45.806202437658925 L 10.614563390160317,45.8056414043231 L 10.611710135493212,45.80532121764391 L 10.60098179327972,45.80300330565249 L 10.60062656717907,45.8029063780474 L 10.60048698638942,45.802819453164325 L 10.597677600054489,45.799735233194845 L 10.591020088842392,45.798462523038296 L 10.5903253222053,45.798298176089354 L 10.589707203563792,45.79812301585156 L 10.589082886845445,45.797871155739024 L 10.585660149757414,45.79618202206277 L 10.582181529206334,45.79419766580597 L 10.582133940009596,45.79407554195979 L 10.58201534671458,45.79185396106176 L 10.58110013244706,45.78935644034439 L 10.580738101845014,45.78908452318966 L 10.580449669603173,45.78889361783092 L 10.574487160527932,45.786860180828576 L 10.563473316357879,45.784112642397886 L 10.561430446103536,45.78391909452678 L 10.56107167511031,45.783913546303765 L 10.553673573139445,45.78393331371894 L 10.54542384582104,45.784659201041514 L 10.538416439789925,45.78552247408451 L 10.53779763045899,45.785634420304866 L 10.536028955016498,45.78645974830261 L 10.532753208860091,45.78806021305941 L 10.532697856058753,45.788282343941574 L 10.530881150947332,45.79586164736195 L 10.533854104952818,45.80063738229304 L 10.534088783071242,45.8006697983217 L 10.534219790047048,45.80070600496156 L 10.534401945221397,45.80085140013743 L 10.535055313936274,45.80137304600693 L 10.535157170479907,45.80153657717925 L 10.535110902896397,45.80170496381396 L 10.533792665639325,45.80433240460251 L 10.533668680922917,45.8045248750181 L 10.533499175513258,45.80476036875827 L 10.533329485024872,45.80496511009564 L 10.533193079289692,45.80507567885722 L 10.532929517244762,45.80515994534383 L 10.532474106415997,45.805146831844006 L 10.528151171338958,45.8041426571056 L 10.526051424323791,45.80561385008084 L 10.526012415029223,45.80569781792737 L 10.526351974488726,45.80637962810567 L 10.526581851257264,45.806612374775554 L 10.52970727407366,45.80957445527955 L 10.531059725315751,45.80947751658605 L 10.531752522240492,45.80940493063823 L 10.532460687144525,45.80935068483585 L 10.533190198888954,45.80932710886028 L 10.533906217809813,45.809380643162804 L 10.536160801230784,45.81016961652581 L 10.53706955006569,45.8105557812844 L 10.543118575109073,45.81490604214241 L 10.543213205807211,45.8152191717563 L 10.543348328847761,45.8157220448447 L 10.543512407277447,45.81620431717922 L 10.543800705469625,45.81705562336156 L 10.54377300958111,45.817181416409795 L 10.543627779013589,45.81764777479293 L 10.543266710425028,45.818364034178295 L 10.540373191729273,45.82041387476926 L 10.536767712998662,45.822577448366694 L 10.529105029537472,45.826461062413394 L 10.528878672724769,45.82655346455094 L 10.524285261049844,45.827128556894245 L 10.517634535196803,45.82636283179998 L 10.514452579757402,45.82599137855519 L 10.513946427960933,45.82585671696466 L 10.51380699513383,45.82579031955904 L 10.513676362018906,45.82568820219156 L 10.51106102157195,45.824153089934555 L 10.510913640704999,45.82409755085998 L 10.509041209242618,45.82364866854594 L 10.508837739217043,45.8236078925948 L 10.50857008057197,45.82359388688057 L 10.508333330592958,45.82364541073714 L 10.508197559112409,45.823737571314055 L 10.502827599631503,45.829733967837974 L 10.502487137156779,45.830161767905594 L 10.502360482195822,45.830374603496004 L 10.50225503505285,45.83065324587957 L 10.502155343055962,45.83104556508911 L 10.50210234743306,45.83131990021391 L 10.501976604085616,45.83204585303076 L 10.501959372011482,45.83217284538617 L 10.502069880200729,45.83347119803404 L 10.502140735813715,45.83369953383864 L 10.502592037303621,45.835120320117674 L 10.502966335181668,45.83616064387813 L 10.50301223879909,45.83624440701671 L 10.503070513568762,45.83632803977046 L 10.503504394236371,45.83694909331924 L 10.503557981171545,45.83700888888341 L 10.505906509520079,45.843277255670245 L 10.50470848164162,45.849731319587576 L 10.503089259163646,45.85605746524435 L 10.502732302034966,45.85631592217212 L 10.502661752960462,45.85638365213927 L 10.502590520197453,45.856469761400795 L 10.502533072832005,45.856576669848124 L 10.501548270039974,45.85850071133456 L 10.501525613698371,45.85855311391546 L 10.501519691466058,45.85961738518728 L 10.501718371951275,45.867111936717386 L 10.501747722115761,45.867398828958784 L 10.502280644260775,45.87114621114356 L 10.502311221986174,45.871261904682314 L 10.49532638832799,45.87946768096491 L 10.494818227097642,45.87979825714699 L 10.490990555237126,45.882317512761375 L 10.490306416720648,45.88390176347571 L 10.490043200911309,45.884610829808985 L 10.490046512823783,45.88504954416322 L 10.49011584053516,45.88707745678862 L 10.495078631998581,45.89981662943447 L 10.495410677154606,45.89977170368135 L 10.498961613666033,45.89950369605198 L 10.499758877265432,45.899609969885674 L 10.500407852391325,45.899817990598685 L 10.50107271395483,45.900035407931135 L 10.501952018509373,45.900348834389085 L 10.502406928989952,45.90063783948192 L 10.50594179758263,45.90303032149488 L 10.506095321558247,45.90315213059757 L 10.506164388202027,45.90327575228329 L 10.506175877806472,45.90344377145764 L 10.50769011572171,45.90534424837469 L 10.510063406436194,45.91706894204324 L 10.508644411235968,45.92328312021783 L 10.508568119923453,45.92356617099044 L 10.507361713535733,45.924972901856925 L 10.50412058318612,45.92630841667242 L 10.496421807632036,45.9294694738727 L 10.491235930116261,45.933227964093014 L 10.491435429586966,45.94195295837994 L 10.49104073421855,45.94193785327578 L 10.486150465271498,45.94282900475407 L 10.485999769124017,45.9430475445557 L 10.48570841088375,45.94347849780738 L 10.48512206991653,45.944399676164636 L 10.484706155456575,45.945114747934895 L 10.483218968739894,45.950574005537774 L 10.483026188136586,45.95192801035643 L 10.484179822071177,45.95469537593358 L 10.486790031833863,45.95922918869833 L 10.486965397422605,45.95949620624488 L 10.487397611957881,45.959832501645614 L 10.487926708630027,45.96014556265478 L 10.48846728890808,45.96048934603323 L 10.488660745527506,45.96068470355194 L 10.48980359549634,45.96218312984278 L 10.48987454893829,45.96228877781051 L 10.489934138456153,45.962516476716736 L 10.489900549332095,45.962810728889075 L 10.488494978722507,45.96934583000729 L 10.486604675164383,45.97115833691757 L 10.474450230542974,45.972649904143694 L 10.47302726697654,45.97253499557317 L 10.47112462832422,45.97234333553166 L 10.467523546657103,45.97163780681494 L 10.453407903185584,45.97655254129284 L 10.45301003692435,45.977181621544005 L 10.45273706104783,45.97765760034861 L 10.452488428334954,45.97809716091294 L 10.452131419215545,45.97968597801814 L 10.452270950140258,45.9824101120369 L 10.452934531888017,45.98962212937544 L 10.4529796207491,45.98994042870879 L 10.453094339163613,45.99044408267863 L 10.453148669284783,45.990662414231494 L 10.453231768419613,45.990927192130115 L 10.453284641253747,45.991024803736245 L 10.453728242537506,45.99124663294021 L 10.454263996982828,45.991581723871185 L 10.455128180864042,45.992316863124785 L 10.455444699042921,45.99259196383615 L 10.457192037364745,45.9956801944857 L 10.457840567612974,45.99941926304049 L 10.457857611397772,45.99998963134279 L 10.45749860990454,46.00108893299624 L 10.457073065186185,46.00357209003096 L 10.4570938192722,46.00804788312252 L 10.457158641152505,46.00855450074016 L 10.457305153452346,46.00906494209533 L 10.457574185738599,46.00950765738561 L 10.457951277269203,46.01000328299052 L 10.458292137401449,46.010425173796285 L 10.462493086204113,46.01488891213042 L 10.46298301788934,46.015404385862055 L 10.464699607777373,46.017017561584154 L 10.464879999802303,46.01716700878788 L 10.465051351307931,46.01730516898617 L 10.465387519760517,46.01754739872111 L 10.470374950332968,46.02079750623279 L 10.470815730708159,46.021082656647636 L 10.471532454616831,46.02136221981032 L 10.471859087157107,46.02142467004594 L 10.47212500643014,46.02145993725871 L 10.47612000396263,46.02126272228074 L 10.48077398661316,46.02107270288358 L 10.481499883452264,46.021107081704486 L 10.482041593290758,46.021244190573434 L 10.482662823615378,46.02141937999022 L 10.48304346127861,46.021592448821345 L 10.483292244084128,46.021863720581514 L 10.484568498876765,46.024316466180515 L 10.48470522756597,46.02461648965381 L 10.486107985517735,46.02897246663739 L 10.486212110978256,46.029339939907565 L 10.486224613266243,46.02955094204172 L 10.483513970552131,46.043774750823786 L 10.481369928636587,46.049909693390056 L 10.47972268377989,46.05030970646557 L 10.479058237636075,46.05047473676739 L 10.47843581058141,46.0506947590508 L 10.47785114216938,46.0509678904152 L 10.477552182812428,46.05112585080708 L 10.477336000419974,46.051321059353874 L 10.480947249943892,46.05629472743614 L 10.490919693294748,46.06680868195972 L 10.49486337921326,46.069294478683204 L 10.495124831080291,46.069427582678024 L 10.50130877455882,46.07232168933772 L 10.501749172462617,46.07230717504149 L 10.502259827862005,46.072281301365564 L 10.502943648054961,46.07224178513985 L 10.503675401507532,46.072271622562205 L 10.50488555423405,46.072388776908795 L 10.507741417597758,46.0735683051825 L 10.509192512097309,46.07523164311531 L 10.517182333882372,46.080078850290796 L 10.524728566040592,46.08964318629969 L 10.535310926189068,46.097368468947124 L 10.535743235733072,46.09773114896743 L 10.536196646219892,46.098147132423925 L 10.540746011918802,46.10239302076903 L 10.54140170180342,46.10302459877557 L 10.541578022803842,46.10326927689945 L 10.549498794956762,46.11739421914409 L 10.551117720432453,46.1245056549367 L 10.551163490274122,46.12505011538467 L 10.548103492402761,46.13926316136261 L 10.549269646520722,46.14642742041988 L 10.554321250590633,46.148775848185366 L 10.554923254772069,46.15253954956147 L 10.555394973473339,46.1553957365828 L 10.557197622890845,46.159406813613856 L 10.557294556839233,46.159599600615216 L 10.557471354912293,46.15986934821994 L 10.560725458070236,46.16391239491276 L 10.561068303757159,46.164308220297876 L 10.561272106038958,46.164537464632744 L 10.561672081171217,46.164723191520764 L 10.56234306199579,46.16496095636053 L 10.562992680407278,46.16519614373908 L 10.563594253268745,46.16541796061335 L 10.564146680849214,46.165675380359716 L 10.565071684443733,46.166369104246606 L 10.565364464251042,46.16661658209324 L 10.565390219749377,46.166673461682805 L 10.565394906415646,46.16683864410039 L 10.5653081069077,46.16697038553425 L 10.565243127153284,46.16706426028109 L 10.5647752214059,46.16767363044022 L 10.558020136191654,46.17644159285289 L 10.556907414429743,46.177743909353765 L 10.556140809733456,46.17859722965704 L 10.554552354901128,46.18026990740619 L 10.554126097614594,46.180595714310904 L 10.554060535091084,46.180640431335185 L 10.553498227477046,46.18102175294698 L 10.548671357265349,46.18420037044512 L 10.54636180225944,46.18571896884534 L 10.54373681657344,46.187440400505274 L 10.54139963951191,46.188619472517104 L 10.543365030952566,46.19245021468609 L 10.549249388523593,46.20414658139485 L 10.549356901916077,46.20462647842283 L 10.549717582021849,46.20552603838391 L 10.550803615443682,46.20680277222447 L 10.551548723556,46.20750395362349 L 10.552823033791103,46.20856722767368 L 10.554302625452818,46.209617683306554 L 10.55498659448413,46.210008463650794 L 10.558194782945009,46.21170536330981 L 10.568061270395823,46.220184966306846 L 10.570405089606343,46.223208872593034 L 10.57074825631066,46.22422182529757 L 10.571061573718794,46.22552232089568 L 10.571076246897778,46.2257910529264 L 10.5707687123669,46.22673071325415 L 10.570514510416412,46.227193230782596 L 10.56891131716188,46.2300548930193 L 10.5681749149407,46.2312170779604 L 10.567833701354349,46.23177993899176 L 10.567648815259378,46.23227201919744 L 10.5680189032073,46.2332977099507 L 10.568220763365368,46.23372103125529 L 10.570105187394688,46.23546559165831 L 10.570689361727755,46.23589712571129 L 10.572628259145278,46.23672728429604 L 10.573654291141475,46.23710954308053 L 10.574047746808827,46.23712233447385 L 10.57458889170376,46.23699629827026 L 10.575042599538081,46.236913314017286 L 10.575467758709786,46.23697953471784 L 10.576097551817956,46.23713599797494 L 10.577974360189945,46.23797227069725 L 10.579928614793923,46.239120449683924 L 10.580746929802702,46.23962557266421 L 10.58120036291976,46.23999788691715 L 10.581481253146018,46.24029550807504 L 10.58573095334106,46.24533910458964 L 10.585694798988335,46.24793816445581 L 10.582805271024844,46.25549269812798 L 10.578304052512435,46.26630292271024 L 10.576369775700428,46.272116822499676 L 10.576166660365603,46.27414054260869 L 10.576093115992684,46.27460705494256 L 10.575831613808118,46.27528774172283 L 10.575666174089603,46.27568235635522 L 10.575509541904877,46.27586033770359 L 10.575161312189964,46.27610667129454 L 10.574923990488811,46.27626934849342 L 10.574561954702844,46.2764259851125 L 10.57385379962545,46.276534497825 L 10.573018990397808,46.27659990095688 L 10.57230886014134,46.27650203753971 L 10.571624091449797,46.27634048043979 L 10.570976303961606,46.27616003378806 L 10.570531307092947,46.27608488086563 L 10.568824604091123,46.277049639048826 L 10.56034710693477,46.282628548730635 L 10.55972139666348,46.28305150307559 L 10.559907197362147,46.28369734061029 L 10.56001137490426,46.28404266079062 L 10.56334262980269,46.28813111858348 L 10.563682430142684,46.28851867800527 L 10.564024315883595,46.28887644025258 L 10.564299072544738,46.289049426019965 L 10.570927379081695,46.293090649953065 L 10.57759139400964,46.29718732259592 L 10.579572506115127,46.29882844030935 L 10.579201588329626,46.300846376504836 L 10.578884548139726,46.301947318135845 L 10.57603610158442,46.30485147392145 L 10.57190496869927,46.307076324170836 L 10.57138951287207,46.30734443364317 L 10.56643641679596,46.31162764279563 L 10.564859952082768,46.31301450408677 L 10.564510482309256,46.3136242033985 L 10.564111700478227,46.31483024644854 L 10.563666882523046,46.32036667820145 L 10.56365311703344,46.32097372033448 L 10.563926037395245,46.3213998758182 L 10.564459210499002,46.32195741329506 L 10.564910513361218,46.32242393796295 L 10.565154447721698,46.32294238156182 L 10.5654457496437,46.323648569023035 L 10.565620658695346,46.32634336283813 L 10.552340136507967,46.33185962536444 L 10.53684451431875,46.33822041561987 L 10.528382790154632,46.34122091235195 L 10.520040491311825,46.34327802018377 L 10.5157148159509,46.34321786896404 L 10.515733058999707,46.34523417875402 L 10.515799660796564,46.34580348251922 L 10.515934154219078,46.34636263583535 L 10.519241245559641,46.35531339488167 L 10.519472993635972,46.35573940007033 L 10.519496643524615,46.35576202925889 L 10.519872569450095,46.35597555047464 L 10.520395105321484,46.35613400144341 L 10.529049447612094,46.35691920172261 L 10.52968719307612,46.356864535896335 L 10.532825595264864,46.35637840648255 L 10.533045998896474,46.3562569257318 L 10.533511957032392,46.355743426089646 L 10.53379981966751,46.35541114800338 L 10.533979502951135,46.35510481674872 L 10.534056201681272,46.35487681833747 L 10.534176941851063,46.354465609444745 L 10.534254295684299,46.35428535932487 L 10.53433482536589,46.354200377610255 L 10.534540245996133,46.35417091231591 L 10.535939665491673,46.35412163352368 L 10.53659878065528,46.35411185491672 L 10.53770075697312,46.354125478149996 L 10.538758709399639,46.35432228655305 L 10.539181418274145,46.35443413004238 L 10.539237979867721,46.35445165999174 L 10.539414230099627,46.35452151043745 L 10.539890503160848,46.3547118798452 L 10.539986423659279,46.354753524691915 L 10.541016432908092,46.35523388317044 L 10.541118597174412,46.355286678419304 L 10.541260226241603,46.35536760722729 L 10.541527711336093,46.35552346884219 L 10.542808677560156,46.356280370796405 L 10.542940643774626,46.35637063574292 L 10.543201417702685,46.35655754016215 L 10.543250063882144,46.35666937184286 L 10.543934420978115,46.35886586595272 L 10.54360690955655,46.359301525335475 L 10.542319463181537,46.36061037497895 L 10.54663977780516,46.366425612413956 L 10.562388039764837,46.375520029299686 L 10.56241689617918,46.37553585368246 L 10.566690129886751,46.37777194664465 L 10.567043526296942,46.37792846085762 L 10.56737178926297,46.37789393377975 L 10.570017665275858,46.37712469383178 L 10.570212439328023,46.37706521242131 L 10.578584249110211,46.37675967549993 L 10.598055207982073,46.37738581019146 L 10.607379470468395,46.37929736181832 L 10.60746895009179,46.37937802993572 L 10.607718629878589,46.37967934787159 L 10.609114042350724,46.38206682665926 L 10.609156892543549,46.38222583239933 L 10.609133870059024,46.3823917196146 L 10.613500444437216,46.38792231552696 L 10.621151261346116,46.394986454832036 L 10.62639840752381,46.39903147556599 L 10.629392891930417,46.40087809007826 L 10.630461791644924,46.402550825532785 L 10.62870117255478,46.40764253220962 L 10.624450997270493,46.409210464021506 L 10.621066059818451,46.41374942169827 L 10.619058845987288,46.418139569286176 L 10.617528207998337,46.42370471964041 L 10.616445459618431,46.42779149719094 L 10.616343867003902,46.42825633884426 L 10.616242032922418,46.428779851942224 L 10.616222885415144,46.429068115685126 L 10.616223993258819,46.42927058831797 L 10.616244886914597,46.4296949512868 L 10.616462560566035,46.42996794506304 L 10.61686450459145,46.43021024158076 L 10.617137293636784,46.43037100155562 L 10.617304359540352,46.430516306980344 L 10.61959763004006,46.434509198614585 L 10.619688330648966,46.43482930412766 L 10.619720178193782,46.435030475317795 L 10.619710746254253,46.435206095749756 L 10.61969815162212,46.43543194043757 L 10.619677969959442,46.435630272109286 L 10.619643737094595,46.43585504181746 L 10.61952856570207,46.43630666021156 L 10.617990429187275,46.43937499141182 L 10.616854351623743,46.44162769817197 L 10.616624207777557,46.44203204017791 L 10.616593020046386,46.44251754266265 L 10.616566332106455,46.44299075252641 L 10.616621350839173,46.44363680695277 L 10.616760685051755,46.44389578661157 L 10.617302388393322,46.44440407719978 L 10.617325172179324,46.444424832503756 L 10.618501944241935,46.44546057760336 L 10.61937659819856,46.44614455067144 L 10.621560808138039,46.44778441209274 L 10.621787366597744,46.44793991418868 L 10.621836982320522,46.447960643498355 L 10.62746013413035,46.446943807992426 L 10.638824603331784,46.44607841220805 L 10.639085590503244,46.4462308765942 L 10.639352121833301,46.446314398772586 L 10.639451536661056,46.44634318126791 L 10.639544356730054,46.44636991448308 L 10.639639068059225,46.446397191090824 L 10.639978707966401,46.44648744465367 L 10.645227686809799,46.44782778376929 L 10.666076461478225,46.45200328502327 L 10.66793640570856,46.45228279392153 L 10.668327974276329,46.452313079640305 L 10.66856279745535,46.45232765546206 L 10.669200830946687,46.45232734003022 L 10.684643595663356,46.45147086601842 L 10.689284502226892,46.45375133878669 L 10.689861959286587,46.454524883906785 L 10.691690718041926,46.45580595988004 L 10.695673011908035,46.4582016465523 L 10.695936689140403,46.45830572920219 L 10.696277351492943,46.458372670813155 L 10.69878773857026,46.45869538908738 L 10.69910098537585,46.45871773502405 L 10.71664279946095,46.461623626486805 L 10.71670900873914,46.46207261959293 L 10.716914700042954,46.46307525498429 L 10.718060018287996,46.46486025126298 L 10.71900159387632,46.466223060614475 L 10.719214698458533,46.466372853377685 L 10.722393933974162,46.46847594220249 L 10.727081944114609,46.47119469903674 L 10.736128035467729,46.47848293275564 L 10.738756877872088,46.48125990262565 L 10.739091884379949,46.481551805552236 L 10.742829469567567,46.483951815383186 L 10.743333238352147,46.484223130246065 L 10.744730424047981,46.484847659044064 L 10.744905920879505,46.48491912404639 L 10.74523465455659,46.48501310295506 L 10.757995855095585,46.486243408981245 L 10.762426365138921,46.486018364767325 L 10.764977293405861,46.485957197067485 L 10.77004075456213,46.47895295216609 L 10.777974782726126,46.472152969285034 L 10.781390956389293,46.46707701337524 L 10.78545003282156,46.46016488009561 L 10.78966576310189,46.4532951353998 L 10.78973303108599,46.45318581432098 L 10.789900659523965,46.45291346580179 L 10.790174315100947,46.452522191694776 L 10.790460669720384,46.4521217208933 L 10.791357664147332,46.45099615173288 L 10.791687115964935,46.450608541872185 L 10.797070119658557,46.44483618968581 L 10.797579377985528,46.44448619851307 L 10.798371958357913,46.44404173957368 L 10.799100932702904,46.44364327978473 L 10.800380535227276,46.44296614835808 L 10.800625986159071,46.44290829105957 L 10.801261214038792,46.44282628803539 L 10.804749319582674,46.442402284351104 L 10.805385710621396,46.44235623946931 L 10.807759549094248,46.442197336689645 L 10.80915384987287,46.44213467766401 L 10.809428593049105,46.44217532653796 L 10.80989712835171,46.44256390821349 L 10.810471848162127,46.443013794812785 L 10.810776784494816,46.44317995863385 L 10.811343764496938,46.443395972340795 L 10.811813400332918,46.443424528724435 L 10.81623772177041,46.44296734007344 L 10.821060648722943,46.442245303143416 L 10.822239648224585,46.44180086489893 L 10.826438498702753,46.44044689423967 L 10.835067869112319,46.43884174143596 L 10.838526988027535,46.43911915764618 L 10.839062250118012,46.43916455003071 L 10.839977270368058,46.439275826135706 L 10.840671403953401,46.4393996484778 L 10.84094766981643,46.43948520006537 L 10.8573546914879,46.436924876736164 L 10.861324055865436,46.43613133397988 L 10.865619924574581,46.43804127634798 L 10.874757615951,46.44560464330327 L 10.880623819106578,46.45038118300431 L 10.880744430590799,46.45045621451789 L 10.880903077447428,46.45052560004966 L 10.882816524850192,46.45098864013595 L 10.88363257407096,46.45115551270186 L 10.884454521595922,46.450809114043494 L 10.884959221449835,46.44993744007126 L 10.88540160802596,46.4492005312713 L 10.885873750871673,46.44854476050404 L 10.886408767434283,46.44782495029049 L 10.887158760805342,46.446921589863074 L 10.887274014016606,46.4468656863442 L 10.891462869496754,46.44492369698354 L 10.891965259555647,46.44472719503519 L 10.892223011488484,46.444650924019896 L 10.89677645754138,46.44417948066279 L 10.897458960079861,46.444125787737065 L 10.897646377930815,46.444111042964316 L 10.911694331460223,46.44374201010712 L 10.911994540071294,46.443763992276544 L 10.912465787855377,46.44383711291064 L 10.913044293138537,46.44399842771803 L 10.914617577459994,46.44468307536472 L 10.915148150505846,46.44496218256127 L 10.919372508180219,46.4473572915198 L 10.92332835009451,46.449337806955874 L 10.928967529538875,46.45212770432643 L 10.93220833673365,46.453557956381864 L 10.930978285666521,46.45707066266876 L 10.930899660586004,46.45852995400618 L 10.930916319125322,46.458617299029406 L 10.931775016291553,46.460450131452866 L 10.935227000772311,46.46488265111732 L 10.937180535783412,46.46708152106568 L 10.937298959725064,46.467115511252835 L 10.93761009277377,46.46707424210557 L 10.9385653651065,46.4668330532785 L 10.939120298583479,46.4666886474854 L 10.944239928945743,46.46651588275175 L 10.95577297505576,46.47015790706723 L 10.956234381598833,46.47031201084441 L 10.956563712393107,46.47044096485628 L 10.956694051731784,46.470518287684406 L 10.956764447089865,46.47056393259919 L 10.957165936500132,46.47086305767229 L 10.957556030444122,46.47120737125058 L 10.958109774624132,46.47175587228704 L 10.959650979247506,46.473322433007176 L 10.960315911784534,46.4740144002654 L 10.962692742751377,46.47749115995678 L 10.962802859246192,46.47771001175065 L 10.962839554494652,46.47781082365036 L 10.963479620128995,46.47980859627337 L 10.9637363396338,46.48187413139566 L 10.963782526010165,46.48207134200334 L 10.974538915923466,46.48388169815986 L 10.9751079215353,46.48397320031135 L 10.97574821994617,46.48402513552345 L 10.97866601980004,46.48394478083182 L 10.988512298908145,46.48355185509846 L 10.995375281487151,46.48061535014532 L 11.005358559769554,46.47704485943769 L 11.005596768661977,46.47693801234884 L 11.005858811790745,46.47680406739996 L 11.005980257073565,46.47668641616172 L 11.008821478120886,46.47240131061878 L 11.011186327858928,46.47019445359795 L 11.01927036828851,46.46576148340627 L 11.020487344010565,46.46554842907232 L 11.022632721687929,46.465231361017764 L 11.029201242329986,46.462027402720125 L 11.03047154349248,46.46084248358108 L 11.030655768171771,46.460641217418626 L 11.031006616350268,46.459897826017354 L 11.0310768660091,46.45962433017683 L 11.031535828183952,46.45799175024073 L 11.033787526515457,46.454439755449854 L 11.033825616216125,46.4543989319628 L 11.033920496418741,46.454297327054306 L 11.041239306833052,46.44723618463331 L 11.041382369265168,46.44713735263639 L 11.04145951367626,46.447084114869206 L 11.042083319811223,46.446659719217244 L 11.042418954419281,46.44654708524222 L 11.046046695933088,46.446412104818286 L 11.0471747368792,46.446382639796646 L 11.047310220908455,46.44640304281204 L 11.047505522249113,46.446458788947 L 11.047582296769052,46.446498020648264 L 11.048991594130234,46.44944903707157 L 11.049799033001714,46.44964195590291 L 11.053979823272059,46.4497240526784 L 11.054095013531771,46.44969148323876 L 11.054187646973041,46.44966131697308 L 11.064557137720202,46.4462766023331 L 11.065045036856677,46.44608324675299 L 11.065249234353297,46.44570861795785 L 11.065423466930065,46.44534043319699 L 11.06552223281912,46.44508333610529 L 11.065661528637737,46.444794717837205 L 11.065831264573772,46.4444767450501 L 11.066165042085277,46.44412753135983 L 11.066593834970222,46.44372005434535 L 11.06706909430409,46.443361998341416 L 11.067551746542934,46.44310921382958 L 11.071730051620925,46.44179428172556 L 11.072672047208288,46.44152145755573 L 11.072821381416203,46.4414941801541 L 11.073108435255822,46.44160382771295 L 11.073182261198859,46.44163205730613 L 11.073289942258722,46.44167656664787 L 11.07485361015059,46.44234692835682 L 11.074952389412408,46.44240553769257 L 11.075023245808218,46.44252568052941 L 11.075142482723239,46.44278973787883 L 11.07539513470127,46.44342492439749 L 11.076120293892888,46.445435541699304 L 11.076274786025339,46.44592011731176 L 11.074690576270728,46.45482334150326 L 11.074620714623567,46.45501056559917 L 11.074560879315127,46.455131594211004 L 11.07046026854386,46.46317250975176 L 11.067964969065072,46.4653307493594 L 11.067075080520082,46.467379279946876 L 11.066464793682325,46.46994265981212 L 11.065987922575054,46.47362167183464 L 11.064238597751332,46.479695750347055 L 11.061963198956523,46.48623532081836 L 11.058139199763797,46.48989683665119 L 11.058071716486,46.48996461982755 L 11.058024324312203,46.490012226314235 L 11.056749306210971,46.49135220018029 L 11.0563353499324,46.49185527758169 L 11.056164716733793,46.49210944072509 L 11.055980861248479,46.492423415949354 L 11.055725850736458,46.49285892099537 L 11.055396425592049,46.493435876644504 L 11.049488058455863,46.50436164808671 L 11.049433152677775,46.50452942994751 L 11.049399511428232,46.50467367043143 L 11.049005955067274,46.507041789795494 L 11.034600957085248,46.513778739181355 L 11.034779169332161,46.51408062319779 L 11.044092702415059,46.516815301009615 L 11.044195906519468,46.5168215017693 L 11.044278722765329,46.51682646318708 L 11.04473020414537,46.51684772150685 L 11.050903179680978,46.51660996988945 L 11.053761768312356,46.51640683565846 L 11.064927155839708,46.52259862931761 L 11.066560440571621,46.52406679654372 L 11.066597249995043,46.5240984217008 L 11.066686206268953,46.524174765788125 L 11.080298897447369,46.531077492628825 L 11.080433956034314,46.53111676293837 L 11.080636647267314,46.53117563337357 L 11.080794463718922,46.531197413783566 L 11.081072872023197,46.53123581869131 L 11.082425766291676,46.531374584949226 L 11.08648364305617,46.5209521535025 L 11.086359907401294,46.51548420331611 L 11.088588587549669,46.513091794985804 L 11.088819386615622,46.51282110507888 L 11.088875000473504,46.512683199640875 L 11.08907296093433,46.5118552898572 L 11.089091505124744,46.51146648536058 L 11.088945894176481,46.51067996653329 L 11.088824381589651,46.51037765788112 L 11.0885335746144,46.50984007715647 L 11.08842440744213,46.509457844392564 L 11.088302099778906,46.50894962685483 L 11.088284597384744,46.50880349741218 L 11.088231936962806,46.50836316788125 L 11.088209556582632,46.5078058515204 L 11.08823693443944,46.506735181153054 L 11.0883366294255,46.50433368376712 L 11.088361076015484,46.50392487516094 L 11.088388447690283,46.50373773801704 L 11.088405355405076,46.50362251453848 L 11.088475849360352,46.50314294937779 L 11.08849113273517,46.50304078913743 L 11.08928041705073,46.50203309513211 L 11.089447396892556,46.501847885667736 L 11.103914053945164,46.49635834874336 L 11.108989648708002,46.49716060666739 L 11.109512917854364,46.49738044524346 L 11.109946745255282,46.49748957590845 L 11.11049875737403,46.4975962443565 L 11.110850035336084,46.49761653489799 L 11.111101586582024,46.497598620018536 L 11.111326179915721,46.49750897125797 L 11.122195613462335,46.49082784182343 L 11.122459328810782,46.4906564665581 L 11.125475406080291,46.4867170144341 L 11.1274607815603,46.484002634576804 L 11.129678620462217,46.48162936049757 L 11.15029350352775,46.48560043184896 L 11.150705500195448,46.485682681998895 L 11.151008149205536,46.48575798095352 L 11.153464247997626,46.48637773284069 L 11.15376145247963,46.48645344385635 L 11.154928700316175,46.48675513518491 L 11.155508500980693,46.48691969680839 L 11.160011185447814,46.4886706756868 L 11.160145364932825,46.48872664163751 L 11.160442723045294,46.48891451789008 L 11.160513550830363,46.48902098108663 L 11.160866495771533,46.4895814958333 L 11.16134759635026,46.49058065718848 L 11.172890086855181,46.49735812780164 L 11.175271193128813,46.49774116823366 L 11.17567901693588,46.49783690402484 L 11.176319265323366,46.498000219626554 L 11.178391650337415,46.49869873507516 L 11.178606245782781,46.498771139648134 L 11.178890277689678,46.49898199687011 L 11.179069253413461,46.499120513105595 L 11.179135387434647,46.499187025343026 L 11.179171648532934,46.49922443161342 L 11.179515597286118,46.4996077008401 L 11.18298565309394,46.5036692199927 L 11.187084975607835,46.508728587849255 L 11.18983831115406,46.50687296091178 L 11.198256781971411,46.50225400471894 L 11.208304419503278,46.49584339002066 L 11.208695405864681,46.49557387604721 L 11.208909755980608,46.495386202433416 L 11.209095080484653,46.495216126986655 L 11.209422071680574,46.49490560598978 L 11.209465177156144,46.49486275058806 L 11.209617804565458,46.49469965560822 L 11.210019644120658,46.49415428179078 L 11.210093585233823,46.49404934720868 L 11.21017568396675,46.49391554607404 L 11.21025561404601,46.49378522116749 L 11.210487007020557,46.49314625674894 L 11.213025321087333,46.480272368354456 L 11.213060304582447,46.48001068703759 L 11.212987606326614,46.47974635353979 L 11.21223996435644,46.477388264820306 L 11.215016538703264,46.47717906276624 L 11.216633317055377,46.47508154400439 L 11.216857667276388,46.4747872014947 L 11.217144525797185,46.474304798634705 L 11.217740739071948,46.473110588660134 L 11.21785529982017,46.47285737329461 L 11.21881807339333,46.46914423701159 L 11.220355842602778,46.462679463917915 L 11.220421332791918,46.46204820616549 L 11.220402934674853,46.46023508484534 L 11.2203202410186,46.45988119641885 L 11.220158144626948,46.45948807663424 L 11.220031205673655,46.45918031881837 L 11.219095953788795,46.45719599816995 L 11.218663641559536,46.45669139625535 L 11.218540865032114,46.456551914510236 L 11.218438821951867,46.45644825960856 L 11.218306837776689,46.45632482141916 L 11.21817964050857,46.45623729902433 L 11.217986751655427,46.45617804103914 L 11.217694118355796,46.45610721423643 L 11.21317521367349,46.45538030530956 L 11.21277157288864,46.45533865983489 L 11.2123704689787,46.45535816534998 L 11.212957197678113,46.45054744379551 L 11.215821576190661,46.44893371857441 L 11.216971010355234,46.44369050993111 L 11.217761102786492,46.441882286531296 L 11.216492522231217,46.43766119629031 L 11.212448742233049,46.433008729415555 L 11.211996628138564,46.43292718208871 L 11.21129301848836,46.432732186241104 L 11.21037922609874,46.432313897240256 L 11.210250117366861,46.43224078206707 L 11.210202125432339,46.43220951523716 L 11.208019029361608,46.43063159740312 L 11.207724442619575,46.430412136261744 L 11.207656140092393,46.430360975543266 L 11.207621244203281,46.43033482769977 L 11.207568875779195,46.4302955433894 L 11.205031444901696,46.426818870995646 L 11.205031588358326,46.42669773191101 L 11.205096817339657,46.42648018578124 L 11.205161041290893,46.42633200665196 L 11.205243915910419,46.426208606467 L 11.205366509641696,46.426085195935165 L 11.205485770532748,46.42600516024775 L 11.206966681594531,46.425230379602716 L 11.207321047329922,46.42506308005109 L 11.207470170279098,46.424992688729645 L 11.20871929726668,46.42411958455737 L 11.21092931671098,46.4222887587268 L 11.211008845338709,46.42220874857465 L 11.211758020070693,46.42091959666261 L 11.211843751602693,46.42064944250334 L 11.211834746388107,46.420085280469365 L 11.211806266223526,46.419954501673175 L 11.21175558543595,46.41972186286766 L 11.211666299910819,46.41945672854777 L 11.211608518007097,46.419368260448586 L 11.211441408122544,46.41915500556647 L 11.209101857493438,46.41648494622899 L 11.207847804789912,46.41644617573846 L 11.207632640484324,46.41650559414484 L 11.207532345180917,46.416533331420105 L 11.20721182465583,46.416644104571226 L 11.209135282194776,46.41485530925261 L 11.209394354626248,46.41337881089663 L 11.209425176141913,46.41328218141867 L 11.209467751805791,46.41314875047938 L 11.209538371232643,46.41293062821746 L 11.209564010464316,46.41289115085497 L 11.209632287982163,46.4127866638725 L 11.209832974400326,46.412552086048876 L 11.21185468558788,46.41042874194966 L 11.212522964021531,46.40974081274263 L 11.2129893138728,46.409286286866546 L 11.21314075265793,46.409153130910546 L 11.213783016879615,46.408481627848985 L 11.214125362921171,46.40810329441294 L 11.215231063116049,46.40681287463596 L 11.215078085795234,46.40444007643036 L 11.214187254298217,46.398463136477574 L 11.212378361324207,46.393498680036764 L 11.2123606050318,46.39346239354743 L 11.212312766372742,46.393364942714115 L 11.209980325756781,46.3896210527191 L 11.20836088021369,46.388185377221035 L 11.206812617479693,46.38752678954136 L 11.206526504869595,46.38423664980746 L 11.201725109782927,46.37453891208731 L 11.202834314163553,46.36966653500484 L 11.205636448599352,46.36716907832983 L 11.202935504893825,46.3658395772182 L 11.202115289988374,46.36544588920196 L 11.201850411573327,46.365324991985915 L 11.201619248838943,46.365275441733495 L 11.200768932924388,46.3651028167076 L 11.200370555048998,46.36503447918415 L 11.20018001541965,46.365006158158074 L 11.199477262621773,46.36490717905967 L 11.197864591089889,46.36477170300826 L 11.197698198564742,46.36476590510456 L 11.197586347458966,46.36477147662119 L 11.197549047797398,46.364773886680524 L 11.197417935530591,46.36481628945847 L 11.197087864051944,46.36501613540746 L 11.19684681711355,46.36516477344244 L 11.196528395090157,46.3653688911877 L 11.194655583292242,46.36526986901567 L 11.194324147751317,46.36519072994955 L 11.193756860612963,46.36502576157168 L 11.193706189048381,46.365004075524105 L 11.193588104283416,46.36492552477192 L 11.193166912125916,46.36457843837744 L 11.19305653912032,46.36445905426314 L 11.192982032847643,46.36430298339305 L 11.19262416649963,46.36323457762333 L 11.191564945796683,46.359794164116146 L 11.191555943777605,46.35965033183534 L 11.191853331420928,46.359001529412716 L 11.192877227811682,46.35592085780534 L 11.196268626337027,46.353507313401934 L 11.198966837838357,46.349558463459445 L 11.203562204232139,46.34237104010292 L 11.203574120337171,46.342323823501786 L 11.203612231428922,46.34209796452822 L 11.203554599393524,46.34183804555164 L 11.203458537718065,46.341668921609354 L 11.197341428748755,46.331706636435314 L 11.197143060291443,46.33141794974038 L 11.195479285860161,46.32954166146022 L 11.195124928926454,46.32924271756833 L 11.194860428448258,46.32904529820318 L 11.19460801434563,46.32890614064112 L 11.194503931745004,46.32885801749072 L 11.184138197310991,46.315368107255544 L 11.178619413697575,46.30706708240606 L 11.169642783790326,46.299394561329706 L 11.16287818198736,46.29117069347117 L 11.159249735895264,46.28965079552079 L 11.15887754282925,46.28952940536094 L 11.158649673145032,46.289455123788656 L 11.158436542751556,46.28939232210887 L 11.158062136503757,46.28928621467344 L 11.157709322908246,46.289270383123615 L 11.15238406464305,46.28941579704768 L 11.143671665425247,46.28839154029066 L 11.141310256141598,46.28634778785507 L 11.141079866322402,46.28614238333535 L 11.140891245564527,46.285973199188625 L 11.140612736833903,46.28565387548092 L 11.13908251873291,46.28389647766995 L 11.139001551883672,46.28373094095936 L 11.138953644715295,46.28363290593361 L 11.138810635416224,46.28333005903521 L 11.13885227024688,46.28331578499072 L 11.14581838739649,46.28171460729052 L 11.14966376139462,46.279977831747836 L 11.149775735283557,46.27991576180173 L 11.149969266732226,46.27980221098641 L 11.150189264950884,46.279615501650014 L 11.150668919731153,46.27903764513056 L 11.152773745589725,46.27563028364947 L 11.15581812016084,46.271557846190966 L 11.159833070003119,46.268124987843954 L 11.167137016413971,46.26214515633165 L 11.174624253581742,46.25925503338531 L 11.174896501942303,46.25922344489617 L 11.190950800491882,46.25747497366273 L 11.191535935673011,46.25748293151905 L 11.191637201475519,46.25748431505095 L 11.19294724804817,46.25751317733875 L 11.193514216080638,46.25757880237195 L 11.194157270384663,46.25771945300194 L 11.198283005002128,46.258927191074484 L 11.20161603895891,46.256297982933184 L 11.20237839202023,46.25560463313254 L 11.199532417959658,46.25383155643739 L 11.188240956728125,46.252756814032004 L 11.187966184787404,46.25278007024177 L 11.187319922613385,46.25280144838375 L 11.187083034535057,46.2527969757731 L 11.18641593364322,46.25277810620638 L 11.186132827759156,46.25272065584391 L 11.185898422947432,46.25261714071161 L 11.185557453728888,46.25244365691053 L 11.185352113227491,46.25233084287721 L 11.185066773284134,46.25217404132201 L 11.184546146125069,46.251886983945056 L 11.184271923035551,46.25172067875539 L 11.184107367483657,46.25162087125881 L 11.183588207519632,46.25128878304016 L 11.183517216654044,46.25120660661521 L 11.183450563253732,46.25112943329812 L 11.182707423399407,46.2501805912818 L 11.182513620702238,46.24987378497916 L 11.182417663097292,46.249714866338685 L 11.182288048944592,46.249500093218785 L 11.182161827835529,46.24929017917908 L 11.182055321543876,46.24911302288884 L 11.176171107231982,46.23855553405894 L 11.174591895908733,46.23494815943821 L 11.174638171751425,46.23266729683924 L 11.176059599237211,46.231441035069004 L 11.183654656017815,46.22579782323266 L 11.2016509380793,46.222884043927095 L 11.206429184384845,46.219772403066244 L 11.239472203308344,46.22838180079026 L 11.248945235682529,46.23281736286569 L 11.25886488978535,46.24007836499205 L 11.275163985253158,46.25190075523937 L 11.289315293165794,46.26066780508499 L 11.29012861471508,46.26116950725568 L 11.290212639050216,46.26122133693355 L 11.29080846570748,46.26154689497258 L 11.292089087278132,46.26137271691093 L 11.305616489355062,46.25876708914908 L 11.307783074046563,46.262979001357465 L 11.310136724923979,46.26670739056941 L 11.311637018025536,46.26835295628346 L 11.313833181917149,46.270561334442455 L 11.315767056857839,46.27302053523727 L 11.315851219478647,46.27327252905804 L 11.315776872474412,46.27352856405282 L 11.314105476319545,46.27907915379715 L 11.31393960636462,46.27920673995784 L 11.312815114353896,46.28001090237403 L 11.312384013196265,46.28030014546432 L 11.310880410523193,46.281281055448005 L 11.323231957274437,46.29261844201834 L 11.330973132354641,46.29386363976065 L 11.332315763931422,46.29537848410411 L 11.332207846678525,46.295938261009226 L 11.332142065023522,46.29641400878915 L 11.332130479215532,46.29650908578491 L 11.332140097427812,46.29657436508843 L 11.333469711381305,46.29762047939699 L 11.333547305104858,46.29766442519329 L 11.333699560627043,46.29770297348434 L 11.33378367320856,46.29772425758709 L 11.338070028432348,46.298710647157684 L 11.338250925889557,46.29873282062242 L 11.338791705076199,46.298798760138794 L 11.339363776581852,46.29827806943878 L 11.340338555718079,46.29788177522349 L 11.338719869998199,46.29622878076086 L 11.338634740243778,46.29611983299098 L 11.338610825634749,46.29608874066419 L 11.338517788739875,46.2959677791397 L 11.338239298294154,46.29544490542075 L 11.336597202559878,46.291465496244356 L 11.336320733416022,46.28963041433841 L 11.338522449882142,46.286379395422934 L 11.33896220425043,46.28573138523176 L 11.339231468610931,46.28534786527948 L 11.340479198808994,46.28358729204429 L 11.341551780201701,46.28222229128115 L 11.341925161298871,46.28184562878015 L 11.343706676596259,46.28070208025737 L 11.343959843646603,46.2805478447475 L 11.34444048547851,46.28025502401625 L 11.346064998991814,46.27999668091851 L 11.346575024122933,46.2800852095869 L 11.347386019302798,46.280230554626286 L 11.354314937072488,46.277401358329456 L 11.356146047926835,46.27644688355789 L 11.356203278953899,46.27641384627437 L 11.356292439025802,46.27628620250613 L 11.356428474128593,46.27605388681095 L 11.357163203319319,46.2741464393377 L 11.35724738587414,46.27387721474401 L 11.35728128655878,46.271416030735274 L 11.358780819600133,46.265667625144474 L 11.359537304176417,46.26545400522812 L 11.370232327350855,46.2624531982796 L 11.371840407135645,46.263651602347004 L 11.372089613385567,46.26375433890748 L 11.372380372433467,46.26387367544301 L 11.372801332437493,46.2639464584267 L 11.373545141970393,46.26398639838677 L 11.373617674157362,46.263990292815215 L 11.373678228816745,46.263980125591516 L 11.373909240675006,46.26393489475504 L 11.3742594444679,46.263862572158075 L 11.374761047893534,46.263689605055006 L 11.375014913526082,46.26355832614866 L 11.376190587634461,46.26281557446439 L 11.387249954683773,46.26142232301328 L 11.38772896022358,46.2613667761257 L 11.387818038520814,46.26135644997028 L 11.388419870037769,46.261469874046 L 11.39762389425282,46.26483220764218 L 11.397104309446165,46.267201154187774 L 11.396949394903928,46.26779769117324 L 11.396857915719773,46.268148135236025 L 11.396366230349209,46.26961968648064 L 11.394678160597586,46.27376816724325 L 11.39436100013843,46.27423381987647 L 11.393978989346584,46.27470083923237 L 11.393506212509132,46.275169750390155 L 11.390870605426002,46.2775379702482 L 11.38970798736839,46.278561306941086 L 11.389676110517458,46.278583482349994 L 11.389027637659272,46.27903454886562 L 11.386782247874235,46.280102891674 L 11.384781163173978,46.28676439079255 L 11.384647067085654,46.28696519970063 L 11.384132765772463,46.287677945443676 L 11.382765582572624,46.28938048973893 L 11.38149624796134,46.290945977251134 L 11.381284714933928,46.29115738435147 L 11.381019861015302,46.29135829446925 L 11.380869901625331,46.29147203800265 L 11.380258190061225,46.29173678661162 L 11.379943084695647,46.29183478650474 L 11.37966889711341,46.29192005945587 L 11.37909101236826,46.2920670926421 L 11.377893992062136,46.292308014453404 L 11.37723672012748,46.292420690147964 L 11.374812797211286,46.29281309921116 L 11.373600051129488,46.29299130026524 L 11.371781486244798,46.29327205793084 L 11.370623323958853,46.29351209684857 L 11.368875000932809,46.29388425930879 L 11.366327056005826,46.294447162093306 L 11.36468056101347,46.29481184951123 L 11.360745361119847,46.29568762665992 L 11.359549707076496,46.295964325631125 L 11.359499116178574,46.295977171290104 L 11.359180456724037,46.29605818028175 L 11.359096797960746,46.296079481012555 L 11.358932157216136,46.296122495945674 L 11.359074510105314,46.29850317781277 L 11.35914698462786,46.299077560955155 L 11.359157770116754,46.299116421704724 L 11.359533727051478,46.29960449563462 L 11.360218736710216,46.30035157662416 L 11.360746371260344,46.300844687719334 L 11.36107497336482,46.3009368994265 L 11.363583584597068,46.30159604976327 L 11.36368442366416,46.30161652038909 L 11.364146890400182,46.30171040045194 L 11.36824862502669,46.301670475234715 L 11.368702333027974,46.30165206436764 L 11.371514877855908,46.30148990728377 L 11.372264365785277,46.30144317530276 L 11.37634328217821,46.301074393247156 L 11.376919792656668,46.30099543012949 L 11.377502060538095,46.30094731854356 L 11.378139323424385,46.30097005762252 L 11.378979656871012,46.30109243008306 L 11.379707486407987,46.30119841518119 L 11.381503447538579,46.301566325245716 L 11.384890734028497,46.302440379783405 L 11.38534201800717,46.30266497079906 L 11.38600101665392,46.3030419367708 L 11.386953726700561,46.30359433104297 L 11.395783177338956,46.30996709639866 L 11.397291726953735,46.314916101145904 L 11.397677009290662,46.31559095503815 L 11.397751554848556,46.31571475023037 L 11.40425138703762,46.32497403020492 L 11.410115152993596,46.32445651858726 L 11.41222834829898,46.32435792836703 L 11.420498383889537,46.32541608085091 L 11.421037282342384,46.325557669507404 L 11.454471643923158,46.334726578876385 L 11.454779862657098,46.33493596402116 L 11.456141437851622,46.336904740604226 L 11.458709088013489,46.340845572510396 L 11.45918906865433,46.34227526335644 L 11.459274594002906,46.344181450590945 L 11.45932500652204,46.345305694174805 L 11.459321804813388,46.3453344664464 L 11.459243576088628,46.346075016851294 L 11.459233919833842,46.34617135014662 L 11.461157692510202,46.34912409820558 L 11.461417252496933,46.34938108270599 L 11.461852752466717,46.34976406453794 L 11.462068062657934,46.34995337264709 L 11.462550052602941,46.350266990299126 L 11.46380496410285,46.35100495076427 L 11.464079114946085,46.35114736282281 L 11.46453693091305,46.351385179035816 L 11.464989329112484,46.35161841938099 L 11.468156404219155,46.35181106369483 L 11.469210213422883,46.351833304811976 L 11.470288783150611,46.35182799056091 L 11.471379314385345,46.351798812588484 L 11.47261105409731,46.35173277159942 L 11.473828800868075,46.352219422152736 L 11.475974614829259,46.35310896084759 L 11.476465236001754,46.35332333179301 L 11.476931100647375,46.35356524042927 L 11.476983964568863,46.35361341469323 L 11.47743269229411,46.35402237682737 L 11.479155884990027,46.35562302385266 L 11.479555663865176,46.356127356742455 L 11.47822769068409,46.362402231892936 L 11.477984674129555,46.36288796344053 L 11.477685948350224,46.36325302834831 L 11.47689681459508,46.3639314013008 L 11.496841429923576,46.36063805585592 L 11.498979181996857,46.360670713939086 L 11.501209524257348,46.36060760385744 L 11.501298484808292,46.36059204042596 L 11.501619988313495,46.36053563718624 L 11.512003988489413,46.35864550262752 L 11.525991054838817,46.35593839942373 L 11.52604540732147,46.354157080602754 L 11.535259011320369,46.35276138806968 L 11.53926979769506,46.351045043755946 L 11.53993961691309,46.35063415577577 L 11.542260674302232,46.34912435305697 L 11.542832886553212,46.34856277876511 L 11.543205692014809,46.34819447904153 L 11.545566486472532,46.34557687588909 L 11.557246492130922,46.35094542406965 L 11.556745081656526,46.35286042731924 L 11.556681864394257,46.358441100614876 L 11.556700938139077,46.35857387044304 L 11.559053555627672,46.36854061104499 L 11.562391905921032,46.378972160855376 L 11.563165343009763,46.38022808730693 L 11.563355711572436,46.38049173174648 L 11.563433577560177,46.38059700346004 L 11.56351004106535,46.38070034004287 L 11.563667883080495,46.38085408351287 L 11.564207895862813,46.381283357051494 L 11.564323251304648,46.38135230111245 L 11.564560845029751,46.381455878795606 L 11.564832113924902,46.38157279807457 L 11.57216843861578,46.38140705628417 L 11.57619695827896,46.38147596134586 L 11.576637943676845,46.38150626105163 L 11.576830594093446,46.3815211515475 L 11.577170626909615,46.38159098346413 L 11.577518101551185,46.38169692891285 L 11.583004975266059,46.382717304814754 L 11.588647929643008,46.38351663117678 L 11.589328158584793,46.38360022178718 L 11.590670940440422,46.38366878876264 L 11.591556899363786,46.38370269586369 L 11.592128510305667,46.383689730991854 L 11.592575134540246,46.383643130087115 L 11.59302307740054,46.38387971857323 L 11.594516587235903,46.38464463497835 L 11.59458423833361,46.38468109689833 L 11.599322397225087,46.38732717170966 L 11.599818457799127,46.387773342975656 L 11.599940223946973,46.3878918212999 L 11.600208732879565,46.38815311544104 L 11.600972722242547,46.38893790522726 L 11.601329220040144,46.38931704665565 L 11.601723527874963,46.38978688940057 L 11.602651109940265,46.40048866084377 L 11.60798372384103,46.41019268243469 L 11.619359830085568,46.42521512447995 L 11.618319308668775,46.43801799353306 L 11.618049758590145,46.44088844878906 L 11.617767246072168,46.44409506327523 L 11.622117778074761,46.45655227413361 L 11.626085413072753,46.461036163914635 L 11.627487606869845,46.46256382313528 L 11.627520572394939,46.462608680435814 L 11.627786763194035,46.46297111781629 L 11.628031939905174,46.463345286061056 L 11.628222682642637,46.46363716849905 L 11.628304436400072,46.46377335884879 L 11.628305075328567,46.463955413184976 L 11.627990203586938,46.46706865151946 L 11.62784628477581,46.46779179510543 L 11.627214090572778,46.46840713604226 L 11.62698162451559,46.46862966289101 L 11.626857389748677,46.46874854185227 L 11.626495057070501,46.46902255735258 L 11.626133157297186,46.46940894840919 L 11.625754995809215,46.46981408912853 L 11.624977717129216,46.47078618063791 L 11.624828982204672,46.47099700137652 L 11.624761688265473,46.471092949453 L 11.625359152360872,46.47141789758825 L 11.625820742687083,46.47164939609816 L 11.626341999120262,46.47189204533946 L 11.635247657326586,46.47449585657408 L 11.636462930190314,46.474770969300195 L 11.64273488448889,46.47594015941115 L 11.643132410623776,46.4749356973816 L 11.644577712775892,46.47282061092331 L 11.644857739929403,46.47378651163448 L 11.647244349772052,46.48137865331656 L 11.647468345113484,46.48183524975996 L 11.647832415315829,46.48205555033568 L 11.648065135808395,46.482166401078416 L 11.648310498105664,46.48228321348236 L 11.648967422458776,46.482495531146995 L 11.650061364804117,46.482870751396455 L 11.650133183838657,46.4829414422686 L 11.65026006941203,46.48306648929379 L 11.650062069616135,46.483752174836546 L 11.648815015958986,46.48496318650867 L 11.648044198326344,46.48565348090348 L 11.647916817880429,46.48576742526251 L 11.647029158903011,46.4862297171863 L 11.645188762687154,46.48715441913044 L 11.64464195009366,46.48740259967029 L 11.643626617727639,46.48760814825727 L 11.642424112948277,46.49191256997213 L 11.64228991078306,46.49229483484811 L 11.641949478174489,46.49264004780001 L 11.633941693949074,46.496541727539444 L 11.632807729886936,46.499288427556834 L 11.63667328888191,46.50057502389126 L 11.645019738047296,46.498571595332514 L 11.645211565813272,46.498537081579116 L 11.645545131523404,46.49847712260158 L 11.652721967676372,46.49767795805109 L 11.653536960178512,46.4976424409105 L 11.666093555018744,46.49740494735665 L 11.666855684598172,46.497522096705964 L 11.667402977050331,46.497731846062045 L 11.667906960137381,46.49796556644851 L 11.668137930933682,46.49815817453543 L 11.669821622515908,46.499127116800274 L 11.674794769306581,46.50040322406864 L 11.675395086052811,46.500525739251366 L 11.677482663988854,46.50095078629224 L 11.689880560964443,46.50332761773668 L 11.695090987813263,46.50365534825794 L 11.706386750361366,46.510443705964384 L 11.707013341656783,46.51074187640536 L 11.714809420376355,46.513507280468566 L 11.715831629694499,46.5138472237901 L 11.719719841221306,46.51024350367036 L 11.733484193285284,46.509194846450356 L 11.743592720137915,46.504953487805295 L 11.753570748447276,46.506385509159585 L 11.762909636424927,46.5075512535696 L 11.774640249404351,46.509194731081884 L 11.785041159376666,46.511300125578785 L 11.790427262789175,46.514006888773835 L 11.793619459575153,46.521312114103374 L 11.80076273356002,46.52766527444111 L 11.801936103718536,46.52853543181447 L 11.802737601754854,46.529063405642376 L 11.803234164292835,46.52939045268341 L 11.805204980872674,46.53043156449011 L 11.806172368671648,46.53091332865983 L 11.807240792697971,46.53143141328744 L 11.808190853278147,46.53187528703205 L 11.811184716862723,46.53276429012237 L 11.811565143645272,46.532644950182906 L 11.811615482113911,46.5326075568354 L 11.811864207432405,46.53242212076314 L 11.814722669259048,46.52901971435149 L 11.817968742238119,46.52785774173851 L 11.81829367044717,46.52773750824141 L 11.81862360478141,46.52750878848329 L 11.818759966392136,46.527404670643364 L 11.819050759756156,46.52718263175961 L 11.821215677867327,46.525409353074245 L 11.822434983734823,46.524363975528956 L 11.824304886862258,46.522757197272576 L 11.825489045433265,46.52178516237192 L 11.825530560685994,46.51958888127534 L 11.825521666261613,46.519367952656616 L 11.825507011056187,46.519005266460596 L 11.82544012881546,46.51845167972274 L 11.825350582260208,46.518093098431244 L 11.825258920250482,46.517726107457634 L 11.825116381757509,46.517232466401474 L 11.825077004729355,46.517107331264356 L 11.824974004370787,46.51678001100173 L 11.824894591150782,46.51649759324758 L 11.82477105544921,46.516058217913105 L 11.824720541630555,46.5138509132164 L 11.824870727792065,46.5133829941454 L 11.825047916525076,46.51310160591283 L 11.825134875249478,46.512963546847224 L 11.826765502160672,46.51088424560099 L 11.828312400847022,46.50891394674888 L 11.824080629405485,46.50407690217731 z" /></g></g></svg>