<svg xmlns="http://www.w3.org/2000/svg" xmlns:xlink="http://www.w3.org/1999/xlink" width="300" height="300" viewBox="661849.8522484417 5101823.835611518 4320.0 4320.0" preserveAspectRatio="xMinYMin meet"><g transform="matrix(1,0,0,-1,0,10207967.671223035)"><path fill-rule="evenodd" fill="#66cc99" stroke="#555555" stroke-width="28.8" opacity="0.6" d="M 666009.8522484417,5103983.835611518 L 666000.221701786,5103787.801330859 L 665971.4228092481,5103593.654967485 L 665923.732919906,5103403.266257009 L 665857.6113134642,5103218.468746787 L 665773.6947771384,5103041.042137866 L 665672.7914730468,5102872.6951454785 L 665555.8731551671,5102715.049043191 L 665424.0658108147,5102569.6220491445 L 665278.638816769,5102437.814704792 L 665120.9927144808,5102320.896386912 L 664952.6457220936,5102219.99308282 L 664775.2191131718,5102136.076546495 L 664590.4216029505,5102069.954940053 L 664400.032892474,5102022.265050711 L 664205.8865291008,5101993.466158173 L 664009.8522484417,5101983.835611518 L 663813.8179677825,5101993.466158173 L 663619.6716044095,5102022.265050711 L 663429.2828939328,5102069.954940053 L 663244.4853837115,5102136.076546495 L 663067.0587747897,5102219.99308282 L 662898.7117824025,5102320.896386912 L 662741.0656801143,5102437.814704792 L 662595.6386860686,5102569.6220491445 L 662463.8313417162,5102715.049043191 L 662346.9130238366,5102872.6951454785 L 662246.0097197449,5103041.042137866 L 662162.0931834191,5103218.468746787 L 662095.9715769773,5103403.266257009 L 662048.2816876352,5103593.654967485 L 662019.4827950973,5103787.801330859 L 662009.8522484417,5103983.835611518 L 662019.4827950973,5104179.869892176 L 662048.2816876352,5104374.01625555 L 662095.9715769773,5104564.404966027 L 662162.0931834191,5104749.202476248 L 662246.0097197449,5104926.629085169 L 662346.9130238366,5105094.976077557 L 662463.8313417162,5105252.622179844 L 662595.6386860686,5105398.049173891 L 662741.0656801143,5105529.856518243 L 662898.7117824025,5105646.774836123 L 663067.0587747897,5105747.678140215 L 663244.4853837115,5105831.59467654 L 663429.2828939328,5105897.716282982 L 663619.6716044093,5105945.406172324 L 663813.8179677825,5105974.205064862 L 664009.8522484417,5105983.835611518 L 664205.8865291008,5105974.205064862 L 664400.0328924739,5105945.406172324 L 664590.4216029505,5105897.716282982 L 664775.2191131718,5105831.59467654 L 664952.6457220936,5105747.678140215 L 665120.9927144808,5105646.774836123 L 665278.638816769,5105529.856518243 L 665424.0658108147,5105398.049173891 L 665555.8731551671,5105252.622179844 L 665672.7914730468,5105094.976077557 L 665773.6947771384,5104926.629085169 L 665857.6113134642,5104749.202476248 L 665923.732919906,5104564.404966027 L 665971.4228092481,5104374.01625555 L 666000.221701786,5104179.869892176 L 666009.8522484417,5103983.835611518 z" /></g></svg>