<svg xmlns="http://www.w3.org/2000/svg" xmlns:xlink="http://www.w3.org/1999/xlink" width="100.0" height="100.0" viewBox="10.90375786492534 45.89287747001402 0.44728389909663413 0.3551296353918971" preserveAspectRatio="xMinYMin meet"><g transform="matrix(1,0,0,-1,0,92.14088457541993)"><g><path fill-rule="evenodd" fill="#66cc99" stroke="#555555" stroke-width="0.008945677981932682" opacity="0.6" d="M 11.055129051371837,45.960537227830194 L 11.055846397774257,45.95998491188298 L 11.05666166797519,45.95920813925624 L 11.05775236885016,45.958147488146004 L 11.057566972947265,45.95292989209039 L 11.057031185306812,45.95177864332805 L 11.054186988859385,45.94962478432809 L 11.053152350033116,45.94934476726263 L 11.052835835946677,45.949302677716744 L 11.052116653779754,45.94925198778232 L 11.051655343197522,45.949179535809904 L 11.049799795490204,45.948541642630666 L 11.04348873952412,45.94622270585424 L 11.037258870063042,45.940855492218674 L 11.034867616638554,45.927282763766854 L 11.041148369314856,45.91853378213961 L 11.042520467901388,45.91707369634423 L 11.033599748257844,45.909443540350935 L 11.030834262285236,45.91075877247478 L 11.027149851026419,45.91344273009245 L 11.02760501497772,45.91454724313975 L 11.026669159554578,45.91538665191156 L 11.026579168118804,45.91545070133078 L 11.026538958148787,45.915479303218405 L 11.024727733108934,45.91671284284834 L 11.024328149234492,45.91687463424842 L 11.023005602760376,45.917385255744485 L 11.017875633651398,45.91670225852179 L 11.008857316738894,45.916929344077246 L 11.004634606380048,45.918248006043065 L 10.998558870112863,45.92063450507911 L 10.99802475725508,45.920934779752095 L 10.997603079447943,45.92104543596897 L 10.996717273953395,45.92124744941082 L 10.994023083701675,45.92182299043855 L 10.993371844052213,45.92188565480155 L 10.983593474983714,45.92158514553701 L 10.983186735169289,45.92074430098123 L 10.982882761159528,45.920073412239766 L 10.978971825019382,45.920576385545665 L 10.974268796568417,45.92318395674724 L 10.976761720103296,45.926012914241426 L 10.982547619697502,45.93370260085439 L 10.98391165632576,45.93545063715463 L 10.984682512192487,45.93624983433371 L 10.988228902896262,45.94152117881359 L 10.984429230459005,45.947276294436065 L 10.983911276948689,45.948043628159745 L 10.974878828330013,45.95853082359522 L 10.970871356790575,45.96269550676867 L 10.966440275541187,45.96716097747386 L 10.953351951180403,45.97194266262589 L 10.946174345031077,45.97518345914697 L 10.951865440092892,45.97862990626238 L 10.951886629363923,45.97875361681572 L 10.947060308617989,45.98433930971105 L 10.942469997051276,45.991746617050325 L 10.942617467751692,45.99286369168295 L 10.94323180879981,45.994329944122235 L 10.94711706153263,46.000307877596974 L 10.951540819248216,46.00696796716202 L 10.95227080410805,46.007864606227095 L 10.9531377945435,46.00894258255458 L 10.953710188499269,46.009803897090556 L 10.953916338860592,46.010181471916944 L 10.955818891182986,46.01532789964372 L 10.955999111746888,46.01587026072589 L 10.955670750549766,46.01676959998211 L 10.95466363638009,46.0183595305142 L 10.954187658117512,46.01879127678948 L 10.953272706468615,46.019534874985325 L 10.952475754266723,46.0198821880557 L 10.952447583729954,46.019789988708226 L 10.948708072788541,46.02174208095903 L 10.948257740536988,46.02200820849356 L 10.947734718835436,46.02244976532735 L 10.950262715001518,46.02573806429701 L 10.953557629211094,46.026429811926185 L 10.955959420214826,46.03230813404425 L 10.954446548154623,46.0327908623691 L 10.948149191335254,46.0346147905109 L 10.945827656511186,46.035238636997924 L 10.944134613271775,46.03565550875752 L 10.940730873701979,46.03688380600082 L 10.93991003876262,46.03822522297827 L 10.933435974824933,46.0487900303657 L 10.931812369759637,46.049563046020474 L 10.929770165494846,46.050951168682644 L 10.926301259987152,46.05332926966302 L 10.920999554988203,46.06178855160072 L 10.920432934344209,46.062748081792655 L 10.920323935262253,46.062934757358 L 10.9204109203992,46.064169966379716 L 10.920437277446789,46.06423742887262 L 10.920807394018004,46.06433988654762 L 10.92148901182096,46.06447719633232 L 10.92218829449303,46.064423738790346 L 10.928010735929359,46.062275436033424 L 10.928328830423098,46.06215313074941 L 10.928572403295906,46.061937023548026 L 10.930332408131328,46.055570968846965 L 10.932185603585056,46.058275379114804 L 10.931668845304237,46.06161854670262 L 10.9313170185726,46.06417577010344 L 10.93178692641133,46.064508057523 L 10.932540077659969,46.065025502032434 L 10.933347084560893,46.065539485843175 L 10.93471106087863,46.0663075494121 L 10.93889948999116,46.069155445361744 L 10.944229557937957,46.07298346501241 L 10.944608233328232,46.073303979772376 L 10.944858480332405,46.07355635916538 L 10.95298023880995,46.08362618649624 L 10.953086340449529,46.08377286694289 L 10.953197450041255,46.08395330409502 L 10.953298026401159,46.08510038257793 L 10.954243954896093,46.089226916548625 L 10.955544327269722,46.09395480361146 L 10.955634400720216,46.094090180405544 L 10.955756879143479,46.09421821887123 L 10.95584758722393,46.09429736370018 L 10.958746249879342,46.09668056162011 L 10.958927812597437,46.096823878060704 L 10.959051201227531,46.09686948441542 L 10.959212800225615,46.096866584900894 L 10.960716662997372,46.09675452239278 L 10.962112795796624,46.09664187708724 L 10.963131717926952,46.09654599901547 L 10.963951358457935,46.096452818224456 L 10.964347442567258,46.09668344059962 L 10.96481291642454,46.09697434193851 L 10.965331385114347,46.09734421638034 L 10.965801730777361,46.09768385696974 L 10.966211864111768,46.09811311896908 L 10.967851137005422,46.10005286032472 L 10.968227302596489,46.10182704831938 L 10.967510873352415,46.10561695472922 L 10.967549836232998,46.11009478632943 L 10.967594607944887,46.11272678306635 L 10.967702246310791,46.11406392995411 L 10.968790877228633,46.115140129428916 L 10.96938960414149,46.11556242480753 L 10.970597759410776,46.11637327359335 L 10.973186391937313,46.117964770497665 L 10.97484206468766,46.1189659044549 L 10.976217245820058,46.11975775184105 L 10.976603545343357,46.12040520609795 L 10.976855604498661,46.12082767034913 L 10.97847345262774,46.12358101777588 L 10.979382788252385,46.12521586969031 L 10.980337501858768,46.12761069639248 L 10.9811793992979,46.130069329811136 L 10.981819270289812,46.13156975940345 L 10.98464647940543,46.13661246292606 L 10.986280918917576,46.13865564326801 L 10.990545877854027,46.14142556539887 L 10.991201117926206,46.14189120170738 L 10.993074771012061,46.143128187462494 L 10.993936678566167,46.143605464917854 L 10.996513499968291,46.144715194775095 L 10.998973579283847,46.14433746801991 L 10.999264503198383,46.14414904785427 L 10.999508978325876,46.143985881932345 L 10.999835717492303,46.143707196593816 L 11.000141839658118,46.14335727896701 L 11.000637953078439,46.14330424469445 L 11.000869655388414,46.14329447337895 L 11.002672051237242,46.14341808095615 L 11.003322617515778,46.14349703315997 L 11.005786869159255,46.14466235128181 L 11.019095220693012,46.15051239574932 L 11.020913686277419,46.15128969487291 L 11.022024277388942,46.14910470354433 L 11.024874599267488,46.146856628226665 L 11.025124369408513,46.14669344231429 L 11.036919187996922,46.14180170038659 L 11.038015705344606,46.14155684627932 L 11.039780582713329,46.14123048784542 L 11.041070286684766,46.141006063130874 L 11.04633651153409,46.14145644264727 L 11.047109497658562,46.141655640231725 L 11.04719529669195,46.141686083071946 L 11.050555539410139,46.14479011158382 L 11.050691960074959,46.14508662037943 L 11.050615485343606,46.1451760089475 L 11.049497273253984,46.14590684942792 L 11.062032487158906,46.151782716685034 L 11.065405741906403,46.150781401158895 L 11.064634511859472,46.14459840482923 L 11.064479703919066,46.14448522444892 L 11.063771502526583,46.14244866752136 L 11.063712721537415,46.141957985422465 L 11.063854657104622,46.141341191416295 L 11.065355505838273,46.13783129133113 L 11.066278721446121,46.136256990793754 L 11.068413575968698,46.13420299970954 L 11.070553427677064,46.13216771504545 L 11.076379311672685,46.135356064570495 L 11.073226316477127,46.14055674782862 L 11.073170525142054,46.140709920924415 L 11.073072483281157,46.141656684154796 L 11.073036787024911,46.142352939847214 L 11.073283908679812,46.14283747196271 L 11.073842867735372,46.14379944401667 L 11.074502481734598,46.14489681586833 L 11.07477220999379,46.14529911295008 L 11.07510082726271,46.145727969177095 L 11.082966676562242,46.154249274338426 L 11.083120685445868,46.15441130964586 L 11.08324306737578,46.1545244474348 L 11.085240860041793,46.15539142220649 L 11.085956174053726,46.15548603068712 L 11.087607429152659,46.155695403663096 L 11.088097123213068,46.1557398188817 L 11.088878069128373,46.1557637001049 L 11.092261888021167,46.155756018805725 L 11.092830831812096,46.155917001943116 L 11.108419899912994,46.163098740931 L 11.109067750565776,46.16341368756189 L 11.111191496564095,46.166216819449865 L 11.111547765992114,46.17268556058734 L 11.11129910412045,46.174686267251744 L 11.1126294847723,46.17467200055732 L 11.11408462687467,46.17468420036816 L 11.114569145287057,46.17473195145383 L 11.121279741758562,46.176081284452884 L 11.121060421934754,46.17729694342744 L 11.120988343365875,46.177465021097944 L 11.1208901756029,46.177561827091175 L 11.12025152897991,46.17823214357107 L 11.121378348690198,46.18002094931669 L 11.122024410047331,46.18099446519298 L 11.122707772689544,46.182005622969285 L 11.12280373245592,46.182096039428366 L 11.124185453618582,46.18224297353641 L 11.124796096127987,46.182279682811135 L 11.125162647660655,46.18228176930707 L 11.125459614162699,46.18224229313456 L 11.12573023761204,46.18215022155967 L 11.125941775685078,46.182039099658176 L 11.131650210692495,46.17838331496514 L 11.136093621315894,46.18054264831074 L 11.136419299505008,46.182203244785946 L 11.136592371501694,46.18308039984106 L 11.139884265252826,46.18789909443541 L 11.140114577682652,46.18802767957819 L 11.14780117617438,46.18850686084821 L 11.150592913262168,46.18822377992376 L 11.155281291507416,46.1875721094363 L 11.156799534591535,46.18659365393928 L 11.156928732299276,46.18649619630472 L 11.15802041488402,46.18515496904992 L 11.160088082504789,46.184052436548875 L 11.16074507714013,46.18374859733214 L 11.161369868339873,46.18351964662122 L 11.16197864799641,46.18337307376681 L 11.162409744580156,46.183335220696755 L 11.162976052212416,46.183529379938996 L 11.163542450905592,46.18376095254265 L 11.163769128046548,46.18392170624486 L 11.167157491352706,46.18653665479259 L 11.167259530256297,46.186622936008156 L 11.181053612470008,46.20301965511792 L 11.18319842329036,46.20558427200228 L 11.183646269621946,46.20690773532956 L 11.183107626133156,46.20689104184791 L 11.180532341225602,46.20712470602274 L 11.17893773793294,46.20728562525805 L 11.176649902518111,46.20790524236899 L 11.171835730352122,46.211853445277086 L 11.171657332735071,46.212014341503384 L 11.171386714162885,46.21267199237577 L 11.171359127497675,46.21275352624566 L 11.171394160854563,46.212860855724905 L 11.171507789207412,46.212989198643925 L 11.171691952531017,46.21313870614764 L 11.172083315939346,46.213405781415474 L 11.172299699866516,46.2135501600347 L 11.172509429702245,46.21364967058537 L 11.172737898098369,46.21373083561159 L 11.172987257490059,46.21380710367938 L 11.17320474450298,46.213856955839105 L 11.173466895483855,46.213887969222775 L 11.173885940889152,46.213911499010266 L 11.174334140972116,46.2139344716096 L 11.174477730150958,46.21391824699982 L 11.17465448713481,46.21379787436196 L 11.174797229019248,46.213678166829084 L 11.175027083337987,46.21350727343896 L 11.176146723090612,46.21399447033991 L 11.176333446130725,46.21408541713432 L 11.176880201165297,46.21455201529568 L 11.176973890031176,46.214667239407895 L 11.17705187549132,46.214917762207904 L 11.177222649871913,46.21563001755375 L 11.177240823905409,46.216007683571384 L 11.177230235625826,46.21635439663769 L 11.17696140601407,46.22312316240679 L 11.176877257819218,46.22447929024109 L 11.176856257195283,46.224727200129294 L 11.176694048201309,46.22488779458302 L 11.176386894255248,46.225154647930005 L 11.17500935377672,46.22635091004962 L 11.174564267669673,46.22673739148345 L 11.172691176809986,46.22889256114997 L 11.176059599237211,46.231441035069004 L 11.183654656017815,46.22579782323266 L 11.2016509380793,46.2228840439271 L 11.200592939486032,46.22001994959555 L 11.196638290019537,46.20771174546973 L 11.19651964796644,46.20697151140817 L 11.196352100018455,46.205980209084295 L 11.192572081054033,46.199352141260135 L 11.187224252750658,46.19874448514182 L 11.179884112801037,46.193299028041 L 11.179243767090007,46.19266359847279 L 11.176186067511734,46.189101621716986 L 11.175335420549008,46.18794875649169 L 11.175346972819094,46.187870234779844 L 11.177458063172118,46.17649329166965 L 11.18079617800277,46.16458326711459 L 11.180861251178504,46.16343850731946 L 11.180867893285692,46.163311306499025 L 11.17907491337782,46.15780199139141 L 11.178011941566403,46.15692879285245 L 11.174037124788518,46.15646821604073 L 11.172097484717337,46.1560397745021 L 11.171509786955978,46.155576675273835 L 11.171254636274814,46.1547072848246 L 11.171254277997836,46.15420210902239 L 11.1922460786402,46.15390853026118 L 11.192762730501176,46.153933379250304 L 11.19335431846201,46.15400722093538 L 11.194058554144595,46.15412648858654 L 11.194401746943521,46.15427401284059 L 11.194918960855924,46.15480776474713 L 11.19572627950334,46.15541022592557 L 11.196320044324487,46.155820826289855 L 11.196475487825584,46.1558963996184 L 11.197437565844798,46.15608418008565 L 11.204693656946729,46.15749433870509 L 11.205415003723347,46.15751632272266 L 11.205847613049837,46.15732368489504 L 11.206101879843617,46.157197615695324 L 11.206796619573034,46.156717561614855 L 11.207539186042874,46.15620413472891 L 11.209941551485496,46.154538149612705 L 11.208595303596951,46.144434073033196 L 11.205915143471236,46.1422564959749 L 11.205350362750284,46.14177032759844 L 11.204812905758212,46.141269506646154 L 11.204218380368669,46.14067812065143 L 11.203692253829312,46.13993393141692 L 11.203231446082116,46.139164278124575 L 11.203070239321859,46.13870535383552 L 11.202799207803196,46.13766823174593 L 11.202613341328226,46.13711536992231 L 11.201701046429779,46.135197820341055 L 11.201587596552393,46.13499044687584 L 11.200999296962333,46.13414810994987 L 11.19942712251798,46.132338859930826 L 11.195665516983588,46.12951462926941 L 11.19501602406187,46.12919598270369 L 11.194313121034966,46.12885797322817 L 11.189713140457325,46.12682432336364 L 11.189436158961081,46.12615041573849 L 11.189061199281792,46.12569070039166 L 11.188630818908132,46.124990945505694 L 11.188515279814213,46.12447333895426 L 11.187322358904341,46.118608044836755 L 11.188602669286484,46.11061268898049 L 11.188701827850243,46.11047118129759 L 11.199229727847102,46.1065234238911 L 11.208378013646715,46.10808332291747 L 11.217070514613669,46.110319840274805 L 11.221215458091615,46.1086185664546 L 11.221509278167684,46.108306648372384 L 11.221583891490681,46.108201513519866 L 11.221688334806004,46.107770443894445 L 11.221921206649654,46.10507300110946 L 11.222006906688373,46.102859256578114 L 11.221453090820114,46.10007853206364 L 11.221281083561463,46.099397522724914 L 11.220543893982457,46.09735584400829 L 11.21977035354762,46.095457240690955 L 11.219845116614378,46.09534556052115 L 11.223728956224662,46.09066612883753 L 11.225169474333558,46.08979503750371 L 11.22583073892416,46.08978945553259 L 11.226324832414525,46.08986941147002 L 11.227162290011144,46.09006630052428 L 11.236460938036833,46.09594979209879 L 11.237300690018026,46.096707655090334 L 11.241074663386033,46.09865922808677 L 11.246966610500658,46.09935039269687 L 11.252363854119654,46.09995017812466 L 11.259317540463037,46.10096342878347 L 11.266764124012484,46.10449657885179 L 11.266107595753027,46.1030497258134 L 11.268221108013737,46.093151217772785 L 11.268306946161404,46.093005222656785 L 11.26946080695894,46.091256922564426 L 11.269697080223311,46.09100603823737 L 11.27490645518608,46.08961778540806 L 11.280782226192509,46.08812397297911 L 11.28523458292346,46.084662803137114 L 11.282131050013252,46.081013189380634 L 11.283497012150617,46.071895323655404 L 11.278871240003363,46.07431967271318 L 11.27717493900434,46.07561349363867 L 11.27145867808265,46.0746686048669 L 11.270159761102832,46.07426429251393 L 11.269381598793155,46.073999998365 L 11.268561575545318,46.07355218225919 L 11.268004225563747,46.073239881843286 L 11.26466592810618,46.07131360791944 L 11.25633841257531,46.063372349563416 L 11.257891342439196,46.052489427218894 L 11.259924343584329,46.04909701701806 L 11.260230463830409,46.04879837469276 L 11.2610690301935,46.04798687811487 L 11.26336315170406,46.046290317510426 L 11.265278558407783,46.04616744988584 L 11.267905720770136,46.045904376086504 L 11.268267137536197,46.0458249631485 L 11.269662061635737,46.045327308502515 L 11.271933612943757,46.044469943743394 L 11.274067932641367,46.04345801279501 L 11.283433435392734,46.03671067960508 L 11.283386177069417,46.036642942044416 L 11.2824024262139,46.036013836561615 L 11.27462034608388,46.03123962104745 L 11.273087128021936,46.03038521120538 L 11.273864182742683,46.02953819601551 L 11.274416844714398,46.02893638180409 L 11.274974428849681,46.028360803319025 L 11.276217324774752,46.0272817506956 L 11.277039109593193,46.02660399725216 L 11.272017913126673,46.02278829321617 L 11.271211189829128,46.02286643665788 L 11.26958989000968,46.02394570158436 L 11.267870743083252,46.026243518707105 L 11.267246946067182,46.0272919252785 L 11.26683206383163,46.028222335802596 L 11.259603445583954,46.032009260813176 L 11.258478432200063,46.03212297361294 L 11.250661280113984,46.03119385879966 L 11.246002625155722,46.02457297949219 L 11.245950789128372,46.024426700226336 L 11.2459727501241,46.02438942022095 L 11.249192043601328,46.02183985619903 L 11.250946349989214,46.020485536490206 L 11.253595662309289,46.01864878366286 L 11.253774120844003,46.018582977256635 L 11.25392436359459,46.018591792859674 L 11.254203121919426,46.01862417210622 L 11.254332492461169,46.01859911233554 L 11.255587029644152,46.018138534646496 L 11.256031024249396,46.017944053937306 L 11.256183165763092,46.01784809229675 L 11.25634629302686,46.017737240753206 L 11.256444791712491,46.01763706578097 L 11.259522491706083,46.01435935680905 L 11.260684847439641,46.01302327816217 L 11.237072275119276,46.01037746338966 L 11.233744755246693,46.008810557550106 L 11.232498282824245,45.99486351155469 L 11.233626990922078,45.99105806003991 L 11.23404232847121,45.99001326186258 L 11.235936059207896,45.98605317037856 L 11.236035425585017,45.98589675622512 L 11.236340528100577,45.985640978233675 L 11.236862402453387,45.98527092696169 L 11.237186321424558,45.985172547851384 L 11.237853597480933,45.98509197457518 L 11.240739329997238,45.985931969481186 L 11.24514578560043,45.98006071650608 L 11.244922718581112,45.97420372101024 L 11.241616861623106,45.96747144693965 L 11.234649968679292,45.95765374565959 L 11.233522960167056,45.956193061015284 L 11.232143628096246,45.95419235708994 L 11.232038478938462,45.95406418162386 L 11.230148848331536,45.952210198192724 L 11.22205393455716,45.945806820096244 L 11.221749622354096,45.94567023059379 L 11.216678698189954,45.94555050471124 L 11.215392016119141,45.94586492440249 L 11.214094060333629,45.94622043260379 L 11.20240495242859,45.94391874712751 L 11.202207992129663,45.94378650707196 L 11.198907699839806,45.94157598550019 L 11.19517539743125,45.939171755219135 L 11.193279837135291,45.937969421670864 L 11.19274808565981,45.93800361218871 L 11.192414221264398,45.93809144162308 L 11.19172866655766,45.93840551856659 L 11.191063567990337,45.93879835248727 L 11.186556268554964,45.94168009932266 L 11.185873844864386,45.94258580569351 L 11.185802031054571,45.94274638780551 L 11.185583310530426,45.94348644390239 L 11.185519261717731,45.944302361519846 L 11.185521920171249,45.94451582204675 L 11.182236359224616,45.944562860421215 L 11.16564839768801,45.943025737865746 L 11.159542101857385,45.939152056383556 L 11.158930255248361,45.9385130593366 L 11.15798044934535,45.93786144118802 L 11.147487802600793,45.93169649585584 L 11.147188058291757,45.93160911714325 L 11.145255362878043,45.931095606550606 L 11.124213741964281,45.92171619375106 L 11.116495659669182,45.92560256771546 L 11.106645554447402,45.928407960384995 L 11.103837363300919,45.928976085853655 L 11.103749884918694,45.92936462935667 L 11.10188981277523,45.941214460520605 L 11.101733908424663,45.94526137530944 L 11.100057840040472,45.945987611807794 L 11.09940109442222,45.94619430065693 L 11.098522632183192,45.946003069718564 L 11.094844150650308,45.94675749889241 L 11.094187140267993,45.94811741274094 L 11.094042189139087,45.948685875860484 L 11.094173094485587,45.9490926171241 L 11.094326799068778,45.949506038998685 L 11.094426399854695,45.94964930009409 L 11.094568153859617,45.949841648888075 L 11.094711067549555,45.94996654812369 L 11.095024791054744,45.950156610385555 L 11.09539788080737,45.95033216379561 L 11.095520784794463,45.950370682928174 L 11.095703005181557,45.95039845515492 L 11.097351530315287,45.950461064781685 L 11.098946846900743,45.950493217949784 L 11.09988108859309,45.95053479393984 L 11.102092512702752,45.950984366859686 L 11.103965964143185,45.95140482289281 L 11.104627991570196,45.951653972860214 L 11.105144909217529,45.95190566457657 L 11.105920373042148,45.95243311982888 L 11.106596657843046,45.95310591903173 L 11.107445713020097,45.9540462725006 L 11.107844813856376,45.95473035292445 L 11.107536271061544,45.96728908061859 L 11.105398695048168,45.96280354296515 L 11.103480292851525,45.95965785046662 L 11.103374705701974,45.95954827452445 L 11.09752124536977,45.95463039500697 L 11.094842851812134,45.954143085403054 L 11.093055877260047,45.95400056224796 L 11.092963564095866,45.95405600529618 L 11.09111071817107,45.9543026937449 L 11.089649223518148,45.95449528168662 L 11.08735193560736,45.95475807503002 L 11.079997498772702,45.954020414428754 L 11.078907047391818,45.953855694619314 L 11.078487915479878,45.953771045571294 L 11.07848190700102,45.9536774972751 L 11.078662217447345,45.95260269842146 L 11.077437066141972,45.953127086431465 L 11.07097566878584,45.957718752300686 L 11.07009382600463,45.95903167031604 L 11.069251318511366,45.964551367282894 L 11.069273510278343,45.96465608859851 L 11.07072107988427,45.96678468351997 L 11.06965539756302,45.967091460428044 L 11.055129051371837,45.960537227830194 z M 11.021436960737882,46.049369648406234 L 11.021928607337678,46.04929072425084 L 11.024144835560437,46.0485214848784 L 11.024734347828208,46.048305549386114 L 11.025235214073469,46.04808642730298 L 11.026413534342689,46.04753322993172 L 11.027904986735807,46.04678184005714 L 11.028602564097156,46.04642968378692 L 11.028475118592535,46.04626677000693 L 11.026116744769398,46.043856997838404 L 11.02638986010273,46.039026840114985 L 11.026421609143936,46.03846558666401 L 11.02808859862979,46.030777410330565 L 11.028536302651801,46.023391147055044 L 11.027481324006338,46.014523416379916 L 11.026981501152434,46.009863603944396 L 11.027589344743658,46.005802492948625 L 11.028941786817304,46.00265774729136 L 11.029078045267518,46.00243027708225 L 11.02929456101303,46.002137238822066 L 11.029567024706434,46.00183562685714 L 11.030977629459237,45.99966991967014 L 11.03209413901421,45.99714471234376 L 11.032384106716478,45.994523896120036 L 11.03239597664714,45.99345280119423 L 11.03237588790371,45.993220535013265 L 11.0322295615943,45.991658343770325 L 11.032172688202214,45.991287396182194 L 11.031858997623912,45.99074341413924 L 11.031587215407267,45.990371829476025 L 11.031279402080704,45.98974545643891 L 11.031094327907613,45.989254300075615 L 11.031128182700975,45.98898848435606 L 11.031671148805051,45.9862897677642 L 11.03226318142247,45.985235358393275 L 11.032376951869903,45.9850784051503 L 11.034698077208137,45.982377425303824 L 11.035092508538483,45.98200406223353 L 11.035826235982304,45.98148560927029 L 11.03610298248671,45.98245735042922 L 11.037433727340018,45.98663032251579 L 11.038039354367815,45.98816676614354 L 11.039221022022561,45.99079063040845 L 11.03936754027514,45.99103346798336 L 11.039508523259101,45.99125386140931 L 11.040135116938506,45.99183955175891 L 11.043532385121,45.99493188415823 L 11.04461243414978,45.99587546157974 L 11.04524585040787,45.999096013242934 L 11.045639107344341,46.00169987310411 L 11.047089480803029,46.01133690496921 L 11.04731379673906,46.012827095111874 L 11.04734414951318,46.013028688444386 L 11.047736179019887,46.015512318044884 L 11.047929260152406,46.01577311128915 L 11.053437725582018,46.02175941650093 L 11.053700956774522,46.022039031617645 L 11.054031715597935,46.02238570629229 L 11.056607161285909,46.02493404220278 L 11.057170514412197,46.025461569789556 L 11.05766320911479,46.02591515900964 L 11.057795745853944,46.02601262249684 L 11.057947838551808,46.02611714457346 L 11.05839246457833,46.0263669736444 L 11.058438924892064,46.026111614889516 L 11.058547769541303,46.02551325776076 L 11.05857295166667,46.025374833464205 L 11.058933664033239,46.02485446013547 L 11.0593322216465,46.024336593214784 L 11.059954745200752,46.02363100163748 L 11.061481102489664,46.02226843016847 L 11.061938681255016,46.02206015588346 L 11.062386898428278,46.0219822591415 L 11.063509607963313,46.02183785890274 L 11.072630424401455,46.02201812560089 L 11.075918150524325,46.023682701752755 L 11.076154649915605,46.02379516319091 L 11.080398304130217,46.02330126353993 L 11.080641895804096,46.02327162866433 L 11.080929679272195,46.02317145685408 L 11.081946836912262,46.022735160607226 L 11.08205427356398,46.02268612545687 L 11.087183182084065,46.019573387175654 L 11.09684522599692,46.01093101140772 L 11.100398726836849,46.00670377126197 L 11.10074405122312,46.00629136138757 L 11.100850046780199,46.00612648441603 L 11.101056143176926,46.00563855057194 L 11.101126176527284,46.00547059230214 L 11.101157065527742,46.00529719578879 L 11.101156384143906,46.00509560699855 L 11.101089051851979,46.00484448011332 L 11.100639378889124,46.004048978720355 L 11.092885195222985,45.993241922395185 L 11.103029098451836,45.990931979213194 L 11.11332539534085,45.989728110287935 L 11.114364259538833,45.98934688062018 L 11.115577106727915,45.9888323001455 L 11.116049711942601,45.988631770836015 L 11.116119882622025,45.98855176104851 L 11.113949092235977,45.98624754837486 L 11.112961355781426,45.98520492783673 L 11.110322843777281,45.98266546469983 L 11.111344073738271,45.98241682508396 L 11.113764055985113,45.982160312096525 L 11.115324970483355,45.981996047433746 L 11.11756462791384,45.98196188752889 L 11.117928065206788,45.98221030095823 L 11.118518040344195,45.982899078558276 L 11.119676675897766,45.983909724539124 L 11.120142038874537,45.9841461931123 L 11.123060394347382,45.98536184391136 L 11.124345160065246,45.98565856506415 L 11.124445658630066,45.9856817663146 L 11.131366982057191,45.981708604955834 L 11.133289233261241,45.979047340373846 L 11.138340281800788,45.97768595901639 L 11.147128705047542,45.976627249025334 L 11.149872248745051,45.97727046291653 L 11.153291096308294,45.979616487116594 L 11.155522648043267,45.98193727906244 L 11.156271010669622,45.98168844710692 L 11.158674380155706,45.98044527558273 L 11.157469894764807,45.99003869161768 L 11.157325466717799,46.00027187759115 L 11.157371550537238,46.00049045172267 L 11.158344556521072,46.00237797258012 L 11.158431799447273,46.00252870901885 L 11.158460541980578,46.00257513264119 L 11.158812913105654,46.00262392024768 L 11.159041591093189,46.00264944253608 L 11.160145428196262,46.00270514524997 L 11.162104305051104,46.00280205665689 L 11.162654872449526,46.00274971840856 L 11.163328553501488,46.00273436414551 L 11.1636360361019,46.00275924890024 L 11.163896284969697,46.0028129193834 L 11.164696458369017,46.003127783690395 L 11.16568872281855,46.003607827901554 L 11.165818462351528,46.00371552422159 L 11.166146251411293,46.00402055015173 L 11.166338316431078,46.00420348595611 L 11.166483147135665,46.0043418455379 L 11.166608713833726,46.00447059588382 L 11.166597907908995,46.00470862249859 L 11.166560129363907,46.00523204441108 L 11.163561664527675,46.012931504123245 L 11.16000405425723,46.01436931967124 L 11.157257849911108,46.016605427443864 L 11.157919437744788,46.01723692507232 L 11.158870706899702,46.01814247892513 L 11.165724245895559,46.02287210529659 L 11.166323472740244,46.02320002041613 L 11.166478973031053,46.023249254806494 L 11.167258082693305,46.02331449592308 L 11.16941305169548,46.023474104044595 L 11.170806900848532,46.02353450005586 L 11.172535756974233,46.02367094077921 L 11.175601655791835,46.02402244992232 L 11.178754887189383,46.02438802599465 L 11.18263020347663,46.025684981135605 L 11.182664017435593,46.02573594772052 L 11.184508193628135,46.02882887875828 L 11.187807574154922,46.0321422481515 L 11.18658845306961,46.03899432491996 L 11.186557740146249,46.03926167356052 L 11.186725858881925,46.04099500167017 L 11.186871209040614,46.042493341364114 L 11.187770010332162,46.04625399201259 L 11.190027923099901,46.048021632501424 L 11.190380732891885,46.048297811876445 L 11.191891628927358,46.049825821477974 L 11.193584431197099,46.05690655965512 L 11.193798447110188,46.06465405824766 L 11.19253923534873,46.06748140695025 L 11.189638726969948,46.07167913301173 L 11.188567813446479,46.07181259115692 L 11.185797063900356,46.07305580749916 L 11.184250803024197,46.07374955214522 L 11.177028445935257,46.079677919247715 L 11.174923541301219,46.08526933148008 L 11.17491360214495,46.08537230129966 L 11.174870794054383,46.08545239755927 L 11.174808216174576,46.085555355954845 L 11.174212258959436,46.086520982061934 L 11.173543945579585,46.087477437445756 L 11.173392495028713,46.087670231616826 L 11.168488587616698,46.09150545252003 L 11.165772685983248,46.092610014475895 L 11.164006983602874,46.09325027981802 L 11.161079055300327,46.094210234627624 L 11.155206480863068,46.09767693981698 L 11.153816519180205,46.09869787286905 L 11.152841302902202,46.104497917951264 L 11.152861125248739,46.10722508951117 L 11.152867176758201,46.107451827284294 L 11.152937122587774,46.10837743559594 L 11.152970300149395,46.108556307406985 L 11.153003926739784,46.10870999209296 L 11.156768167879042,46.11751760201304 L 11.15687396085383,46.11768560806954 L 11.15700057921358,46.11778741804582 L 11.160226377352265,46.12029381312688 L 11.163625936523495,46.12505617760928 L 11.165100212469406,46.13414975529255 L 11.165194855346716,46.13479391629993 L 11.165163200248855,46.136318194515646 L 11.165028369289729,46.13813240072437 L 11.164688200288516,46.14089100302212 L 11.163271815794422,46.14452061422399 L 11.163098133002975,46.14506641019598 L 11.163039430687396,46.145258889939484 L 11.162986524795699,46.14578608692114 L 11.163410289984105,46.1484645421866 L 11.161991370655576,46.15211255697721 L 11.15788179034315,46.15121331865863 L 11.145934094479344,46.1504118447195 L 11.143285549854783,46.15063415890402 L 11.141473009514598,46.15071394935759 L 11.134651024235584,46.150563494831886 L 11.133871371982067,46.15053254753015 L 11.133381260894328,46.15051145201557 L 11.132466912829369,46.150467657166324 L 11.122635134661477,46.14802780743105 L 11.121621012789308,46.146675092288696 L 11.118811661435588,46.14125029468693 L 11.119061463624195,46.13954943449845 L 11.119061725156275,46.1395230531895 L 11.119066148467441,46.13907107650251 L 11.11880078549411,46.138633910633715 L 11.118758121892695,46.13860826950246 L 11.118398443607903,46.13839223539859 L 11.113177281221285,46.136651758780275 L 11.113118436239889,46.13663232084343 L 11.101162418492299,46.13321789529037 L 11.100620056116403,46.133321467889694 L 11.092762977965416,46.13176431844657 L 11.08845305140973,46.12861225295276 L 11.084201988104418,46.12562014416614 L 11.083912825169715,46.12549014281491 L 11.08193614642324,46.12502438488331 L 11.082984466091853,46.1208731969003 L 11.07362493857713,46.10861093153449 L 11.06763660111345,46.10210041163875 L 11.051197902244587,46.088248640558845 L 11.050880188833224,46.08805289394792 L 11.050024152865873,46.087694975150946 L 11.049784712074416,46.08760026919626 L 11.038202337714226,46.08404178328447 L 11.035515419310832,46.0863329282795 L 11.03546562874943,46.08686163660422 L 11.035135407768031,46.08843103862506 L 11.034771326122653,46.08967522382684 L 11.034677955219554,46.08985345309417 L 11.03369147695827,46.090733574972 L 11.032421308321327,46.09156324286875 L 11.029699079790452,46.091978030899234 L 11.029422543632288,46.09200904425421 L 11.029155949205295,46.09203093937294 L 11.026945429958877,46.08568291201385 L 11.027771223884036,46.082473757854125 L 11.027866130338417,46.08208489425344 L 11.028111465882159,46.07953982658054 L 11.028259707973934,46.07587022320201 L 11.02818466037224,46.0757875013311 L 11.028037381234029,46.07569080043588 L 11.027850508071273,46.07561225753085 L 11.027565200166269,46.07550585788813 L 11.027302343108907,46.075472827591106 L 11.025790825049068,46.07531372488433 L 11.024754598898665,46.075362489370306 L 11.02424104657472,46.075438389442326 L 11.021618316135589,46.07210857485552 L 11.02154057664639,46.07194801816943 L 11.021577971315624,46.071336845398314 L 11.021616272499609,46.07104620340253 L 11.02284170938675,46.06491941418764 L 11.023182277006937,46.0632636609265 L 11.023672377313027,46.05341291058599 L 11.021436960737882,46.049369648406234 z M 11.128557095050871,45.97496095010347 L 11.125576635157726,45.97462970389278 L 11.113342921537418,45.97325367529243 L 11.113078545544733,45.973169350369425 L 11.109785800793844,45.9574625284867 L 11.111863284590079,45.95398413407084 L 11.12614712309325,45.95446601551542 L 11.129636057904134,45.9555090187975 L 11.140271913519447,45.95912673752893 L 11.145681001894811,45.961440162952485 L 11.14455983156396,45.96445169701032 L 11.141067467713606,45.97132624740878 L 11.137492546581107,45.97184217066808 L 11.132699948594304,45.97358370337379 L 11.132817557201783,45.974661447863284 L 11.128557095050871,45.97496095010347 z" /><path fill-rule="evenodd" fill="#66cc99" stroke="#555555" stroke-width="0.008945677981932682" opacity="0.6" d="M 11.32703327779966,46.04909758095824 L 11.316629362375533,46.048916994156095 L 11.307552306611148,46.049206668569 L 11.302014464322347,46.061104926671625 L 11.314492895591824,46.060173791289095 L 11.334475693685063,46.050030378628584 L 11.32703327779966,46.04909758095824 z" /></g></g></svg>