<svg xmlns="http://www.w3.org/2000/svg" xmlns:xlink="http://www.w3.org/1999/xlink" width="300" height="300" viewBox="501031.8409960002 4832790.169596 397167.5647079996 401484.41650800034" preserveAspectRatio="xMinYMin meet"><g transform="matrix(1,0,0,-1,0,10067064.7557)"><path fill-rule="evenodd" fill="#66cc99" stroke="#555555" stroke-width="2676.562776720002" opacity="0.6" d="M 865462.2483000001,5073771.9386 L 852258.3732000003,5082353.5987 L 760887.5378999999,5027624.070900001 L 762614.881,4998314.7908 L 780287.4468999999,4985169.370100001 L 757587.6705999998,4967585.0243999995 L 761628.3691999996,4928709.5725 L 801221.2747999998,4874781.0659 L 795324.5261000004,4858835.3398 L 781416.7032000003,4876885.726299999 L 747252.8967000004,4847659.9628 L 717735.2696000002,4861831.815199999 L 720242.6341000004,4889040.1537999995 L 693326.6562000001,4901296.217700001 L 679940.1958999997,4885167.205700001 L 627478.3553999998,4885925.7206999995 L 577216.4430999998,4923917.4385 L 553783.3091000002,4912603.530200001 L 515901.6342000002,4940239.820900001 L 543143.0049999999,4997832.8802000005 L 577489.2691000002,4998245.3716 L 619969.4414999997,4974379.042300001 L 691430.5714999996,4980270.302100001 L 626976.5751999998,5033514.5955 L 642915.1127000004,5077112.299900001 L 616677.0762,5076329.464500001 L 625330.9406000003,5140066.8488 L 606670.4448999995,5167742.884400001 L 612732.0054000001,5190543.8566 L 654404.3316000002,5181054.8573 L 664662.3258999996,5203611.8299 L 744839.4976000004,5219404.7929 L 739409.8727000002,5200408.3135 L 763258.7165999999,5176266.330499999 L 861528.1717999997,5162972.0096 L 836969.3212000001,5136493.275 L 859893.0299000004,5124638.709000001 L 846550.5575000001,5104490.867000001 L 883329.6124999998,5064841.274 L 868360.3261000002,5059876.825300001 L 865462.2483000001,5073771.9386 z" /></g></svg>