<svg xmlns="http://www.w3.org/2000/svg" xmlns:xlink="http://www.w3.org/1999/xlink" width="100.0" height="100.0" viewBox="11.014417548419807 45.96960783670726 0.18640031100845533 0.18952413258801926" preserveAspectRatio="xMinYMin meet"><g transform="matrix(1,0,0,-1,0,92.12873980600254)"><g><path fill-rule="evenodd" fill="#66cc99" stroke="#555555" stroke-width="0.003790482651760385" opacity="0.6" d="M 11.163410289984105,46.1484645421866 L 11.162986524795699,46.14578608692114 L 11.163039430687396,46.145258889939484 L 11.163098133002975,46.14506641019598 L 11.163271815794422,46.14452061422399 L 11.164688200288516,46.14089100302212 L 11.165028369289729,46.13813240072437 L 11.165163200248855,46.136318194515646 L 11.165194855346716,46.13479391629993 L 11.165100212469406,46.13414975529255 L 11.163625936523495,46.12505617760928 L 11.160226377352265,46.12029381312688 L 11.15700057921358,46.11778741804582 L 11.15687396085383,46.11768560806954 L 11.156768167879042,46.11751760201304 L 11.153003926739784,46.10870999209296 L 11.152970300149395,46.108556307406985 L 11.152937122587774,46.10837743559594 L 11.152867176758201,46.107451827284294 L 11.152861125248739,46.10722508951117 L 11.152841302902202,46.104497917951264 L 11.153816519180205,46.09869787286905 L 11.155206480863068,46.09767693981698 L 11.161079055300327,46.094210234627624 L 11.164006983602874,46.09325027981802 L 11.165772685983248,46.092610014475895 L 11.168488587616698,46.09150545252003 L 11.173392495028713,46.087670231616826 L 11.173543945579585,46.087477437445756 L 11.174212258959436,46.086520982061934 L 11.174808216174576,46.085555355954845 L 11.174870794054383,46.08545239755927 L 11.17491360214495,46.08537230129966 L 11.174923541301219,46.08526933148008 L 11.177028445935257,46.079677919247715 L 11.184250803024197,46.07374955214522 L 11.185797063900356,46.07305580749916 L 11.188567813446479,46.07181259115692 L 11.189638726969948,46.07167913301173 L 11.19253923534873,46.06748140695025 L 11.193798447110188,46.06465405824766 L 11.193584431197099,46.05690655965512 L 11.191891628927358,46.049825821477974 L 11.190380732891885,46.048297811876445 L 11.190027923099901,46.048021632501424 L 11.187770010332162,46.04625399201259 L 11.186871209040614,46.042493341364114 L 11.186725858881925,46.04099500167017 L 11.186557740146249,46.03926167356052 L 11.18658845306961,46.03899432491996 L 11.187807574154922,46.0321422481515 L 11.184508193628135,46.02882887875828 L 11.182664017435593,46.02573594772052 L 11.18263020347663,46.025684981135605 L 11.178754887189383,46.02438802599465 L 11.175601655791835,46.02402244992232 L 11.172535756974233,46.02367094077921 L 11.170806900848532,46.02353450005586 L 11.16941305169548,46.023474104044595 L 11.167258082693305,46.02331449592308 L 11.166478973031053,46.023249254806494 L 11.166323472740244,46.02320002041613 L 11.165724245895559,46.02287210529659 L 11.158870706899702,46.01814247892513 L 11.157919437744788,46.01723692507232 L 11.157257849911108,46.016605427443864 L 11.16000405425723,46.01436931967124 L 11.163561664527675,46.012931504123245 L 11.166560129363907,46.00523204441108 L 11.166597907908995,46.00470862249859 L 11.166608713833726,46.00447059588382 L 11.166483147135665,46.0043418455379 L 11.166338316431078,46.00420348595611 L 11.166146251411293,46.00402055015173 L 11.165818462351528,46.00371552422159 L 11.16568872281855,46.003607827901554 L 11.164696458369017,46.003127783690395 L 11.163896284969697,46.0028129193834 L 11.1636360361019,46.00275924890024 L 11.163328553501488,46.00273436414551 L 11.162654872449526,46.00274971840856 L 11.162104305051104,46.00280205665689 L 11.160145428196262,46.00270514524997 L 11.159041591093189,46.00264944253608 L 11.158812913105654,46.00262392024768 L 11.158460541980578,46.00257513264119 L 11.158431799447273,46.00252870901885 L 11.158344556521072,46.00237797258012 L 11.157371550537238,46.00049045172267 L 11.157325466717799,46.00027187759115 L 11.157469894764807,45.99003869161768 L 11.158674380155706,45.98044527558273 L 11.156271010669622,45.98168844710692 L 11.155522648043267,45.98193727906244 L 11.153291096308294,45.979616487116594 L 11.149872248745051,45.97727046291653 L 11.147128705047542,45.976627249025334 L 11.138340281800788,45.97768595901639 L 11.133289233261241,45.979047340373846 L 11.131366982057191,45.981708604955834 L 11.124445658630066,45.9856817663146 L 11.124345160065246,45.98565856506415 L 11.123060394347382,45.98536184391136 L 11.120142038874537,45.9841461931123 L 11.119676675897766,45.983909724539124 L 11.118518040344195,45.982899078558276 L 11.117928065206788,45.98221030095823 L 11.11756462791384,45.98196188752889 L 11.115324970483355,45.981996047433746 L 11.113764055985113,45.982160312096525 L 11.111344073738271,45.98241682508396 L 11.110322843777281,45.98266546469983 L 11.112961355781426,45.98520492783673 L 11.113949092235977,45.98624754837486 L 11.116119882622025,45.98855176104851 L 11.116049711942601,45.988631770836015 L 11.115577106727915,45.9888323001455 L 11.114364259538833,45.98934688062018 L 11.11332539534085,45.989728110287935 L 11.103029098451836,45.990931979213194 L 11.092885195222985,45.993241922395185 L 11.100639378889124,46.004048978720355 L 11.101089051851979,46.00484448011332 L 11.101156384143906,46.00509560699855 L 11.101157065527742,46.00529719578879 L 11.101126176527284,46.00547059230214 L 11.101056143176926,46.00563855057194 L 11.100850046780199,46.00612648441603 L 11.10074405122312,46.00629136138757 L 11.100398726836849,46.00670377126197 L 11.09684522599692,46.01093101140772 L 11.087183182084065,46.019573387175654 L 11.08205427356398,46.02268612545687 L 11.081946836912262,46.022735160607226 L 11.080929679272195,46.02317145685408 L 11.080641895804096,46.02327162866433 L 11.080398304130217,46.02330126353993 L 11.076154649915605,46.02379516319091 L 11.075918150524325,46.023682701752755 L 11.072630424401455,46.02201812560089 L 11.063509607963313,46.02183785890274 L 11.062386898428278,46.0219822591415 L 11.061938681255016,46.02206015588346 L 11.061481102489664,46.02226843016847 L 11.059954745200752,46.02363100163748 L 11.0593322216465,46.024336593214784 L 11.058933664033239,46.02485446013547 L 11.05857295166667,46.025374833464205 L 11.058547769541303,46.02551325776076 L 11.058438924892064,46.026111614889516 L 11.05839246457833,46.0263669736444 L 11.057947838551808,46.02611714457346 L 11.057795745853944,46.02601262249684 L 11.05766320911479,46.02591515900964 L 11.057170514412197,46.025461569789556 L 11.056607161285909,46.02493404220278 L 11.054031715597935,46.02238570629229 L 11.053700956774522,46.022039031617645 L 11.053437725582018,46.02175941650093 L 11.047929260152406,46.01577311128915 L 11.047736179019887,46.015512318044884 L 11.04734414951318,46.013028688444386 L 11.04731379673906,46.012827095111874 L 11.047089480803029,46.01133690496921 L 11.045639107344341,46.00169987310411 L 11.04524585040787,45.999096013242934 L 11.04461243414978,45.99587546157974 L 11.043532385121,45.99493188415823 L 11.040135116938506,45.99183955175891 L 11.039508523259101,45.99125386140931 L 11.03936754027514,45.99103346798336 L 11.039221022022561,45.99079063040845 L 11.038039354367815,45.98816676614354 L 11.037433727340018,45.98663032251579 L 11.03610298248671,45.98245735042922 L 11.035826235982304,45.98148560927029 L 11.035092508538483,45.98200406223353 L 11.034698077208137,45.982377425303824 L 11.032376951869903,45.9850784051503 L 11.03226318142247,45.985235358393275 L 11.031671148805051,45.9862897677642 L 11.031128182700975,45.98898848435606 L 11.031094327907613,45.989254300075615 L 11.031279402080704,45.98974545643891 L 11.031587215407267,45.990371829476025 L 11.031858997623912,45.99074341413924 L 11.032172688202214,45.991287396182194 L 11.0322295615943,45.991658343770325 L 11.03237588790371,45.993220535013265 L 11.03239597664714,45.99345280119423 L 11.032384106716478,45.994523896120036 L 11.03209413901421,45.99714471234376 L 11.030977629459237,45.99966991967014 L 11.029567024706434,46.00183562685714 L 11.02929456101303,46.002137238822066 L 11.029078045267518,46.00243027708225 L 11.028941786817304,46.00265774729136 L 11.027589344743658,46.005802492948625 L 11.026981501152434,46.009863603944396 L 11.027481324006338,46.014523416379916 L 11.028536302651801,46.023391147055044 L 11.02808859862979,46.030777410330565 L 11.026421609143936,46.03846558666401 L 11.02638986010273,46.039026840114985 L 11.026116744769398,46.043856997838404 L 11.028475118592535,46.04626677000693 L 11.028602564097156,46.04642968378692 L 11.027904986735807,46.04678184005714 L 11.026413534342689,46.04753322993172 L 11.025235214073469,46.04808642730298 L 11.024734347828208,46.048305549386114 L 11.024144835560437,46.0485214848784 L 11.021928607337678,46.04929072425084 L 11.021436960737882,46.049369648406234 L 11.023672377313027,46.05341291058599 L 11.023182277006937,46.0632636609265 L 11.02284170938675,46.06491941418764 L 11.021616272499609,46.07104620340253 L 11.021577971315624,46.071336845398314 L 11.02154057664639,46.07194801816943 L 11.021618316135589,46.07210857485552 L 11.02424104657472,46.075438389442326 L 11.024754598898665,46.075362489370306 L 11.025790825049068,46.07531372488433 L 11.027302343108907,46.075472827591106 L 11.027565200166269,46.07550585788813 L 11.027850508071273,46.07561225753085 L 11.028037381234029,46.07569080043588 L 11.02818466037224,46.0757875013311 L 11.028259707973934,46.07587022320201 L 11.028111465882159,46.07953982658054 L 11.027866130338417,46.08208489425344 L 11.027771223884036,46.082473757854125 L 11.026945429958877,46.08568291201385 L 11.029155949205295,46.09203093937294 L 11.029422543632288,46.09200904425421 L 11.029699079790452,46.091978030899234 L 11.032421308321327,46.09156324286875 L 11.03369147695827,46.090733574972 L 11.034677955219554,46.08985345309417 L 11.034771326122653,46.08967522382684 L 11.035135407768031,46.08843103862506 L 11.03546562874943,46.08686163660422 L 11.035515419310832,46.0863329282795 L 11.038202337714226,46.08404178328447 L 11.049784712074416,46.08760026919626 L 11.050024152865873,46.087694975150946 L 11.050880188833224,46.08805289394792 L 11.051197902244587,46.088248640558845 L 11.06763660111345,46.10210041163875 L 11.07362493857713,46.10861093153449 L 11.082984466091853,46.1208731969003 L 11.08193614642324,46.12502438488331 L 11.083912825169715,46.12549014281491 L 11.084201988104418,46.12562014416614 L 11.08845305140973,46.12861225295276 L 11.092762977965416,46.13176431844657 L 11.100620056116403,46.133321467889694 L 11.101162418492299,46.13321789529037 L 11.113118436239889,46.13663232084343 L 11.113177281221285,46.136651758780275 L 11.118398443607903,46.13839223539859 L 11.118758121892695,46.13860826950246 L 11.11880078549411,46.138633910633715 L 11.119066148467441,46.13907107650251 L 11.119061725156275,46.1395230531895 L 11.119061463624195,46.13954943449845 L 11.118811661435588,46.14125029468693 L 11.121621012789308,46.146675092288696 L 11.122635134661477,46.14802780743105 L 11.132466912829369,46.150467657166324 L 11.133381260894328,46.15051145201557 L 11.133871371982067,46.15053254753015 L 11.134651024235584,46.150563494831886 L 11.141473009514598,46.15071394935759 L 11.143285549854783,46.15063415890402 L 11.145934094479344,46.1504118447195 L 11.15788179034315,46.15121331865863 L 11.161991370655576,46.15211255697721 L 11.163410289984105,46.1484645421866 z" /></g></g></svg>