<svg xmlns="http://www.w3.org/2000/svg" xmlns:xlink="http://www.w3.org/1999/xlink" width="100.0" height="100.0" viewBox="10.90375786492534 45.89287747001402 0.44728389909663413 0.3551296353918971" preserveAspectRatio="xMinYMin meet"><g transform="matrix(1,0,0,-1,0,92.14088457541993)"><g><path fill-rule="evenodd" fill="#66cc99" stroke="#555555" stroke-width="0.008945677981932682" opacity="0.6" d="M 11.055129051371837,45.960537227830194 L 11.055846397774257,45.95998491188298 L 11.05666166797519,45.95920813925624 L 11.05775236885016,45.958147488146004 L 11.057566972947265,45.95292989209039 L 11.057031185306812,45.95177864332805 L 11.054186988859385,45.94962478432809 L 11.053152350033116,45.94934476726263 L 11.052835835946677,45.949302677716744 L 11.052116653779754,45.94925198778232 L 11.051655343197522,45.949179535809904 L 11.049799795490204,45.948541642630666 L 11.04348873952412,45.94622270585424 L 11.037258870063042,45.940855492218674 L 11.034867616638554,45.927282763766854 L 11.041148369314856,45.91853378213961 L 11.042520467901388,45.91707369634423 L 11.033599748257844,45.909443540350935 L 11.030834262285236,45.91075877247478 L 11.027149851026419,45.91344273009245 L 11.02760501497772,45.91454724313975 L 11.026669159554578,45.91538665191156 L 11.026579168118804,45.91545070133078 L 11.026538958148787,45.915479303218405 L 11.024727733108934,45.91671284284834 L 11.024328149234492,45.91687463424842 L 11.023005602760376,45.917385255744485 L 11.017875633651398,45.91670225852179 L 11.008857316738894,45.916929344077246 L 11.004634606380048,45.918248006043065 L 10.998558870112863,45.92063450507911 L 10.99802475725508,45.920934779752095 L 10.997603079447943,45.92104543596897 L 10.996717273953395,45.92124744941082 L 10.994023083701675,45.92182299043855 L 10.993371844052213,45.92188565480155 L 10.983593474983714,45.92158514553701 L 10.983186735169289,45.92074430098123 L 10.982882761159528,45.920073412239766 L 10.978971825019382,45.920576385545665 L 10.974268796568417,45.92318395674724 L 10.976761720103296,45.926012914241426 L 10.982547619697502,45.93370260085439 L 10.98391165632576,45.93545063715463 L 10.984682512192487,45.93624983433371 L 10.988228902896262,45.94152117881359 L 10.984429230459005,45.947276294436065 L 10.983911276948689,45.948043628159745 L 10.974878828330013,45.95853082359522 L 10.970871356790575,45.96269550676867 L 10.966440275541187,45.96716097747386 L 10.953351951180403,45.97194266262589 L 10.946174345031077,45.97518345914697 L 10.951865440092892,45.97862990626238 L 10.951886629363923,45.97875361681572 L 10.947060308617989,45.98433930971105 L 10.942469997051276,45.991746617050325 L 10.942617467751692,45.99286369168295 L 10.94323180879981,45.994329944122235 L 10.94711706153263,46.000307877596974 L 10.951540819248216,46.00696796716202 L 10.95227080410805,46.007864606227095 L 10.9531377945435,46.00894258255458 L 10.953710188499269,46.009803897090556 L 10.953916338860592,46.010181471916944 L 10.955818891182986,46.01532789964372 L 10.955999111746888,46.01587026072589 L 10.955670750549766,46.01676959998211 L 10.95466363638009,46.0183595305142 L 10.954187658117512,46.01879127678948 L 10.953272706468615,46.019534874985325 L 10.952475754266723,46.0198821880557 L 10.952447583729954,46.019789988708226 L 10.948708072788541,46.02174208095903 L 10.948257740536988,46.02200820849356 L 10.947734718835436,46.02244976532735 L 10.950262715001518,46.02573806429701 L 10.953557629211094,46.026429811926185 L 10.955959420214826,46.03230813404425 L 10.954446548154623,46.0327908623691 L 10.948149191335254,46.0346147905109 L 10.945827656511186,46.035238636997924 L 10.944134613271775,46.03565550875752 L 10.940730873701979,46.03688380600082 L 10.93991003876262,46.03822522297827 L 10.933435974824933,46.0487900303657 L 10.931812369759637,46.049563046020474 L 10.929770165494846,46.050951168682644 L 10.926301259987152,46.05332926966302 L 10.920999554988203,46.06178855160072 L 10.920432934344209,46.062748081792655 L 10.920323935262253,46.062934757358 L 10.9204109203992,46.064169966379716 L 10.920437277446789,46.06423742887262 L 10.920807394018004,46.06433988654762 L 10.92148901182096,46.06447719633232 L 10.92218829449303,46.064423738790346 L 10.928010735929359,46.062275436033424 L 10.928328830423098,46.06215313074941 L 10.928572403295906,46.061937023548026 L 10.930332408131328,46.055570968846965 L 10.932185603585056,46.058275379114804 L 10.931668845304237,46.06161854670262 L 10.9313170185726,46.06417577010344 L 10.93178692641133,46.064508057523 L 10.932540077659969,46.065025502032434 L 10.933347084560893,46.065539485843175 L 10.93471106087863,46.0663075494121 L 10.93889948999116,46.069155445361744 L 10.944229557937957,46.07298346501241 L 10.944608233328232,46.073303979772376 L 10.944858480332405,46.07355635916538 L 10.95298023880995,46.08362618649624 L 10.953086340449529,46.08377286694289 L 10.953197450041255,46.08395330409502 L 10.953298026401159,46.08510038257793 L 10.954243954896093,46.089226916548625 L 10.955544327269722,46.09395480361146 L 10.955634400720216,46.094090180405544 L 10.955756879143479,46.09421821887123 L 10.95584758722393,46.09429736370018 L 10.958746249879342,46.09668056162011 L 10.958927812597437,46.096823878060704 L 10.959051201227531,46.09686948441542 L 10.959212800225615,46.096866584900894 L 10.960716662997372,46.09675452239278 L 10.962112795796624,46.09664187708724 L 10.963131717926952,46.09654599901547 L 10.963951358457935,46.096452818224456 L 10.964347442567258,46.09668344059962 L 10.96481291642454,46.09697434193851 L 10.965331385114347,46.09734421638034 L 10.965801730777361,46.09768385696974 L 10.966211864111768,46.09811311896908 L 10.967851137005422,46.10005286032472 L 10.968227302596489,46.10182704831938 L 10.967510873352415,46.10561695472922 L 10.967549836232998,46.11009478632943 L 10.967594607944887,46.11272678306635 L 10.967702246310791,46.11406392995411 L 10.968790877228633,46.115140129428916 L 10.96938960414149,46.11556242480753 L 10.970597759410776,46.11637327359335 L 10.973186391937313,46.117964770497665 L 10.97484206468766,46.1189659044549 L 10.976217245820058,46.11975775184105 L 10.976603545343357,46.12040520609795 L 10.976855604498661,46.12082767034913 L 10.97847345262774,46.12358101777588 L 10.979382788252385,46.12521586969031 L 10.980337501858768,46.12761069639248 L 10.9811793992979,46.130069329811136 L 10.981819270289812,46.13156975940345 L 10.98464647940543,46.13661246292606 L 10.986280918917576,46.13865564326801 L 10.990545877854027,46.14142556539887 L 10.991201117926206,46.14189120170738 L 10.993074771012061,46.143128187462494 L 10.993936678566167,46.143605464917854 L 10.996513499968291,46.144715194775095 L 10.998973579283847,46.14433746801991 L 10.999264503198383,46.14414904785427 L 10.999508978325876,46.143985881932345 L 10.999835717492303,46.143707196593816 L 11.000141839658118,46.14335727896701 L 11.000637953078439,46.14330424469445 L 11.000869655388414,46.14329447337895 L 11.002672051237242,46.14341808095615 L 11.003322617515778,46.14349703315997 L 11.005786869159255,46.14466235128181 L 11.019095220693012,46.15051239574932 L 11.020913686277419,46.15128969487291 L 11.022024277388942,46.14910470354433 L 11.024874599267488,46.146856628226665 L 11.025124369408513,46.14669344231429 L 11.036919187996922,46.14180170038659 L 11.038015705344606,46.14155684627932 L 11.039780582713329,46.14123048784542 L 11.041070286684766,46.141006063130874 L 11.04633651153409,46.14145644264727 L 11.047109497658562,46.141655640231725 L 11.04719529669195,46.141686083071946 L 11.050555539410139,46.14479011158382 L 11.050691960074959,46.14508662037943 L 11.050615485343606,46.1451760089475 L 11.049497273253984,46.14590684942792 L 11.062032487158906,46.151782716685034 L 11.065405741906403,46.150781401158895 L 11.064634511859472,46.14459840482923 L 11.064479703919066,46.14448522444892 L 11.063771502526583,46.14244866752136 L 11.063712721537415,46.141957985422465 L 11.063854657104622,46.141341191416295 L 11.065355505838273,46.13783129133113 L 11.066278721446121,46.136256990793754 L 11.068413575968698,46.13420299970954 L 11.070553427677064,46.13216771504545 L 11.076379311672685,46.135356064570495 L 11.073226316477127,46.14055674782862 L 11.073170525142054,46.140709920924415 L 11.073072483281157,46.141656684154796 L 11.073036787024911,46.142352939847214 L 11.073283908679812,46.14283747196271 L 11.073842867735372,46.14379944401667 L 11.074502481734598,46.14489681586833 L 11.07477220999379,46.14529911295008 L 11.07510082726271,46.145727969177095 L 11.082966676562242,46.154249274338426 L 11.083120685445868,46.15441130964586 L 11.08324306737578,46.1545244474348 L 11.085240860041793,46.15539142220649 L 11.085956174053726,46.15548603068712 L 11.087607429152659,46.155695403663096 L 11.088097123213068,46.1557398188817 L 11.088878069128373,46.1557637001049 L 11.092261888021167,46.155756018805725 L 11.092830831812096,46.155917001943116 L 11.108419899912994,46.163098740931 L 11.109067750565776,46.16341368756189 L 11.111191496564095,46.166216819449865 L 11.111547765992114,46.17268556058734 L 11.11129910412045,46.174686267251744 L 11.1126294847723,46.17467200055732 L 11.11408462687467,46.17468420036816 L 11.114569145287057,46.17473195145383 L 11.121279741758562,46.176081284452884 L 11.121060421934754,46.17729694342744 L 11.120988343365875,46.177465021097944 L 11.1208901756029,46.177561827091175 L 11.12025152897991,46.17823214357107 L 11.121378348690198,46.18002094931669 L 11.122024410047331,46.18099446519298 L 11.122707772689544,46.182005622969285 L 11.12280373245592,46.182096039428366 L 11.124185453618582,46.18224297353641 L 11.124796096127987,46.182279682811135 L 11.125162647660655,46.18228176930707 L 11.125459614162699,46.18224229313456 L 11.12573023761204,46.18215022155967 L 11.125941775685078,46.182039099658176 L 11.131650210692495,46.17838331496514 L 11.136093621315894,46.18054264831074 L 11.136419299505008,46.182203244785946 L 11.136592371501694,46.18308039984106 L 11.139884265252826,46.18789909443541 L 11.140114577682652,46.18802767957819 L 11.14780117617438,46.18850686084821 L 11.150592913262168,46.18822377992376 L 11.155281291507416,46.1875721094363 L 11.156799534591535,46.18659365393928 L 11.156928732299276,46.18649619630472 L 11.15802041488402,46.18515496904992 L 11.160088082504789,46.184052436548875 L 11.16074507714013,46.18374859733214 L 11.161369868339873,46.18351964662122 L 11.16197864799641,46.18337307376681 L 11.162409744580156,46.183335220696755 L 11.162976052212416,46.183529379938996 L 11.163542450905592,46.18376095254265 L 11.163769128046548,46.18392170624486 L 11.167157491352706,46.18653665479259 L 11.167259530256297,46.186622936008156 L 11.181053612470008,46.20301965511792 L 11.18319842329036,46.20558427200228 L 11.183646269621946,46.20690773532956 L 11.183107626133156,46.20689104184791 L 11.180532341225602,46.20712470602274 L 11.17893773793294,46.20728562525805 L 11.176649902518111,46.20790524236899 L 11.171835730352122,46.211853445277086 L 11.171657332735071,46.212014341503384 L 11.171386714162885,46.21267199237577 L 11.171359127497675,46.21275352624566 L 11.171394160854563,46.212860855724905 L 11.171507789207412,46.212989198643925 L 11.171691952531017,46.21313870614764 L 11.172083315939346,46.213405781415474 L 11.172299699866516,46.2135501600347 L 11.172509429702245,46.21364967058537 L 11.172737898098369,46.21373083561159 L 11.172987257490059,46.21380710367938 L 11.17320474450298,46.213856955839105 L 11.173466895483855,46.213887969222775 L 11.173885940889152,46.213911499010266 L 11.174334140972116,46.2139344716096 L 11.174477730150958,46.21391824699982 L 11.17465448713481,46.21379787436196 L 11.174797229019248,46.213678166829084 L 11.175027083337987,46.21350727343896 L 11.176146723090612,46.21399447033991 L 11.176333446130725,46.21408541713432 L 11.176880201165297,46.21455201529568 L 11.176973890031176,46.214667239407895 L 11.17705187549132,46.214917762207904 L 11.177222649871913,46.21563001755375 L 11.177240823905409,46.216007683571384 L 11.177230235625826,46.21635439663769 L 11.17696140601407,46.22312316240679 L 11.176877257819218,46.22447929024109 L 11.176856257195283,46.224727200129294 L 11.176694048201309,46.22488779458302 L 11.176386894255248,46.225154647930005 L 11.17500935377672,46.22635091004962 L 11.174564267669673,46.22673739148345 L 11.172691176809986,46.22889256114997 L 11.176059599237211,46.231441035069004 L 11.183654656017815,46.22579782323266 L 11.2016509380793,46.2228840439271 L 11.200592939486032,46.22001994959555 L 11.196638290019537,46.20771174546973 L 11.19651964796644,46.20697151140817 L 11.196352100018455,46.205980209084295 L 11.192572081054033,46.199352141260135 L 11.187224252750658,46.19874448514182 L 11.179884112801037,46.193299028041 L 11.179243767090007,46.19266359847279 L 11.176186067511734,46.189101621716986 L 11.175335420549008,46.18794875649169 L 11.175346972819094,46.187870234779844 L 11.177458063172118,46.17649329166965 L 11.18079617800277,46.16458326711459 L 11.180861251178504,46.16343850731946 L 11.180867893285692,46.163311306499025 L 11.17907491337782,46.15780199139141 L 11.178011941566403,46.15692879285245 L 11.174037124788518,46.15646821604073 L 11.172097484717337,46.1560397745021 L 11.171509786955978,46.155576675273835 L 11.171254636274814,46.1547072848246 L 11.171254277997836,46.15420210902239 L 11.1922460786402,46.15390853026118 L 11.192762730501176,46.153933379250304 L 11.19335431846201,46.15400722093538 L 11.194058554144595,46.15412648858654 L 11.194401746943521,46.15427401284059 L 11.194918960855924,46.15480776474713 L 11.19572627950334,46.15541022592557 L 11.196320044324487,46.155820826289855 L 11.196475487825584,46.1558963996184 L 11.197437565844798,46.15608418008565 L 11.204693656946729,46.15749433870509 L 11.205415003723347,46.15751632272266 L 11.205847613049837,46.15732368489504 L 11.206101879843617,46.157197615695324 L 11.206796619573034,46.156717561614855 L 11.207539186042874,46.15620413472891 L 11.209941551485496,46.154538149612705 L 11.208595303596951,46.144434073033196 L 11.205915143471236,46.1422564959749 L 11.205350362750284,46.14177032759844 L 11.204812905758212,46.141269506646154 L 11.204218380368669,46.14067812065143 L 11.203692253829312,46.13993393141692 L 11.203231446082116,46.139164278124575 L 11.203070239321859,46.13870535383552 L 11.202799207803196,46.13766823174593 L 11.202613341328226,46.13711536992231 L 11.201701046429779,46.135197820341055 L 11.201587596552393,46.13499044687584 L 11.200999296962333,46.13414810994987 L 11.19942712251798,46.132338859930826 L 11.195665516983588,46.12951462926941 L 11.19501602406187,46.12919598270369 L 11.194313121034966,46.12885797322817 L 11.189713140457325,46.12682432336364 L 11.189436158961081,46.12615041573849 L 11.189061199281792,46.12569070039166 L 11.188630818908132,46.124990945505694 L 11.188515279814213,46.12447333895426 L 11.187322358904341,46.118608044836755 L 11.188602669286484,46.11061268898049 L 11.188701827850243,46.11047118129759 L 11.199229727847102,46.1065234238911 L 11.208378013646715,46.10808332291747 L 11.217070514613669,46.110319840274805 L 11.221215458091615,46.1086185664546 L 11.221509278167684,46.108306648372384 L 11.221583891490681,46.108201513519866 L 11.221688334806004,46.107770443894445 L 11.221921206649654,46.10507300110946 L 11.222006906688373,46.102859256578114 L 11.221453090820114,46.10007853206364 L 11.221281083561463,46.099397522724914 L 11.220543893982457,46.09735584400829 L 11.21977035354762,46.095457240690955 L 11.219845116614378,46.09534556052115 L 11.223728956224662,46.09066612883753 L 11.225169474333558,46.08979503750371 L 11.22583073892416,46.08978945553259 L 11.226324832414525,46.08986941147002 L 11.227162290011144,46.09006630052428 L 11.236460938036833,46.09594979209879 L 11.237300690018026,46.096707655090334 L 11.241074663386033,46.09865922808677 L 11.246966610500658,46.09935039269687 L 11.252363854119654,46.09995017812466 L 11.259317540463037,46.10096342878347 L 11.266764124012484,46.10449657885179 L 11.266107595753027,46.1030497258134 L 11.268221108013737,46.093151217772785 L 11.268306946161404,46.093005222656785 L 11.26946080695894,46.091256922564426 L 11.269697080223311,46.09100603823737 L 11.27490645518608,46.08961778540806 L 11.280782226192509,46.08812397297911 L 11.28523458292346,46.084662803137114 L 11.282131050013252,46.081013189380634 L 11.283497012150617,46.071895323655404 L 11.278871240003363,46.07431967271318 L 11.27717493900434,46.07561349363867 L 11.27145867808265,46.0746686048669 L 11.270159761102832,46.07426429251393 L 11.269381598793155,46.073999998365 L 11.268561575545318,46.07355218225919 L 11.268004225563747,46.073239881843286 L 11.26466592810618,46.07131360791944 L 11.25633841257531,46.063372349563416 L 11.257891342439196,46.052489427218894 L 11.259924343584329,46.04909701701806 L 11.260230463830409,46.04879837469276 L 11.2610690301935,46.04798687811487 L 11.26336315170406,46.046290317510426 L 11.265278558407783,46.04616744988584 L 11.267905720770136,46.045904376086504 L 11.268267137536197,46.0458249631485 L 11.269662061635737,46.045327308502515 L 11.271933612943757,46.044469943743394 L 11.274067932641367,46.04345801279501 L 11.283433435392734,46.03671067960508 L 11.283386177069417,46.036642942044416 L 11.2824024262139,46.036013836561615 L 11.27462034608388,46.03123962104745 L 11.273087128021936,46.03038521120538 L 11.273864182742683,46.02953819601551 L 11.274416844714398,46.02893638180409 L 11.274974428849681,46.028360803319025 L 11.276217324774752,46.0272817506956 L 11.277039109593193,46.02660399725216 L 11.272017913126673,46.02278829321617 L 11.271211189829128,46.02286643665788 L 11.26958989000968,46.02394570158436 L 11.267870743083252,46.026243518707105 L 11.267246946067182,46.0272919252785 L 11.26683206383163,46.028222335802596 L 11.259603445583954,46.032009260813176 L 11.258478432200063,46.03212297361294 L 11.250661280113984,46.03119385879966 L 11.246002625155722,46.02457297949219 L 11.245950789128372,46.024426700226336 L 11.2459727501241,46.02438942022095 L 11.249192043601328,46.02183985619903 L 11.250946349989214,46.020485536490206 L 11.253595662309289,46.01864878366286 L 11.253774120844003,46.018582977256635 L 11.25392436359459,46.018591792859674 L 11.254203121919426,46.01862417210622 L 11.254332492461169,46.01859911233554 L 11.255587029644152,46.018138534646496 L 11.256031024249396,46.017944053937306 L 11.256183165763092,46.01784809229675 L 11.25634629302686,46.017737240753206 L 11.256444791712491,46.01763706578097 L 11.259522491706083,46.01435935680905 L 11.260684847439641,46.01302327816217 L 11.237072275119276,46.01037746338966 L 11.233744755246693,46.008810557550106 L 11.232498282824245,45.99486351155469 L 11.233626990922078,45.99105806003991 L 11.23404232847121,45.99001326186258 L 11.235936059207896,45.98605317037856 L 11.236035425585017,45.98589675622512 L 11.236340528100577,45.985640978233675 L 11.236862402453387,45.98527092696169 L 11.237186321424558,45.985172547851384 L 11.237853597480933,45.98509197457518 L 11.240739329997238,45.985931969481186 L 11.24514578560043,45.98006071650608 L 11.244922718581112,45.97420372101024 L 11.241616861623106,45.96747144693965 L 11.234649968679292,45.95765374565959 L 11.233522960167056,45.956193061015284 L 11.232143628096246,45.95419235708994 L 11.232038478938462,45.95406418162386 L 11.230148848331536,45.952210198192724 L 11.22205393455716,45.945806820096244 L 11.221749622354096,45.94567023059379 L 11.216678698189954,45.94555050471124 L 11.215392016119141,45.94586492440249 L 11.214094060333629,45.94622043260379 L 11.20240495242859,45.94391874712751 L 11.202207992129663,45.94378650707196 L 11.198907699839806,45.94157598550019 L 11.19517539743125,45.939171755219135 L 11.193279837135291,45.937969421670864 L 11.19274808565981,45.93800361218871 L 11.192414221264398,45.93809144162308 L 11.19172866655766,45.93840551856659 L 11.191063567990337,45.93879835248727 L 11.186556268554964,45.94168009932266 L 11.185873844864386,45.94258580569351 L 11.185802031054571,45.94274638780551 L 11.185583310530426,45.94348644390239 L 11.185519261717731,45.944302361519846 L 11.185521920171249,45.94451582204675 L 11.182236359224616,45.944562860421215 L 11.16564839768801,45.943025737865746 L 11.159542101857385,45.939152056383556 L 11.158930255248361,45.9385130593366 L 11.15798044934535,45.93786144118802 L 11.147487802600793,45.93169649585584 L 11.147188058291757,45.93160911714325 L 11.145255362878043,45.931095606550606 L 11.124213741964281,45.92171619375106 L 11.116495659669182,45.92560256771546 L 11.106645554447402,45.928407960384995 L 11.103837363300919,45.928976085853655 L 11.103749884918694,45.92936462935667 L 11.10188981277523,45.941214460520605 L 11.101733908424663,45.94526137530944 L 11.100057840040472,45.945987611807794 L 11.09940109442222,45.94619430065693 L 11.098522632183192,45.946003069718564 L 11.094844150650308,45.94675749889241 L 11.094187140267993,45.94811741274094 L 11.094042189139087,45.948685875860484 L 11.094173094485587,45.9490926171241 L 11.094326799068778,45.949506038998685 L 11.094426399854695,45.94964930009409 L 11.094568153859617,45.949841648888075 L 11.094711067549555,45.94996654812369 L 11.095024791054744,45.950156610385555 L 11.09539788080737,45.95033216379561 L 11.095520784794463,45.950370682928174 L 11.095703005181557,45.95039845515492 L 11.097351530315287,45.950461064781685 L 11.098946846900743,45.950493217949784 L 11.09988108859309,45.95053479393984 L 11.102092512702752,45.950984366859686 L 11.103965964143185,45.95140482289281 L 11.104627991570196,45.951653972860214 L 11.105144909217529,45.95190566457657 L 11.105920373042148,45.95243311982888 L 11.106596657843046,45.95310591903173 L 11.107445713020097,45.9540462725006 L 11.107844813856376,45.95473035292445 L 11.107536271061544,45.96728908061859 L 11.105398695048168,45.96280354296515 L 11.103480292851525,45.95965785046662 L 11.103374705701974,45.95954827452445 L 11.09752124536977,45.95463039500697 L 11.094842851812134,45.954143085403054 L 11.093055877260047,45.95400056224796 L 11.092963564095866,45.95405600529618 L 11.09111071817107,45.9543026937449 L 11.089649223518148,45.95449528168662 L 11.08735193560736,45.95475807503002 L 11.079997498772702,45.954020414428754 L 11.078907047391818,45.953855694619314 L 11.078487915479878,45.953771045571294 L 11.07848190700102,45.9536774972751 L 11.078662217447345,45.95260269842146 L 11.077437066141972,45.953127086431465 L 11.07097566878584,45.957718752300686 L 11.07009382600463,45.95903167031604 L 11.069251318511366,45.964551367282894 L 11.069273510278343,45.96465608859851 L 11.07072107988427,45.96678468351997 L 11.06965539756302,45.967091460428044 L 11.055129051371837,45.960537227830194 z M 11.128557095050871,45.97496095010347 L 11.125576635157726,45.97462970389278 L 11.113342921537418,45.97325367529243 L 11.113078545544733,45.973169350369425 L 11.109785800793844,45.9574625284867 L 11.111863284590079,45.95398413407084 L 11.12614712309325,45.95446601551542 L 11.129636057904134,45.9555090187975 L 11.140271913519447,45.95912673752893 L 11.145681001894811,45.961440162952485 L 11.14455983156396,45.96445169701032 L 11.141067467713606,45.97132624740878 L 11.137492546581107,45.97184217066808 L 11.132699948594304,45.97358370337379 L 11.132817557201783,45.974661447863284 L 11.128557095050871,45.97496095010347 z" /><path fill-rule="evenodd" fill="#66cc99" stroke="#555555" stroke-width="0.008945677981932682" opacity="0.6" d="M 11.32703327779966,46.04909758095824 L 11.316629362375533,46.048916994156095 L 11.307552306611148,46.049206668569 L 11.302014464322347,46.061104926671625 L 11.314492895591824,46.060173791289095 L 11.334475693685063,46.050030378628584 L 11.32703327779966,46.04909758095824 z" /></g></g></svg>