<svg xmlns="http://www.w3.org/2000/svg" xmlns:xlink="http://www.w3.org/1999/xlink" width="100.0" height="100.0" viewBox="11.119236748 46.070812448 0.007982604000000393 0.001851903999998683" preserveAspectRatio="xMinYMin meet"><g transform="matrix(1,0,0,-1,0,92.1434768)"><polyline fill="none" stroke="#66cc99" stroke-width="0.00015965208000000785" points="11.1195324,46.0720446 11.119568,46.072033 11.1196528,46.0720071 11.119714,46.0719886 11.1199072,46.0722786 11.1200523,46.0723687 11.1202069,46.0723548 11.120333,46.0723435 11.1211572,46.072104 11.121522,46.0720253 11.1216036,46.0719997 11.122157,46.0718194 11.1227893,46.071621 11.1229236,46.0715789 11.1230127,46.0715521 11.1236454,46.0713473 11.1238687,46.0712638 11.123933,46.0712932 11.1243025,46.0716139 11.1244219,46.0717352 11.1246655,46.072085 11.1247413,46.0720613 11.1247973,46.0720435 11.125099,46.071994 11.1251285,46.071987 11.1251717,46.0719774 11.1256588,46.0718314 11.1257309,46.0718342 11.1260634,46.0716115 11.1262125,46.0716537 11.12632,46.0714926 11.1265677,46.07145 11.1265947,46.0714055 11.1267754,46.0711081 11.1269237,46.071152" opacity="0.8" /></g></svg>