<svg xmlns="http://www.w3.org/2000/svg" xmlns:xlink="http://www.w3.org/1999/xlink" width="100.0" height="100.0" viewBox="10.836883389240553 45.09497367728566 0.4614500859596742 0.34099868541142087" preserveAspectRatio="xMinYMin meet"><g transform="matrix(1,0,0,-1,0,90.53094603998274)"><path fill-rule="evenodd" fill="#66cc99" stroke="#555555" stroke-width="0.009229001719193483" opacity="0.6" d="M 11.254743436362961,45.113119780370404 L 11.254639162824294,45.11294656177094 L 11.254517933614633,45.11278475592188 L 11.254380987625403,45.1126360163841 L 11.254229724364299,45.11250186318844 L 11.254065689653133,45.112383667301884 L 11.253890559830454,45.112282636617074 L 11.253706124620335,45.112199803608355 L 11.253514268842455,45.112136014780496 L 11.253316953150346,45.1120919220179 L 11.253116193994659,45.112067975922756 L 11.25291404301622,45.11206442121009 L 11.113404043016219,45.11666775454349 L 11.113162157584334,45.11669050041683 L 11.1129248148242,45.116742407556266 L 11.065846481490901,45.13008074088957 L 11.065580645313723,45.13017681938392 L 11.042610645313724,45.14036681938392 L 11.042363140552826,45.140498084425715 L 11.041326473886125,45.14114475109241 L 11.041206406238505,45.1412258335239 L 10.854871406238505,45.2771391668572 L 10.854723721938287,45.277258007514035 L 10.854587952175551,45.277390296310905 L 10.854465316629623,45.277534844839515 L 10.854356916989392,45.277690354557045 L 10.854263727056368,45.27785542845151 L 10.85418658399659,45.278028583591706 L 10.85410991732989,45.27822525025841 L 10.854046707198723,45.27841490625686 L 10.854002746431636,45.27860992515182 L 10.853978474250747,45.27880835846472 L 10.853974133164986,45.279008223602766 L 10.85398976654714,45.27920752366748 L 10.8540252182005,45.27940426740616 L 10.854080133919453,45.27959648910692 L 10.854153965028445,45.27978226823863 L 10.886625631695146,45.35090893490523 L 10.886764013623049,45.35116197755559 L 10.889464013623048,45.355350310888994 L 10.889566194709282,45.35549441821079 L 10.889680693592785,45.35562894664739 L 10.889806616956283,45.355752846611495 L 10.890108283622984,45.35602451327809 L 10.890128636803087,45.356042593044464 L 10.936546970136387,45.39671425971116 L 10.936698747255182,45.39683476291661 L 10.936861474704784,45.39694001068837 L 10.947029808038083,45.40283834402167 L 10.947249319565257,45.4029482579001 L 10.948410986231957,45.4034432579001 L 10.948604733546619,45.40351424555368 L 10.948804763844656,45.4035648928514 L 10.949008947940124,45.403594660687354 L 11.112533947940124,45.41887299402075 L 11.112706158976861,45.418881618772645 L 11.112878472890559,45.41887537836676 L 11.113049608913789,45.418854319186515 L 11.12028127558049,45.41764598585312 L 11.120498201417574,45.41759720956791 L 11.198586534750874,45.395413876234606 L 11.198766867345768,45.395353240151366 L 11.198940622412769,45.39527574333811 L 11.199106227617108,45.395182087074744 L 11.199262184373303,45.39507311887035 L 11.199407081406079,45.39494982479399 L 11.199539607521201,45.39481332055163 L 11.199658563470654,45.39466484138992 L 11.207800230137353,45.38344817472322 L 11.207912709498261,45.38327507717047 L 11.208006747034503,45.38309130744723 L 11.281068413701103,45.22007464078063 L 11.281140452092462,45.21988986522453 L 11.281193836335145,45.21969886350047 L 11.281228041508088,45.219503513706236 L 11.281242731275794,45.219305736693705 L 11.28123776119548,45.21910747718129 L 11.281206094528882,45.21868414384789 L 11.281165065824943,45.21840411109648 L 11.281083399158243,45.21803244442988 L 11.28107086678343,45.21797892850891 L 11.25526420011673,45.114222261842215 L 11.255217812110761,45.114063946053946 L 11.255158534196266,45.1139099919544 L 11.25508676969626,45.113761447037106 L 11.254743436362961,45.113119780370404 z" /></g></svg>