<svg xmlns="http://www.w3.org/2000/svg" xmlns:xlink="http://www.w3.org/1999/xlink" width="100.0" height="100.0" viewBox="11.037168920000001 45.10690892 0.22493915999999814 0.09833415999999318" preserveAspectRatio="xMinYMin meet"><g transform="matrix(1,0,0,-1,0,90.312152)"><polyline fill="none" stroke="#66cc99" stroke-width="0.004498783199999963" points="11.058642,45.178098 11.058642,45.178098 11.058642,45.178098 11.059379,45.178003 11.060042,45.177979 11.061113,45.177951 11.061046,45.178224 11.060988,45.178392 11.060588,45.178541 11.060297,45.178475 11.060159,45.178454 11.060095,45.17845 11.060019,45.178449 11.059906,45.178455 11.059761,45.178478 11.059152,45.178595 11.05907,45.178605 11.059,45.178608 11.058868,45.178601 11.058767,45.17859 11.058677,45.178576 11.058536,45.178543 11.058291,45.178471 11.058102,45.178405 11.057723,45.178267 11.057723,45.178267 11.058102,45.178405 11.058291,45.178471 11.058536,45.178543 11.058677,45.178576 11.058767,45.17859 11.058868,45.178601 11.059,45.178608 11.05907,45.178605 11.059152,45.178595 11.059761,45.178478 11.059906,45.178455 11.060019,45.178449 11.060095,45.17845 11.060159,45.178454 11.060297,45.178475 11.060588,45.178541 11.060988,45.178392 11.061046,45.178224 11.061113,45.177951 11.060042,45.177979 11.059379,45.178003 11.058642,45.178098 11.058642,45.178098 11.059379,45.178003 11.060042,45.177979 11.061113,45.177951 11.061046,45.178224 11.060988,45.178392 11.060588,45.178541 11.060297,45.178475 11.060159,45.178454 11.060095,45.17845 11.060019,45.178449 11.059906,45.178455 11.059761,45.178478 11.059152,45.178595 11.05907,45.178605 11.059,45.178608 11.058868,45.178601 11.058767,45.17859 11.058677,45.178576 11.058536,45.178543 11.058291,45.178471 11.058102,45.178405 11.057723,45.178267 11.057723,45.178267 11.058102,45.178405 11.058291,45.178471 11.058536,45.178543 11.058677,45.178576 11.058767,45.17859 11.058868,45.178601 11.059,45.178608 11.05907,45.178605 11.059152,45.178595 11.059761,45.178478 11.059906,45.178455 11.060019,45.178449 11.060095,45.17845 11.060159,45.178454 11.060297,45.178475 11.060588,45.178541 11.060988,45.178392 11.061046,45.178224 11.061113,45.177951 11.060042,45.177979 11.059379,45.178003 11.058642,45.178098 11.058642,45.178098 11.059379,45.178003 11.060042,45.177979 11.061113,45.177951 11.061046,45.178224 11.060988,45.178392 11.060588,45.178541 11.060297,45.178475 11.060159,45.178454 11.060095,45.17845 11.060019,45.178449 11.059906,45.178455 11.059761,45.178478 11.059152,45.178595 11.05907,45.178605 11.059,45.178608 11.058868,45.178601 11.058767,45.17859 11.058677,45.178576 11.058536,45.178543 11.058291,45.178471 11.058102,45.178405 11.057723,45.178267 11.057184,45.178094 11.057184,45.178094 11.057723,45.178267 11.058102,45.178405 11.058291,45.178471 11.058536,45.178543 11.058677,45.178576 11.058767,45.17859 11.058868,45.178601 11.059,45.178608 11.05907,45.178605 11.059152,45.178595 11.059761,45.178478 11.059906,45.178455 11.060019,45.178449 11.060095,45.17845 11.060159,45.178454 11.060159,45.178454 11.060159,45.178454 11.060297,45.178475 11.060588,45.178541 11.06088,45.178617 11.061262,45.178717 11.0614,45.178742 11.061552,45.178756 11.061552,45.178756 11.061552,45.178756 11.062262,45.178802 11.062969,45.178874 11.063309,45.178888 11.063411,45.178873 11.063517,45.178835 11.063585,45.178792 11.063667,45.178764 11.063758,45.178755 11.063838,45.178764 11.063912,45.178787 11.063975,45.178822 11.064018,45.178863 11.064047,45.17891 11.06406,45.178971 11.064046,45.179033 11.064009,45.17909 11.063943,45.17914 11.063858,45.179173 11.063776,45.179186 11.063692,45.179182 11.063613,45.179162 11.063544,45.179127 11.063485,45.179073 11.063453,45.179008 11.06345,45.178947 11.063472,45.178887 11.063517,45.178835 11.063585,45.178792 11.063667,45.178764 11.063758,45.178755 11.063838,45.178764 11.063912,45.178787 11.063975,45.178822 11.064018,45.178863 11.064047,45.17891 11.06406,45.178971 11.064046,45.179033 11.064009,45.17909 11.063943,45.17914 11.063858,45.179173 11.063771,45.179218 11.063712,45.17926 11.063589,45.179417 11.063589,45.179417 11.065179,45.179997 11.065014,45.180664 11.063172,45.180444 11.063172,45.180444 11.063118,45.180571 11.062919,45.181056 11.062795,45.181363 11.062746,45.181485 11.062387,45.182394 11.062103,45.182987 11.062034,45.18312 11.061941,45.183253 11.061827,45.183399 11.061672,45.183559 11.061236,45.183958 11.061103,45.184094 11.060838,45.184471 11.060894,45.184488 11.060941,45.184514 11.060978,45.184545 11.061007,45.184602 11.061017,45.184657 11.061046,45.18482 11.061008,45.184777 11.06097,45.184749 11.060906,45.184711 11.060851,45.184687 11.060765,45.184681 11.060625,45.184697 11.060472,45.184722 11.060472,45.184722 11.060207,45.185 11.059924,45.185426 11.059283,45.186352 11.058867,45.186923 11.058867,45.186923 11.058867,45.186923 11.058455,45.187394 11.058233,45.187611 11.057871,45.187888 11.057031,45.188475 11.055968,45.189134 11.054781,45.189827 11.051067,45.192143 11.050887,45.192357 11.050614,45.192682 11.050614,45.192682 11.048257,45.195536 11.047824,45.196052 11.047651,45.196264 11.047381,45.196585 11.047245,45.196648 11.047066,45.196666 11.046935,45.196654 11.046935,45.196654 11.046935,45.196654 11.046935,45.196654 11.047066,45.196666 11.047245,45.196648 11.047126,45.196818 11.047028,45.196912 11.045963,45.196447 11.045963,45.196447 11.045963,45.196447 11.045963,45.196447 11.047028,45.196912 11.047126,45.196818 11.047245,45.196648 11.047066,45.196666 11.046935,45.196654 11.045874,45.196304 11.045681,45.196343 11.0455,45.196416 11.045606,45.196294 11.045706,45.196178 11.045774,45.196101 11.046852,45.194859 11.047843,45.193676 11.048239,45.193244 11.048505,45.193004 11.048816,45.192795 11.049461,45.192454 11.049988,45.192209 11.050716,45.19187 11.050887,45.191789 11.050934,45.191767 11.051046,45.191713 11.051212,45.191635 11.051212,45.191635 11.051212,45.191635 11.051679,45.191413 11.054781,45.189827 11.055968,45.189134 11.057031,45.188475 11.057871,45.187888 11.058233,45.187611 11.058455,45.187394 11.058867,45.186923 11.059283,45.186352 11.059924,45.185426 11.060207,45.185 11.060472,45.184722 11.060753,45.184452 11.061103,45.184094 11.061236,45.183958 11.061672,45.183559 11.061827,45.183399 11.061941,45.183253 11.062034,45.18312 11.062103,45.182987 11.062387,45.182394 11.062746,45.181485 11.062795,45.181363 11.062919,45.181056 11.063118,45.180571 11.063172,45.180444 11.063336,45.180025 11.063427,45.179804 11.063589,45.179417 11.063596,45.179322 11.0636,45.179264 11.06359,45.179211 11.063544,45.179127 11.063485,45.179073 11.063453,45.179008 11.06345,45.178947 11.063472,45.178887 11.063517,45.178835 11.063585,45.178792 11.063667,45.178764 11.063758,45.178755 11.063838,45.178764 11.063912,45.178787 11.063975,45.178822 11.064018,45.178863 11.064047,45.17891 11.064187,45.178997 11.064328,45.179042 11.065385,45.179165 11.067015,45.179361 11.068846,45.179563 11.069529,45.179621 11.069789,45.179626 11.069918,45.179618 11.070026,45.179608 11.070231,45.179569 11.070333,45.179546 11.07046,45.17951 11.070596,45.179458 11.070714,45.179406 11.074062,45.177473 11.074268,45.177355 11.074402,45.177284 11.074508,45.177234 11.074632,45.177185 11.074814,45.177144 11.074982,45.177125 11.075609,45.177122 11.075732,45.177122 11.076325,45.17712 11.077054,45.177079 11.077341,45.177077 11.078201,45.17707 11.078515,45.177072 11.079061,45.177075 11.079406,45.177106 11.079674,45.17717 11.079832,45.177233 11.079928,45.177272 11.080202,45.177446 11.080536,45.17779 11.080136,45.177482 11.079868,45.177316 11.079855,45.177311 11.079782,45.177253 11.079587,45.177185 11.079477,45.177158 11.079351,45.177133 11.079235,45.177122 11.079049,45.177112 11.078669,45.177107 11.07858,45.177101 11.078515,45.177072 11.079061,45.177075 11.079406,45.177106 11.079674,45.17717 11.079832,45.177233 11.079928,45.177272 11.080202,45.177446 11.080536,45.17779 11.082278,45.179481 11.082453,45.179633 11.082697,45.179777 11.082968,45.179878 11.083296,45.179946 11.083824,45.180006 11.08406,45.180021 11.085603,45.180125 11.086332,45.180174 11.088356,45.18031 11.088661,45.180334 11.088956,45.180357 11.092519,45.180619 11.109794,45.181756 11.109794,45.181756 11.109794,45.181756 11.110179,45.181757 11.114134,45.181621 11.114436,45.181634 11.114809,45.181664 11.115841,45.181777 11.115983,45.181792 11.117233,45.181923 11.121203,45.182265 11.12313,45.182437 11.125713,45.182654 11.127613,45.182832 11.12805,45.182871 11.128515,45.182906 11.13072,45.18307 11.143842,45.183962 11.143842,45.183962 11.143842,45.183962 11.144123,45.183983 11.144206,45.183994 11.14432,45.184029 11.144388,45.184044 11.144487,45.184051 11.144581,45.184057 11.144645,45.184047 11.144715,45.184038 11.144813,45.184039 11.144897,45.184047 11.145019,45.184082 11.145139,45.184094 11.145268,45.184093 11.145437,45.184076 11.145588,45.184076 11.145815,45.1841 11.146229,45.184131 11.147125,45.184195 11.147998,45.184262 11.148844,45.184319 11.149747,45.184391 11.150913,45.184462 11.150913,45.184462 11.150952,45.184439 11.150981,45.184387 11.151008,45.184258 11.151034,45.184063 11.151067,45.183816 11.151093,45.183526 11.1511,45.183344 11.15109,45.183185 11.151094,45.183107 11.151097,45.183047 11.151116,45.182928 11.151146,45.182825 11.151197,45.182704 11.151242,45.182607 11.151276,45.182549 11.151486,45.182244 11.151578,45.182171 11.1517,45.182083 11.151936,45.181956 11.151977,45.181934 11.152111,45.181833 11.152489,45.180956 11.152551,45.180779 11.152551,45.180779 11.152551,45.180779 11.152926,45.179699 11.152926,45.179699 11.152926,45.179699 11.154056,45.176295 11.154196,45.176082 11.154404,45.175945 11.154404,45.175945 11.154404,45.175945 11.154642,45.175892 11.154901,45.175876 11.15516,45.175894 11.155355,45.17591 11.156139,45.1761 11.162411,45.177485 11.167093,45.178519 11.16715,45.178531 11.167459,45.178599 11.167836,45.178682 11.169288,45.179 11.169847,45.179122 11.169966,45.179148 11.175551,45.180372 11.176544,45.180583 11.178659,45.181034 11.179412,45.181197 11.179816,45.181295 11.180522,45.181466 11.181336,45.181665 11.182105,45.181832 11.182333,45.181884 11.18327,45.182117 11.184002,45.182299 11.184306,45.182374 11.184968,45.182539 11.184968,45.182539 11.184968,45.182539 11.187217,45.183098 11.19053,45.183876 11.190636,45.183869 11.190767,45.18385 11.190841,45.183822 11.190923,45.183812 11.191006,45.183822 11.191071,45.183695 11.191197,45.183455 11.191352,45.1832 11.191544,45.182896 11.191803,45.182505 11.192166,45.181918 11.192526,45.181372 11.193067,45.180519 11.194154,45.178826 11.194509,45.178259 11.194781,45.177824 11.194781,45.177824 11.195107,45.177241 11.195427,45.176658 11.195576,45.176245 11.195673,45.175975 11.195848,45.175394 11.195966,45.174929 11.19612,45.174333 11.196215,45.174068 11.196403,45.173738 11.196486,45.173592 11.196732,45.173231 11.196943,45.172937 11.19713,45.172688 11.19713,45.172668 11.197142,45.172649 11.197164,45.172637 11.197192,45.172632 11.197219,45.172637 11.197242,45.172649 11.197254,45.172667 11.197254,45.172667 11.197905,45.172167 11.198333,45.17181 11.198579,45.171556 11.198579,45.171556 11.198579,45.171556 11.20004,45.169945 11.200104,45.169871 11.200426,45.169523 11.200662,45.169317 11.200662,45.169317 11.200913,45.169189 11.201199,45.169053 11.201545,45.168911 11.201545,45.168911 11.201545,45.168911 11.203442,45.168239 11.203531,45.168208 11.203984,45.168048 11.204643,45.167817 11.204881,45.167714 11.205087,45.167612 11.205576,45.167327 11.205936,45.167113 11.206387,45.166797 11.206387,45.166797 11.206387,45.166797 11.20692,45.166373 11.207665,45.165772 11.208578,45.165056 11.208925,45.164801 11.209094,45.164684 11.209265,45.164553 11.209822,45.164052 11.210469,45.163409 11.210849,45.162973 11.210849,45.162973 11.210849,45.162973 11.211696,45.161891 11.212767,45.160653 11.212795,45.160629 11.212914,45.160527 11.213052,45.160437 11.213641,45.160074 11.21487,45.159354 11.215013,45.159293 11.215151,45.159253 11.215151,45.159253 11.215151,45.159253 11.215768,45.159118 11.215976,45.159074 11.216099,45.159039 11.216189,45.158996 11.21638,45.158858 11.217466,45.157933 11.217987,45.157489 11.218194,45.157313 11.218479,45.157112 11.218828,45.156924 11.219008,45.156848 11.219188,45.156787 11.219432,45.156728 11.219432,45.156728 11.219432,45.156728 11.219701,45.156685 11.219937,45.156673 11.220163,45.156679 11.220602,45.156728 11.223835,45.157256 11.224344,45.157337 11.224676,45.15737 11.224922,45.157377 11.225157,45.157357 11.225378,45.157317 11.225547,45.157271 11.225684,45.157225 11.22589,45.15714 11.226074,45.157048 11.226359,45.156887 11.226359,45.156887 11.226359,45.156887 11.226684,45.156684 11.226873,45.156578 11.227056,45.156496 11.227252,45.156427 11.227441,45.156378 11.229066,45.156144 11.229142,45.156133 11.229306,45.156113 11.229372,45.156101 11.229408,45.156084 11.229424,45.156052 11.229432,45.155868 11.229432,45.155868 11.229424,45.156052 11.229408,45.156084 11.229485,45.156081 11.22967,45.156076 11.229798,45.156083 11.229939,45.156101 11.229939,45.156101 11.229798,45.156083 11.22967,45.156076 11.229485,45.156081 11.229408,45.156084 11.229424,45.156052 11.229432,45.155868 11.229432,45.155868 11.229424,45.156052 11.229408,45.156084 11.229485,45.156081 11.22967,45.156076 11.229798,45.156083 11.229798,45.156083 11.22967,45.156076 11.229485,45.156081 11.229408,45.156084 11.229424,45.156052 11.229432,45.155868 11.229432,45.155868 11.229432,45.155868 11.22956,45.15375 11.22956,45.15375 11.22956,45.15375 11.229877,45.150172 11.230136,45.147243 11.230136,45.147243 11.230136,45.147243 11.23041,45.143592 11.23046,45.143034 11.230488,45.142733 11.230573,45.141958 11.230762,45.14111 11.23102,45.140081 11.231208,45.139191 11.231269,45.138767 11.231269,45.138767 11.231269,45.138767 11.231354,45.138113 11.231347,45.136377 11.231337,45.133845 11.231452,45.1335 11.231639,45.133339 11.231726,45.133295 11.231834,45.133267 11.232071,45.133256 11.232225,45.13325 11.232264,45.133241 11.232308,45.133232 11.23237,45.1332 11.232431,45.133124 11.232508,45.132928 11.232839,45.13222 11.232966,45.131965 11.23308,45.131816 11.23325,45.131686 11.234057,45.131067 11.234991,45.130392 11.235968,45.129713 11.236812,45.129068 11.237164,45.128799 11.238466,45.127855 11.239648,45.127011 11.240809,45.126192 11.242353,45.125089 11.244193,45.12379 11.246043,45.122495 11.246069,45.122477 11.247796,45.121248 11.248992,45.120359 11.250316,45.11938 11.251455,45.118516 11.251972,45.118136 11.252088,45.118049 11.252291,45.117897 11.253119,45.117262 11.253664,45.116873 11.253749,45.116807 11.253777,45.116723 11.253728,45.116614 11.253298,45.116213 11.252289,45.11524 11.252289,45.11524 11.252289,45.11524 11.252289,45.11524 11.253298,45.116213 11.253728,45.116614 11.253777,45.116723 11.253749,45.116807 11.253749,45.116807 11.253749,45.116807 11.253664,45.116873 11.253119,45.117262 11.252291,45.117897 11.252088,45.118049 11.251972,45.118136 11.251455,45.118516 11.250316,45.11938 11.250316,45.11938 11.250316,45.11938 11.248992,45.120359 11.247796,45.121248 11.246069,45.122477 11.246043,45.122495 11.246043,45.122495 11.246043,45.122495 11.244193,45.12379 11.242353,45.125089 11.240809,45.126192 11.239648,45.127011 11.238466,45.127855 11.237164,45.128799 11.236812,45.129068 11.236812,45.129068 11.236812,45.129068 11.235968,45.129713 11.234991,45.130392 11.234057,45.131067 11.23325,45.131686 11.23308,45.131816 11.23308,45.131816 11.23308,45.131816 11.232966,45.131965 11.232839,45.13222 11.232508,45.132928 11.232431,45.133124 11.23237,45.1332 11.23237,45.1332 11.23237,45.1332 11.232308,45.133232 11.232264,45.133241 11.232225,45.13325 11.232071,45.133256 11.231834,45.133267 11.231726,45.133295 11.231639,45.133339 11.231452,45.1335 11.231452,45.1335 11.231452,45.1335 11.231337,45.133845 11.231347,45.136377 11.231354,45.138113 11.231269,45.138767 11.231208,45.139191 11.23102,45.140081 11.230762,45.14111 11.230573,45.141958 11.230488,45.142733 11.23046,45.143034 11.23041,45.143592 11.230136,45.147243 11.229877,45.150172 11.22956,45.15375 11.229432,45.155868 11.229424,45.156052 11.229408,45.156084 11.229485,45.156081 11.229485,45.156081 11.229372,45.156101 11.229306,45.156113 11.229142,45.156133 11.229066,45.156144 11.227441,45.156378 11.227252,45.156427 11.227056,45.156496 11.226873,45.156578 11.226684,45.156684 11.226359,45.156887 11.226074,45.157048 11.22589,45.15714 11.225684,45.157225 11.225547,45.157271 11.225378,45.157317 11.225157,45.157357 11.224922,45.157377 11.224676,45.15737 11.224344,45.157337 11.223835,45.157256 11.220602,45.156728 11.220163,45.156679 11.219937,45.156673 11.219701,45.156685 11.219432,45.156728 11.219188,45.156787 11.219008,45.156848 11.218828,45.156924 11.218479,45.157112 11.218194,45.157313 11.217987,45.157489 11.217987,45.157489 11.217987,45.157489 11.217466,45.157933 11.21638,45.158858 11.216189,45.158996 11.216099,45.159039 11.215976,45.159074 11.215768,45.159118 11.215151,45.159253 11.215013,45.159293 11.21487,45.159354 11.213641,45.160074 11.213052,45.160437 11.212914,45.160527 11.212795,45.160629 11.212767,45.160653 11.211696,45.161891 11.211696,45.161891 11.211696,45.161891 11.210849,45.162973 11.210469,45.163409 11.209822,45.164052 11.209265,45.164553 11.209094,45.164684 11.208925,45.164801 11.208578,45.165056 11.208578,45.165056 11.208578,45.165056 11.207665,45.165772 11.20692,45.166373 11.206387,45.166797 11.205936,45.167113 11.205576,45.167327 11.205087,45.167612 11.204881,45.167714 11.204643,45.167817 11.203984,45.168048 11.203531,45.168208 11.203442,45.168239 11.201545,45.168911 11.201199,45.169053 11.200913,45.169189 11.200662,45.169317 11.200662,45.169317 11.200426,45.169523 11.200104,45.169871 11.20004,45.169945 11.199584,45.1705 11.199584,45.1705 11.198579,45.171556 11.198333,45.17181 11.197905,45.172167 11.197254,45.172667 11.197254,45.172687 11.197242,45.172705 11.19722,45.172718 11.197006,45.172963 11.196861,45.173088 11.196732,45.173231 11.196486,45.173592 11.196403,45.173738 11.196215,45.174068 11.19612,45.174333 11.195966,45.174929 11.195848,45.175394 11.195673,45.175975 11.195576,45.176245 11.195427,45.176658 11.195107,45.177241 11.194781,45.177824 11.194781,45.177824 11.194781,45.177824 11.194781,45.177824 11.194509,45.178259 11.194154,45.178826 11.193067,45.180519 11.192526,45.181372 11.192166,45.181918 11.191803,45.182505 11.191803,45.182505 11.191803,45.182505 11.191544,45.182896 11.191352,45.1832 11.191197,45.183455 11.191071,45.183695 11.191083,45.183851 11.191142,45.183897 11.191175,45.183954 11.191301,45.184054 11.19138,45.184096 11.191556,45.184161 11.191412,45.184149 11.191246,45.184141 11.191079,45.184138 11.191019,45.184162 11.190952,45.184173 11.190884,45.184172 11.190818,45.184158 11.190748,45.184125 11.190697,45.184078 11.19067,45.184021 11.190398,45.183871 11.187217,45.183098 11.184968,45.182539 11.184306,45.182374 11.184002,45.182299 11.18327,45.182117 11.182333,45.181884 11.182105,45.181832 11.181336,45.181665 11.180522,45.181466 11.179816,45.181295 11.179412,45.181197 11.178659,45.181034 11.176544,45.180583 11.175551,45.180372 11.169966,45.179148 11.169847,45.179122 11.169288,45.179 11.167836,45.178682 11.167459,45.178599 11.16715,45.178531 11.167093,45.178519 11.162411,45.177485 11.156139,45.1761 11.155355,45.17591 11.15516,45.175894 11.154901,45.175876 11.154642,45.175892 11.154404,45.175945 11.154196,45.176082 11.154056,45.176295 11.152926,45.179699 11.152551,45.180779 11.152489,45.180956 11.152111,45.181833 11.151977,45.181934 11.151936,45.181956 11.1517,45.182083 11.151578,45.182171 11.151486,45.182244 11.151276,45.182549 11.151242,45.182607 11.151197,45.182704 11.151146,45.182825 11.151116,45.182928 11.151097,45.183047 11.151094,45.183107 11.15109,45.183185 11.1511,45.183344 11.151093,45.183526 11.151067,45.183816 11.151034,45.184063 11.151008,45.184258 11.150981,45.184387 11.150952,45.184439 11.150913,45.184462 11.150913,45.184462 11.149747,45.184391 11.148844,45.184319 11.147998,45.184262 11.147125,45.184195 11.146229,45.184131 11.145585,45.184125 11.145466,45.184153 11.145374,45.184192 11.145276,45.18427 11.14519,45.184378 11.145176,45.184453 11.145115,45.18452 11.144997,45.184602 11.144941,45.18462 11.144883,45.18464 11.144743,45.184653 11.144601,45.184633 11.144515,45.184602 11.144446,45.184562 11.144401,45.184525 11.144358,45.184473 11.144332,45.184422 11.144319,45.184354 11.144277,45.184194 11.144253,45.184148 11.144207,45.184098 11.14413,45.18405 11.14406,45.18402 11.143842,45.183962 11.143842,45.183962 11.13072,45.18307 11.128221,45.182974 11.128109,45.183081 11.128072,45.183225 11.128072,45.183376 11.128174,45.183503 11.12825,45.183558 11.128285,45.183606 11.128304,45.183682 11.128269,45.183783 11.128237,45.183818 11.128156,45.183869 11.128017,45.183901 11.127967,45.183902 11.127844,45.183876 11.12778,45.183844 11.127714,45.183784 11.12768,45.183706 11.127687,45.18363 11.127745,45.183545 11.127702,45.183444 11.127697,45.183315 11.127605,45.183198 11.127498,45.183119 11.127278,45.183077 11.127047,45.183057 11.126881,45.18293 11.126726,45.182888 11.124569,45.182699 11.124478,45.182759 11.124435,45.182829 11.124435,45.182829 11.125502,45.182922 11.127047,45.183057 11.127278,45.183077 11.127498,45.183119 11.127605,45.183198 11.127697,45.183315 11.127702,45.183444 11.127857,45.183482 11.127946,45.183384 11.127981,45.183262 11.127974,45.183157 11.127966,45.183041 11.12784,45.182926 11.127613,45.182832 11.127613,45.182832 11.125713,45.182654 11.12313,45.182437 11.121203,45.182265 11.117233,45.181923 11.115983,45.181792 11.115841,45.181777 11.115841,45.181777 11.115841,45.181777 11.114809,45.181664 11.114436,45.181634 11.114134,45.181621 11.110179,45.181757 11.109794,45.181756 11.109794,45.181756 11.109794,45.181756 11.092519,45.180619 11.088956,45.180357 11.088661,45.180334 11.088356,45.18031 11.086332,45.180174 11.086332,45.180174 11.086332,45.180174 11.085603,45.180125 11.08406,45.180021 11.083824,45.180006 11.083296,45.179946 11.082968,45.179878 11.082697,45.179777 11.082453,45.179633 11.082278,45.179481 11.082278,45.179481 11.082278,45.179481 11.080136,45.177482 11.079868,45.177316 11.079855,45.177311 11.079653,45.177233 11.079538,45.1772 11.079405,45.177172 11.07927,45.177155 11.079042,45.17714 11.078201,45.17714 11.077041,45.17714 11.076977,45.177138 11.076325,45.17712 11.076325,45.17712 11.075732,45.177122 11.075609,45.177122 11.074982,45.177125 11.074814,45.177144 11.074632,45.177185 11.074508,45.177234 11.074402,45.177284 11.074402,45.177284 11.074402,45.177284 11.074268,45.177355 11.074062,45.177473 11.070714,45.179406 11.070596,45.179458 11.07046,45.17951 11.070333,45.179546 11.070231,45.179569 11.070026,45.179608 11.069918,45.179618 11.069789,45.179626 11.069457,45.179761 11.069339,45.179863 11.068945,45.180114 11.068499,45.180407 11.068499,45.180407 11.067015,45.179361 11.067015,45.179361 11.065385,45.179165 11.065385,45.179165 11.065385,45.179165 11.064174,45.179053 11.064073,45.179071 11.064009,45.17909 11.063943,45.17914 11.063858,45.179173 11.063776,45.179186 11.063692,45.179182 11.063613,45.179162 11.063544,45.179127 11.063485,45.179073 11.063453,45.179008 11.063289,45.178946 11.063066,45.178883 11.062969,45.178874 11.062262,45.178802 11.061552,45.178756 11.0614,45.178742 11.061262,45.178717 11.06088,45.178617 11.060588,45.178541 11.060297,45.178475 11.060159,45.178454 11.060095,45.17845 11.060019,45.178449 11.059906,45.178455 11.059761,45.178478 11.059152,45.178595 11.05907,45.178605 11.059,45.178608 11.058868,45.178601 11.058767,45.17859 11.058677,45.178576 11.058536,45.178543 11.058291,45.178471 11.058102,45.178405 11.057723,45.178267 11.057184,45.178094 11.056954,45.178033 11.056954,45.178033 11.057184,45.178094 11.057184,45.178094 11.057184,45.178094 11.057723,45.178267 11.058102,45.178405 11.058291,45.178471 11.058536,45.178543 11.058677,45.178576 11.058767,45.17859 11.058868,45.178601 11.059,45.178608 11.05907,45.178605 11.059152,45.178595 11.059761,45.178478 11.059906,45.178455 11.060019,45.178449 11.060095,45.17845 11.060159,45.178454 11.060297,45.178475 11.060588,45.178541 11.060988,45.178392 11.061046,45.178224 11.061113,45.177951 11.060042,45.177979 11.059379,45.178003 11.058642,45.178098" opacity="0.8" /></g></svg>