<svg xmlns="http://www.w3.org/2000/svg" xmlns:xlink="http://www.w3.org/1999/xlink" width="100.0" height="100.0" viewBox="11.037539266666668 45.105747599999965 0.22452479999996378 0.09921146666666658" preserveAspectRatio="xMinYMin meet"><g transform="matrix(1,0,0,-1,0,90.31070666666659)"><polyline fill="none" stroke="#66cc99" stroke-width="0.004490495999999276" points="11.0582183333333,45.1776066666667 11.0580666666667,45.1775733333333 11.0582116666667,45.1775266666667 11.05807,45.1775566666667 11.0581116666667,45.1775383333333 11.0582633333333,45.1776016666667 11.0582133333333,45.17757 11.058125,45.1774583333333 11.0582266666667,45.1775533333333 11.05753,45.17791 11.0602783333333,45.1785383333333 11.0619766666667,45.178685 11.0635383333333,45.1788316666667 11.0638083333333,45.1791133333333 11.0636533333333,45.1801283333333 11.0634616666667,45.1805933333333 11.0609683333333,45.1845466666667 11.0585616666667,45.1874683333333 11.051,45.19233 11.046855,45.1966366666667 11.0466266666667,45.1966066666667 11.0466133333333,45.1966416666667 11.0466133333333,45.1966433333333 11.0466133333333,45.1966433333333 11.045855,45.19633 11.0463416666667,45.19559 11.05125,45.1914116666667 11.0581266666667,45.187205 11.061395,45.1833216666667 11.0625416666667,45.1816716666667 11.0634183333333,45.1793666666667 11.063785,45.1788266666667 11.0745866666667,45.1770716666667 11.0798683333333,45.17744 11.083575,45.1799383333333 11.10339,45.1813166666667 11.13233,45.1831433333333 11.1503933333333,45.18447 11.150765,45.1842866666667 11.1523433333333,45.18063 11.1529633333333,45.1788766666667 11.1542133333333,45.1758883333333 11.1544033333333,45.1758166666667 11.1858316666667,45.1827366666667 11.1907666666667,45.183775 11.191015,45.18354 11.1938516666667,45.1787733333333 11.1985966666667,45.1710383333333 11.2019066666667,45.1685933333333 11.2065883333333,45.1662566666667 11.2102283333333,45.16288 11.2156083333333,45.15894 11.2195966666667,45.1564883333333 11.2263133333333,45.1566216666667 11.2294366666667,45.155525 11.2299166666667,45.1556966666667 11.2297683333333,45.1557483333333 11.2298366666667,45.1557816666667 11.2294283333333,45.1556583333333 11.229695,45.1508833333333 11.230265,45.1445083333333 11.231235,45.138115 11.231355,45.1335583333333 11.23233,45.1331066666667 11.23574,45.1299133333333 11.2454816666667,45.1229916666667 11.2495516666667,45.1198433333333 11.2537233333333,45.1166183333333 11.2524366666667,45.115115 11.2527416666667,45.1145233333333 11.25298,45.1140633333333 11.2527433333333,45.1140733333333 11.2533233333333,45.114705 11.2531266666667,45.1148283333333 11.2525383333333,45.1153433333333 11.2537483333333,45.11685 11.2501216666667,45.119545 11.2455366666667,45.1228833333333 11.236565,45.1292966666667 11.232995,45.1319633333333 11.2323416666667,45.1332433333333 11.2314566666667,45.1335683333333 11.2313883333333,45.138195 11.23046,45.1441516666667 11.2298716666667,45.1506383333333 11.22945,45.1560816666667 11.2292383333333,45.15616 11.2219733333333,45.156995 11.21815,45.15739 11.2128,45.1608816666667 11.2088616666667,45.165035 11.2033616666667,45.168345 11.1999033333333,45.1704483333333 11.19747,45.1726316666667 11.1950083333333,45.17772 11.19175,45.18283 11.19123,45.1840983333333 11.1909966666667,45.1841266666667 11.18436,45.18258 11.1794366666667,45.18126 11.1761466666667,45.1806316666667 11.167415,45.1787283333333 11.1588283333333,45.1768333333333 11.154265,45.176185 11.15378,45.1772483333333 11.1522783333333,45.1816533333333 11.1513,45.183925 11.15121,45.1842616666667 11.1454466666667,45.184275 11.1439083333333,45.1842283333333 11.1354583333333,45.1835383333333 11.1254583333333,45.1827416666667 11.1154533333333,45.1818316666667 11.1055983333333,45.181555 11.0957966666667,45.1809266666667 11.0861416666667,45.1802633333333 11.082165,45.17951 11.0789533333333,45.1772383333333 11.0743966666667,45.1774166666667 11.0693716666667,45.1799166666667 11.0647,45.1791516666667 11.0621666666667,45.1789816666667 11.05965,45.17866 11.0570033333333,45.1781366666667 11.05724,45.1779766666667 11.0581566666667,45.177515 11.0580933333333,45.177495 11.058195,45.177525 11.0581516666667,45.1775216666667 11.0582083333333,45.1775316666667 11.0581566666667,45.1775383333333 11.0581466666667,45.1775583333333 11.05813,45.17756 11.05821,45.1775016666667 11.0581433333333,45.17746 11.0581516666667,45.1773466666667 11.05816,45.1775316666667 11.0581666666667,45.1775633333333 11.0581966666667,45.177475 11.05815,45.177495 11.0581366666667,45.1775216666667 11.05827,45.17774 11.0581933333333,45.17755 11.0580833333333,45.1775683333333 11.0582033333333,45.1775933333333 11.0581333333333,45.1775516666667 11.0581183333333,45.1775316666667" opacity="0.8" /></g></svg>